STARTFONT 2.1
COMMENT
COMMENT Converted from OpenType font "nanum.ttf" by "otf2bdf 3.0".
COMMENT
FONT -FreeType-NanumGothic-Medium-R-Normal--17-120-100-100-P-139-ISO10646-1
SIZE 12 100 100
FONTBOUNDINGBOX 17 17 0 -3
STARTPROPERTIES 19
FOUNDRY "FreeType"
FAMILY_NAME "NanumGothic"
WEIGHT_NAME "Medium"
SLANT "R"
SETWIDTH_NAME "Normal"
ADD_STYLE_NAME ""
PIXEL_SIZE 17
POINT_SIZE 120
RESOLUTION_X 100
RESOLUTION_Y 100
SPACING "P"
AVERAGE_WIDTH 139
CHARSET_REGISTRY "ISO10646"
CHARSET_ENCODING "1"
FONT_ASCENT 15
FONT_DESCENT 3
COPYRIGHT "Copyright © 2011 NHN Corporation. All rights reserved. Font designed by Sandoll Communications Inc."
_OTF_FONTFILE "nanum.ttf"
_OTF_PSNAME "NanumGothic"
ENDPROPERTIES
CHARS 17666
STARTCHAR 0000
ENCODING 0
SWIDTH 300 0
DWIDTH 5 0
BBX 0 0 0 0
BITMAP
ENDCHAR
STARTCHAR 0001
ENCODING 1
SWIDTH 300 0
DWIDTH 5 0
BBX 0 0 0 0
BITMAP
ENDCHAR
STARTCHAR 0002
ENCODING 2
SWIDTH 300 0
DWIDTH 5 0
BBX 0 0 0 0
BITMAP
ENDCHAR
STARTCHAR 0003
ENCODING 3
SWIDTH 300 0
DWIDTH 5 0
BBX 0 0 0 0
BITMAP
ENDCHAR
STARTCHAR 0004
ENCODING 4
SWIDTH 300 0
DWIDTH 5 0
BBX 0 0 0 0
BITMAP
ENDCHAR
STARTCHAR 0005
ENCODING 5
SWIDTH 300 0
DWIDTH 5 0
BBX 0 0 0 0
BITMAP
ENDCHAR
STARTCHAR 0006
ENCODING 6
SWIDTH 300 0
DWIDTH 5 0
BBX 0 0 0 0
BITMAP
ENDCHAR
STARTCHAR 0007
ENCODING 7
SWIDTH 300 0
DWIDTH 5 0
BBX 0 0 0 0
BITMAP
ENDCHAR
STARTCHAR 0008
ENCODING 8
SWIDTH 300 0
DWIDTH 5 0
BBX 0 0 0 0
BITMAP
ENDCHAR
STARTCHAR 0009
ENCODING 9
SWIDTH 300 0
DWIDTH 5 0
BBX 0 0 0 0
BITMAP
ENDCHAR
STARTCHAR 000A
ENCODING 10
SWIDTH 300 0
DWIDTH 5 0
BBX 0 0 0 0
BITMAP
ENDCHAR
STARTCHAR 000B
ENCODING 11
SWIDTH 300 0
DWIDTH 5 0
BBX 0 0 0 0
BITMAP
ENDCHAR
STARTCHAR 000C
ENCODING 12
SWIDTH 300 0
DWIDTH 5 0
BBX 0 0 0 0
BITMAP
ENDCHAR
STARTCHAR 000D
ENCODING 13
SWIDTH 300 0
DWIDTH 5 0
BBX 0 0 0 0
BITMAP
ENDCHAR
STARTCHAR 000E
ENCODING 14
SWIDTH 300 0
DWIDTH 5 0
BBX 0 0 0 0
BITMAP
ENDCHAR
STARTCHAR 000F
ENCODING 15
SWIDTH 300 0
DWIDTH 5 0
BBX 0 0 0 0
BITMAP
ENDCHAR
STARTCHAR 0010
ENCODING 16
SWIDTH 300 0
DWIDTH 5 0
BBX 0 0 0 0
BITMAP
ENDCHAR
STARTCHAR 0011
ENCODING 17
SWIDTH 300 0
DWIDTH 5 0
BBX 0 0 0 0
BITMAP
ENDCHAR
STARTCHAR 0012
ENCODING 18
SWIDTH 300 0
DWIDTH 5 0
BBX 0 0 0 0
BITMAP
ENDCHAR
STARTCHAR 0013
ENCODING 19
SWIDTH 300 0
DWIDTH 5 0
BBX 0 0 0 0
BITMAP
ENDCHAR
STARTCHAR 0014
ENCODING 20
SWIDTH 300 0
DWIDTH 5 0
BBX 0 0 0 0
BITMAP
ENDCHAR
STARTCHAR 0015
ENCODING 21
SWIDTH 300 0
DWIDTH 5 0
BBX 0 0 0 0
BITMAP
ENDCHAR
STARTCHAR 0016
ENCODING 22
SWIDTH 300 0
DWIDTH 5 0
BBX 0 0 0 0
BITMAP
ENDCHAR
STARTCHAR 0017
ENCODING 23
SWIDTH 300 0
DWIDTH 5 0
BBX 0 0 0 0
BITMAP
ENDCHAR
STARTCHAR 0018
ENCODING 24
SWIDTH 300 0
DWIDTH 5 0
BBX 0 0 0 0
BITMAP
ENDCHAR
STARTCHAR 0019
ENCODING 25
SWIDTH 300 0
DWIDTH 5 0
BBX 0 0 0 0
BITMAP
ENDCHAR
STARTCHAR 001A
ENCODING 26
SWIDTH 300 0
DWIDTH 5 0
BBX 0 0 0 0
BITMAP
ENDCHAR
STARTCHAR 001B
ENCODING 27
SWIDTH 300 0
DWIDTH 5 0
BBX 0 0 0 0
BITMAP
ENDCHAR
STARTCHAR 001C
ENCODING 28
SWIDTH 300 0
DWIDTH 5 0
BBX 0 0 0 0
BITMAP
ENDCHAR
STARTCHAR 001D
ENCODING 29
SWIDTH 300 0
DWIDTH 5 0
BBX 0 0 0 0
BITMAP
ENDCHAR
STARTCHAR 001E
ENCODING 30
SWIDTH 300 0
DWIDTH 5 0
BBX 0 0 0 0
BITMAP
ENDCHAR
STARTCHAR 001F
ENCODING 31
SWIDTH 300 0
DWIDTH 5 0
BBX 0 0 0 0
BITMAP
ENDCHAR
STARTCHAR 0020
ENCODING 32
SWIDTH 300 0
DWIDTH 5 0
BBX 0 0 0 0
BITMAP
ENDCHAR
STARTCHAR 0021
ENCODING 33
SWIDTH 420 0
DWIDTH 7 0
BBX 1 13 3 -1
BITMAP
80
80
80
80
80
80
80
80
80
00
00
80
80
ENDCHAR
STARTCHAR 0022
ENCODING 34
SWIDTH 420 0
DWIDTH 7 0
BBX 3 4 2 8
BITMAP
A0
A0
A0
A0
ENDCHAR
STARTCHAR 0023
ENCODING 35
SWIDTH 600 0
DWIDTH 10 0
BBX 9 13 1 -1
BITMAP
1200
1200
1200
2200
FF80
2200
2600
2400
FF00
2400
6400
4400
4400
ENDCHAR
STARTCHAR 0024
ENCODING 36
SWIDTH 600 0
DWIDTH 10 0
BBX 7 16 2 -3
BITMAP
10
7C
D0
90
90
D0
70
38
1C
16
12
16
14
F8
10
10
ENDCHAR
STARTCHAR 0025
ENCODING 37
SWIDTH 1140 0
DWIDTH 19 0
BBX 14 13 2 -1
BITMAP
7820
C820
8440
84C0
8480
4900
7938
0244
0244
0444
0C44
0844
1038
ENDCHAR
STARTCHAR 0026
ENCODING 38
SWIDTH 720 0
DWIDTH 12 0
BBX 11 13 1 -1
BITMAP
1E00
2300
6100
2300
2200
1C00
3840
4440
C640
8380
C180
43C0
3E60
ENDCHAR
STARTCHAR 0027
ENCODING 39
SWIDTH 300 0
DWIDTH 5 0
BBX 1 4 2 8
BITMAP
80
80
80
80
ENDCHAR
STARTCHAR 0028
ENCODING 40
SWIDTH 360 0
DWIDTH 6 0
BBX 4 16 2 -3
BITMAP
10
20
40
40
40
80
80
80
80
80
80
40
40
40
20
10
ENDCHAR
STARTCHAR 0029
ENCODING 41
SWIDTH 360 0
DWIDTH 6 0
BBX 3 16 1 -3
BITMAP
80
40
40
20
20
20
20
20
20
20
20
20
20
40
40
80
ENDCHAR
STARTCHAR 002A
ENCODING 42
SWIDTH 600 0
DWIDTH 10 0
BBX 6 6 2 3
BITMAP
10
10
D4
38
28
4C
ENDCHAR
STARTCHAR 002B
ENCODING 43
SWIDTH 660 0
DWIDTH 11 0
BBX 9 9 1 1
BITMAP
0800
0800
0800
0800
FF80
0800
0800
0800
0800
ENDCHAR
STARTCHAR 002C
ENCODING 44
SWIDTH 300 0
DWIDTH 5 0
BBX 3 3 1 -3
BITMAP
60
40
C0
ENDCHAR
STARTCHAR 002D
ENCODING 45
SWIDTH 360 0
DWIDTH 6 0
BBX 4 1 1 5
BITMAP
F0
ENDCHAR
STARTCHAR 002E
ENCODING 46
SWIDTH 300 0
DWIDTH 5 0
BBX 1 2 2 -1
BITMAP
80
80
ENDCHAR
STARTCHAR 002F
ENCODING 47
SWIDTH 360 0
DWIDTH 6 0
BBX 6 13 0 -1
BITMAP
04
04
08
08
18
10
10
30
20
20
40
40
C0
ENDCHAR
STARTCHAR 0030
ENCODING 48
SWIDTH 600 0
DWIDTH 10 0
BBX 8 13 1 -1
BITMAP
3C
62
41
C1
81
81
81
81
81
C1
43
62
3C
ENDCHAR
STARTCHAR 0031
ENCODING 49
SWIDTH 600 0
DWIDTH 10 0
BBX 4 13 2 -1
BITMAP
10
70
D0
10
10
10
10
10
10
10
10
10
10
ENDCHAR
STARTCHAR 0032
ENCODING 50
SWIDTH 600 0
DWIDTH 10 0
BBX 8 13 1 -1
BITMAP
3C
46
02
02
02
06
04
08
18
30
60
40
FF
ENDCHAR
STARTCHAR 0033
ENCODING 51
SWIDTH 600 0
DWIDTH 10 0
BBX 8 13 1 -1
BITMAP
7C
02
03
01
03
06
38
06
03
01
03
06
FC
ENDCHAR
STARTCHAR 0034
ENCODING 52
SWIDTH 600 0
DWIDTH 10 0
BBX 9 13 1 -1
BITMAP
0600
0A00
0A00
1200
3200
2200
4200
C200
8200
FF80
0200
0200
0200
ENDCHAR
STARTCHAR 0035
ENCODING 53
SWIDTH 600 0
DWIDTH 10 0
BBX 7 13 2 -1
BITMAP
FE
80
80
80
80
F8
04
02
02
02
02
04
F8
ENDCHAR
STARTCHAR 0036
ENCODING 54
SWIDTH 600 0
DWIDTH 10 0
BBX 8 13 1 -1
BITMAP
1F
30
40
40
C0
9E
E3
C1
81
C1
41
63
3C
ENDCHAR
STARTCHAR 0037
ENCODING 55
SWIDTH 600 0
DWIDTH 10 0
BBX 8 13 1 -1
BITMAP
FF
01
02
02
06
04
0C
08
08
10
10
30
20
ENDCHAR
STARTCHAR 0038
ENCODING 56
SWIDTH 600 0
DWIDTH 10 0
BBX 8 13 1 -1
BITMAP
3C
43
C1
C1
43
36
3C
43
81
81
81
43
3E
ENDCHAR
STARTCHAR 0039
ENCODING 57
SWIDTH 600 0
DWIDTH 10 0
BBX 8 13 1 -1
BITMAP
3C
42
C1
81
81
81
43
3D
01
03
02
06
78
ENDCHAR
STARTCHAR 003A
ENCODING 58
SWIDTH 300 0
DWIDTH 5 0
BBX 2 9 2 1
BITMAP
C0
C0
00
00
00
00
00
C0
C0
ENDCHAR
STARTCHAR 003B
ENCODING 59
SWIDTH 300 0
DWIDTH 5 0
BBX 3 11 1 -1
BITMAP
60
60
00
00
00
00
00
00
40
40
C0
ENDCHAR
STARTCHAR 003C
ENCODING 60
SWIDTH 540 0
DWIDTH 9 0
BBX 7 16 1 -3
BITMAP
02
02
04
08
18
30
60
C0
C0
60
30
18
08
04
02
02
ENDCHAR
STARTCHAR 003D
ENCODING 61
SWIDTH 660 0
DWIDTH 11 0
BBX 9 5 1 3
BITMAP
FF80
0000
0000
0000
FF80
ENDCHAR
STARTCHAR 003E
ENCODING 62
SWIDTH 540 0
DWIDTH 9 0
BBX 7 16 1 -3
BITMAP
80
C0
60
30
10
08
04
02
02
04
08
10
20
60
C0
80
ENDCHAR
STARTCHAR 003F
ENCODING 63
SWIDTH 540 0
DWIDTH 9 0
BBX 6 13 2 -1
BITMAP
F0
08
04
04
0C
08
10
30
20
20
00
60
60
ENDCHAR
STARTCHAR 0040
ENCODING 64
SWIDTH 900 0
DWIDTH 15 0
BBX 13 13 1 -1
BITMAP
0F80
3060
6030
4750
88C8
98C8
9088
9098
9190
53A0
6CD0
3060
0F80
ENDCHAR
STARTCHAR 0041
ENCODING 65
SWIDTH 720 0
DWIDTH 12 0
BBX 11 13 1 -1
BITMAP
0C00
0E00
0A00
1200
1100
2100
2180
2080
7F80
4040
C040
8040
8020
ENDCHAR
STARTCHAR 0042
ENCODING 66
SWIDTH 600 0
DWIDTH 10 0
BBX 7 13 2 -1
BITMAP
F8
84
86
86
86
8C
F8
84
82
82
82
84
F8
ENDCHAR
STARTCHAR 0043
ENCODING 67
SWIDTH 660 0
DWIDTH 11 0
BBX 9 13 1 -1
BITMAP
0F80
3000
6000
4000
C000
C000
8000
C000
C000
4000
6000
3000
0F80
ENDCHAR
STARTCHAR 0044
ENCODING 68
SWIDTH 720 0
DWIDTH 12 0
BBX 9 13 2 -1
BITMAP
FC00
8600
8100
8180
8080
8080
8080
8080
8080
8100
8300
8600
F800
ENDCHAR
STARTCHAR 0045
ENCODING 69
SWIDTH 600 0
DWIDTH 10 0
BBX 7 13 2 -1
BITMAP
FC
80
80
80
80
80
FC
80
80
80
80
80
FE
ENDCHAR
STARTCHAR 0046
ENCODING 70
SWIDTH 540 0
DWIDTH 9 0
BBX 6 13 2 -1
BITMAP
FC
80
80
80
80
80
FC
80
80
80
80
80
80
ENDCHAR
STARTCHAR 0047
ENCODING 71
SWIDTH 840 0
DWIDTH 14 0
BBX 11 13 1 -1
BITMAP
0FC0
3000
2000
4000
4000
C000
C3E0
C020
4020
4020
6020
3060
0F80
ENDCHAR
STARTCHAR 0048
ENCODING 72
SWIDTH 720 0
DWIDTH 12 0
BBX 9 13 2 -1
BITMAP
8180
8180
8180
8180
8180
8180
FF80
8180
8180
8180
8180
8180
8180
ENDCHAR
STARTCHAR 0049
ENCODING 73
SWIDTH 240 0
DWIDTH 4 0
BBX 1 13 2 -1
BITMAP
80
80
80
80
80
80
80
80
80
80
80
80
80
ENDCHAR
STARTCHAR 004A
ENCODING 74
SWIDTH 360 0
DWIDTH 6 0
BBX 5 13 0 -1
BITMAP
18
18
18
18
18
18
18
18
18
18
18
10
E0
ENDCHAR
STARTCHAR 004B
ENCODING 75
SWIDTH 660 0
DWIDTH 11 0
BBX 8 13 2 -1
BITMAP
83
86
84
88
90
B0
F0
D8
8C
84
86
83
81
ENDCHAR
STARTCHAR 004C
ENCODING 76
SWIDTH 480 0
DWIDTH 8 0
BBX 6 13 2 -1
BITMAP
80
80
80
80
80
80
80
80
80
80
80
80
FC
ENDCHAR
STARTCHAR 004D
ENCODING 77
SWIDTH 960 0
DWIDTH 16 0
BBX 13 13 2 -1
BITMAP
C018
C038
E038
A078
A058
9058
9098
9898
8998
8918
8518
8618
8618
ENDCHAR
STARTCHAR 004E
ENCODING 78
SWIDTH 720 0
DWIDTH 12 0
BBX 9 13 2 -1
BITMAP
8080
C080
E080
A080
B080
9080
8880
8880
8480
8480
8280
8380
8180
ENDCHAR
STARTCHAR 004F
ENCODING 79
SWIDTH 780 0
DWIDTH 13 0
BBX 11 13 1 -1
BITMAP
1F00
30C0
6040
4060
C020
8020
8020
8020
C020
4060
6040
30C0
1F00
ENDCHAR
STARTCHAR 0050
ENCODING 80
SWIDTH 600 0
DWIDTH 10 0
BBX 7 13 2 -1
BITMAP
FC
86
82
82
82
86
FC
80
80
80
80
80
80
ENDCHAR
STARTCHAR 0051
ENCODING 81
SWIDTH 780 0
DWIDTH 13 0
BBX 11 15 1 -3
BITMAP
1F00
30C0
6040
4060
C020
8020
8020
8020
C020
4060
6040
30C0
1F00
0180
00C0
ENDCHAR
STARTCHAR 0052
ENCODING 82
SWIDTH 660 0
DWIDTH 11 0
BBX 8 13 2 -1
BITMAP
FC
86
82
82
82
84
F8
8C
84
84
82
82
81
ENDCHAR
STARTCHAR 0053
ENCODING 83
SWIDTH 540 0
DWIDTH 9 0
BBX 7 13 1 -1
BITMAP
3E
40
C0
C0
40
70
18
06
02
02
02
06
F8
ENDCHAR
STARTCHAR 0054
ENCODING 84
SWIDTH 540 0
DWIDTH 9 0
BBX 9 13 0 -1
BITMAP
FF80
0800
0800
0800
0800
0800
0800
0800
0800
0800
0800
0800
0800
ENDCHAR
STARTCHAR 0055
ENCODING 85
SWIDTH 720 0
DWIDTH 12 0
BBX 9 13 2 -1
BITMAP
8080
8080
8080
8080
8080
8080
8080
8080
8080
8180
8100
4300
3E00
ENDCHAR
STARTCHAR 0056
ENCODING 86
SWIDTH 660 0
DWIDTH 11 0
BBX 11 13 0 -1
BITMAP
C020
4060
4040
2040
20C0
3080
1080
1100
1900
0B00
0A00
0E00
0600
ENDCHAR
STARTCHAR 0057
ENCODING 87
SWIDTH 1080 0
DWIDTH 18 0
BBX 17 13 0 -1
BITMAP
C0C080
40C080
414100
614100
212100
212300
222200
323200
121200
141400
141400
0C0C00
0C0C00
ENDCHAR
STARTCHAR 0058
ENCODING 88
SWIDTH 660 0
DWIDTH 11 0
BBX 10 13 1 -1
BITMAP
C080
4180
6100
3200
1600
0C00
0C00
1400
3200
2300
4100
C080
80C0
ENDCHAR
STARTCHAR 0059
ENCODING 89
SWIDTH 660 0
DWIDTH 11 0
BBX 10 13 1 -1
BITMAP
80C0
C080
4100
2100
3200
1600
1C00
0800
0800
0800
0800
0800
0800
ENDCHAR
STARTCHAR 005A
ENCODING 90
SWIDTH 540 0
DWIDTH 9 0
BBX 8 13 1 -1
BITMAP
FF
02
06
04
08
18
10
30
20
40
C0
80
FF
ENDCHAR
STARTCHAR 005B
ENCODING 91
SWIDTH 360 0
DWIDTH 6 0
BBX 3 16 2 -3
BITMAP
E0
C0
C0
C0
C0
C0
C0
C0
C0
C0
C0
C0
C0
C0
C0
E0
ENDCHAR
STARTCHAR 005C
ENCODING 92
SWIDTH 960 0
DWIDTH 16 0
BBX 15 13 1 -1
BITMAP
4308
4308
4308
2288
2288
FFFE
2490
2490
1450
1450
1860
1860
0860
ENDCHAR
STARTCHAR 005D
ENCODING 93
SWIDTH 360 0
DWIDTH 6 0
BBX 3 16 1 -3
BITMAP
E0
20
20
20
20
20
20
20
20
20
20
20
20
20
20
E0
ENDCHAR
STARTCHAR 005E
ENCODING 94
SWIDTH 660 0
DWIDTH 11 0
BBX 9 8 1 4
BITMAP
0800
1C00
1400
3200
2200
6100
4100
C080
ENDCHAR
STARTCHAR 005F
ENCODING 95
SWIDTH 540 0
DWIDTH 9 0
BBX 9 1 0 -3
BITMAP
FF80
ENDCHAR
STARTCHAR 0060
ENCODING 96
SWIDTH 240 0
DWIDTH 4 0
BBX 2 2 1 10
BITMAP
80
40
ENDCHAR
STARTCHAR 0061
ENCODING 97
SWIDTH 540 0
DWIDTH 9 0
BBX 7 9 1 -1
BITMAP
3C
46
02
02
3E
C2
82
86
7A
ENDCHAR
STARTCHAR 0062
ENCODING 98
SWIDTH 600 0
DWIDTH 10 0
BBX 8 14 1 -1
BITMAP
C0
C0
C0
C0
C0
DE
E3
C1
C1
C1
C1
C1
E3
DE
ENDCHAR
STARTCHAR 0063
ENCODING 99
SWIDTH 480 0
DWIDTH 8 0
BBX 7 9 1 -1
BITMAP
3E
60
C0
80
80
80
C0
60
3E
ENDCHAR
STARTCHAR 0064
ENCODING 100
SWIDTH 600 0
DWIDTH 10 0
BBX 8 14 1 -1
BITMAP
01
01
01
01
01
3D
43
C3
81
81
81
C3
47
3D
ENDCHAR
STARTCHAR 0065
ENCODING 101
SWIDTH 540 0
DWIDTH 9 0
BBX 8 9 1 -1
BITMAP
3C
46
C2
82
FF
80
80
40
3E
ENDCHAR
STARTCHAR 0066
ENCODING 102
SWIDTH 360 0
DWIDTH 6 0
BBX 5 14 1 -1
BITMAP
38
20
60
60
60
F8
60
60
60
60
60
60
60
60
ENDCHAR
STARTCHAR 0067
ENCODING 103
SWIDTH 600 0
DWIDTH 10 0
BBX 8 11 1 -3
BITMAP
3D
43
C1
81
81
C1
43
3D
03
02
7C
ENDCHAR
STARTCHAR 0068
ENCODING 104
SWIDTH 600 0
DWIDTH 10 0
BBX 7 14 2 -1
BITMAP
80
80
80
80
80
FC
C4
82
82
82
82
82
82
82
ENDCHAR
STARTCHAR 0069
ENCODING 105
SWIDTH 240 0
DWIDTH 4 0
BBX 2 14 1 -1
BITMAP
C0
C0
00
00
40
40
40
40
40
40
40
40
40
40
ENDCHAR
STARTCHAR 006A
ENCODING 106
SWIDTH 300 0
DWIDTH 5 0
BBX 3 16 0 -3
BITMAP
20
20
00
00
20
20
20
20
20
20
20
20
20
20
20
E0
ENDCHAR
STARTCHAR 006B
ENCODING 107
SWIDTH 540 0
DWIDTH 9 0
BBX 6 14 2 -1
BITMAP
80
80
80
80
8C
88
90
A0
E0
E0
90
98
88
84
ENDCHAR
STARTCHAR 006C
ENCODING 108
SWIDTH 240 0
DWIDTH 4 0
BBX 1 14 2 -1
BITMAP
80
80
80
80
80
80
80
80
80
80
80
80
80
80
ENDCHAR
STARTCHAR 006D
ENCODING 109
SWIDTH 900 0
DWIDTH 15 0
BBX 12 9 2 -1
BITMAP
F9E0
C630
8610
8410
8410
8410
8410
8410
8410
ENDCHAR
STARTCHAR 006E
ENCODING 110
SWIDTH 600 0
DWIDTH 10 0
BBX 7 9 2 -1
BITMAP
FC
C4
82
82
82
82
82
82
82
ENDCHAR
STARTCHAR 006F
ENCODING 111
SWIDTH 600 0
DWIDTH 10 0
BBX 9 9 1 -1
BITMAP
3C00
4300
C100
8100
8180
8100
C100
6300
3C00
ENDCHAR
STARTCHAR 0070
ENCODING 112
SWIDTH 600 0
DWIDTH 10 0
BBX 8 11 1 -3
BITMAP
BC
E2
C1
C1
C1
C1
C1
E2
FC
C0
C0
ENDCHAR
STARTCHAR 0071
ENCODING 113
SWIDTH 600 0
DWIDTH 10 0
BBX 8 11 1 -3
BITMAP
3D
43
C3
81
81
81
C3
63
3D
01
01
ENDCHAR
STARTCHAR 0072
ENCODING 114
SWIDTH 360 0
DWIDTH 6 0
BBX 4 9 2 -1
BITMAP
B0
C0
80
80
80
80
80
80
80
ENDCHAR
STARTCHAR 0073
ENCODING 115
SWIDTH 420 0
DWIDTH 7 0
BBX 6 9 1 -1
BITMAP
78
80
80
C0
30
08
0C
08
F0
ENDCHAR
STARTCHAR 0074
ENCODING 116
SWIDTH 360 0
DWIDTH 6 0
BBX 5 12 1 -1
BITMAP
60
60
60
F8
60
60
60
60
60
60
60
38
ENDCHAR
STARTCHAR 0075
ENCODING 117
SWIDTH 600 0
DWIDTH 10 0
BBX 7 9 2 -1
BITMAP
82
82
82
82
82
82
86
8E
7A
ENDCHAR
STARTCHAR 0076
ENCODING 118
SWIDTH 480 0
DWIDTH 8 0
BBX 8 9 0 -1
BITMAP
C1
43
42
22
24
24
14
18
18
ENDCHAR
STARTCHAR 0077
ENCODING 119
SWIDTH 840 0
DWIDTH 14 0
BBX 14 9 0 -1
BITMAP
C304
4304
4288
6488
2488
2450
3850
1850
1820
ENDCHAR
STARTCHAR 0078
ENCODING 120
SWIDTH 540 0
DWIDTH 9 0
BBX 7 9 1 -1
BITMAP
86
44
68
38
30
28
4C
C4
86
ENDCHAR
STARTCHAR 0079
ENCODING 121
SWIDTH 480 0
DWIDTH 8 0
BBX 7 11 1 -3
BITMAP
86
84
C4
48
48
68
30
30
20
20
C0
ENDCHAR
STARTCHAR 007A
ENCODING 122
SWIDTH 480 0
DWIDTH 8 0
BBX 7 9 1 -1
BITMAP
FE
04
08
18
10
20
40
80
FE
ENDCHAR
STARTCHAR 007B
ENCODING 123
SWIDTH 300 0
DWIDTH 5 0
BBX 4 16 1 -3
BITMAP
30
60
40
40
40
40
40
C0
C0
40
40
40
40
40
60
30
ENDCHAR
STARTCHAR 007C
ENCODING 124
SWIDTH 240 0
DWIDTH 4 0
BBX 1 16 2 -3
BITMAP
80
80
80
80
80
80
80
80
80
80
80
80
80
80
80
80
ENDCHAR
STARTCHAR 007D
ENCODING 125
SWIDTH 300 0
DWIDTH 5 0
BBX 4 16 0 -3
BITMAP
E0
20
20
20
20
20
20
10
10
20
20
20
20
20
20
C0
ENDCHAR
STARTCHAR 007E
ENCODING 126
SWIDTH 660 0
DWIDTH 11 0
BBX 9 3 1 4
BITMAP
7000
CC80
0700
ENDCHAR
STARTCHAR 00A0
ENCODING 160
SWIDTH 300 0
DWIDTH 5 0
BBX 0 0 0 0
BITMAP
ENDCHAR
STARTCHAR 00A1
ENCODING 161
SWIDTH 300 0
DWIDTH 5 0
BBX 1 13 2 -1
BITMAP
80
80
00
80
80
80
80
80
80
80
80
80
80
ENDCHAR
STARTCHAR 00A2
ENCODING 162
SWIDTH 960 0
DWIDTH 16 0
BBX 9 14 3 -2
BITMAP
0080
1F00
2100
4280
4280
4400
C400
4400
4880
4880
3180
1E00
2000
2000
ENDCHAR
STARTCHAR 00A3
ENCODING 163
SWIDTH 960 0
DWIDTH 16 0
BBX 10 12 3 -1
BITMAP
0F00
1100
2080
2000
1000
1000
7F80
1000
0800
7840
9C80
7380
ENDCHAR
STARTCHAR 00A4
ENCODING 164
SWIDTH 840 0
DWIDTH 14 0
BBX 12 12 1 -1
BITMAP
0600
D990
6060
4020
4020
8010
8010
4020
4020
2060
5F90
8000
ENDCHAR
STARTCHAR 00A5
ENCODING 165
SWIDTH 960 0
DWIDTH 16 0
BBX 10 12 3 -1
BITMAP
C080
4080
2100
3300
FFC0
1E00
0C00
FFC0
0C00
0C00
0C00
0C00
ENDCHAR
STARTCHAR 00A7
ENCODING 167
SWIDTH 360 0
DWIDTH 6 0
BBX 4 14 1 -2
BITMAP
E0
90
80
80
40
E0
90
90
70
20
10
10
90
E0
ENDCHAR
STARTCHAR 00A8
ENCODING 168
SWIDTH 540 0
DWIDTH 9 0
BBX 7 2 1 10
BITMAP
C6
C6
ENDCHAR
STARTCHAR 00A9
ENCODING 169
SWIDTH 900 0
DWIDTH 15 0
BBX 13 13 1 -1
BITMAP
0F80
3060
4F10
9890
9048
B008
A008
B008
9048
9890
4F10
3060
0F80
ENDCHAR
STARTCHAR 00AA
ENCODING 170
SWIDTH 540 0
DWIDTH 9 0
BBX 6 7 2 5
BITMAP
70
88
70
88
90
60
FC
ENDCHAR
STARTCHAR 00AB
ENCODING 171
SWIDTH 960 0
DWIDTH 16 0
BBX 12 12 2 -1
BITMAP
0110
0260
0C80
1100
2600
C800
8800
6400
1300
0C80
0260
0110
ENDCHAR
STARTCHAR 00AC
ENCODING 172
SWIDTH 960 0
DWIDTH 16 0
BBX 14 5 1 -3
BITMAP
FFFC
0004
0004
0004
0004
ENDCHAR
STARTCHAR 00AD
ENCODING 173
SWIDTH 420 0
DWIDTH 7 0
BBX 5 1 1 5
BITMAP
F8
ENDCHAR
STARTCHAR 00AE
ENCODING 174
SWIDTH 960 0
DWIDTH 16 0
BBX 14 13 1 -1
BITMAP
0FC0
3030
4F88
4CC8
8C44
8CC4
8F84
8D84
8C84
4CC8
4C50
3030
0FC0
ENDCHAR
STARTCHAR 00B0
ENCODING 176
SWIDTH 480 0
DWIDTH 8 0
BBX 4 4 2 8
BITMAP
E0
90
90
E0
ENDCHAR
STARTCHAR 00B1
ENCODING 177
SWIDTH 600 0
DWIDTH 10 0
BBX 8 11 1 0
BITMAP
10
10
10
10
FF
10
10
10
10
00
FF
ENDCHAR
STARTCHAR 00B2
ENCODING 178
SWIDTH 420 0
DWIDTH 7 0
BBX 3 4 2 8
BITMAP
E0
20
C0
E0
ENDCHAR
STARTCHAR 00B3
ENCODING 179
SWIDTH 420 0
DWIDTH 7 0
BBX 3 4 2 8
BITMAP
E0
40
A0
40
ENDCHAR
STARTCHAR 00B4
ENCODING 180
SWIDTH 360 0
DWIDTH 6 0
BBX 3 3 1 9
BITMAP
60
40
80
ENDCHAR
STARTCHAR 00B6
ENCODING 182
SWIDTH 600 0
DWIDTH 10 0
BBX 8 14 1 -2
BITMAP
3F
79
F9
F9
79
79
09
09
09
09
09
09
09
09
ENDCHAR
STARTCHAR 00B7
ENCODING 183
SWIDTH 300 0
DWIDTH 5 0
BBX 1 2 2 5
BITMAP
80
80
ENDCHAR
STARTCHAR 00B8
ENCODING 184
SWIDTH 300 0
DWIDTH 5 0
BBX 2 3 2 -3
BITMAP
80
40
C0
ENDCHAR
STARTCHAR 00B9
ENCODING 185
SWIDTH 420 0
DWIDTH 7 0
BBX 1 3 3 8
BITMAP
80
80
80
ENDCHAR
STARTCHAR 00BA
ENCODING 186
SWIDTH 540 0
DWIDTH 9 0
BBX 6 7 2 5
BITMAP
70
88
88
88
88
70
FC
ENDCHAR
STARTCHAR 00BB
ENCODING 187
SWIDTH 960 0
DWIDTH 16 0
BBX 12 12 2 -1
BITMAP
8800
6400
1300
0880
0640
0130
0110
0260
0C80
1300
6400
8800
ENDCHAR
STARTCHAR 00BC
ENCODING 188
SWIDTH 780 0
DWIDTH 13 0
BBX 9 14 2 -2
BITMAP
4000
C000
4080
4100
4200
4400
0800
1000
2100
4300
8500
0780
0100
0100
ENDCHAR
STARTCHAR 00BD
ENCODING 189
SWIDTH 720 0
DWIDTH 12 0
BBX 10 14 1 -2
BITMAP
2000
6000
2040
2080
2100
2200
0400
0800
13C0
2240
4080
8100
0200
03C0
ENDCHAR
STARTCHAR 00BE
ENCODING 190
SWIDTH 780 0
DWIDTH 13 0
BBX 10 14 1 -2
BITMAP
7000
9000
3040
1080
8900
7200
0400
0800
1080
1180
2280
43C0
0080
0080
ENDCHAR
STARTCHAR 00BF
ENCODING 191
SWIDTH 540 0
DWIDTH 9 0
BBX 6 13 2 -1
BITMAP
10
30
00
10
30
20
40
80
80
80
80
C4
78
ENDCHAR
STARTCHAR 00C0
ENCODING 192
SWIDTH 660 0
DWIDTH 11 0
BBX 11 14 0 -1
BITMAP
0C00
0400
0400
0E00
0A00
0B00
1100
1100
3180
3F80
20C0
4040
4040
C060
ENDCHAR
STARTCHAR 00C1
ENCODING 193
SWIDTH 660 0
DWIDTH 11 0
BBX 11 14 0 -1
BITMAP
0200
0400
0400
0E00
0A00
0B00
1100
1100
3180
3F80
20C0
4040
4040
C060
ENDCHAR
STARTCHAR 00C2
ENCODING 194
SWIDTH 660 0
DWIDTH 11 0
BBX 11 14 0 -1
BITMAP
0E00
1B00
0400
0E00
0A00
0B00
1100
1100
3180
3F80
20C0
4040
4040
C060
ENDCHAR
STARTCHAR 00C6
ENCODING 198
SWIDTH 840 0
DWIDTH 14 0
BBX 13 12 1 -1
BITMAP
1FF0
1E00
3200
2200
2200
23F0
6200
4200
7E00
C200
C200
83F8
ENDCHAR
STARTCHAR 00C7
ENCODING 199
SWIDTH 600 0
DWIDTH 10 0
BBX 8 14 1 -3
BITMAP
0F
31
40
C0
80
80
80
80
C0
60
3F
08
0C
0C
ENDCHAR
STARTCHAR 00C8
ENCODING 200
SWIDTH 540 0
DWIDTH 9 0
BBX 7 14 1 -1
BITMAP
60
30
00
FE
80
80
80
80
FC
80
80
80
80
FE
ENDCHAR
STARTCHAR 00C9
ENCODING 201
SWIDTH 540 0
DWIDTH 9 0
BBX 7 14 1 -1
BITMAP
18
10
FE
80
80
80
80
FC
80
80
80
80
80
FE
ENDCHAR
STARTCHAR 00CA
ENCODING 202
SWIDTH 540 0
DWIDTH 9 0
BBX 7 14 1 -1
BITMAP
38
68
00
FE
80
80
80
80
FC
80
80
80
80
FE
ENDCHAR
STARTCHAR 00CB
ENCODING 203
SWIDTH 540 0
DWIDTH 9 0
BBX 7 14 1 -1
BITMAP
4C
48
00
FE
80
80
80
80
FC
80
80
80
80
FE
ENDCHAR
STARTCHAR 00CD
ENCODING 205
SWIDTH 420 0
DWIDTH 7 0
BBX 2 14 3 -1
BITMAP
C0
80
80
80
80
80
80
80
80
80
80
80
80
80
ENDCHAR
STARTCHAR 00CE
ENCODING 206
SWIDTH 360 0
DWIDTH 6 0
BBX 4 14 1 -1
BITMAP
70
90
20
20
20
20
20
20
20
20
20
20
20
20
ENDCHAR
STARTCHAR 00CF
ENCODING 207
SWIDTH 420 0
DWIDTH 7 0
BBX 5 14 1 -1
BITMAP
98
00
20
20
20
20
20
20
20
20
20
20
20
20
ENDCHAR
STARTCHAR 00D0
ENCODING 208
SWIDTH 840 0
DWIDTH 14 0
BBX 10 12 2 -1
BITMAP
7F00
4080
4040
4040
4040
F040
4040
4040
4040
4080
4380
7E00
ENDCHAR
STARTCHAR 00D1
ENCODING 209
SWIDTH 720 0
DWIDTH 12 0
BBX 9 14 2 -1
BITMAP
3E00
0400
8080
C080
E080
A080
B080
9080
8880
8C80
8480
8280
8380
8180
ENDCHAR
STARTCHAR 00D3
ENCODING 211
SWIDTH 720 0
DWIDTH 12 0
BBX 10 14 1 -1
BITMAP
0400
0800
1E00
6180
4080
C0C0
8040
8040
8040
8040
C0C0
4080
6180
1E00
ENDCHAR
STARTCHAR 00D4
ENCODING 212
SWIDTH 720 0
DWIDTH 12 0
BBX 10 14 1 -1
BITMAP
1E00
1200
1E00
6180
4080
C0C0
8040
8040
8040
8040
C0C0
4080
6180
1E00
ENDCHAR
STARTCHAR 00D7
ENCODING 215
SWIDTH 600 0
DWIDTH 10 0
BBX 8 8 1 1
BITMAP
81
42
24
18
18
24
42
81
ENDCHAR
STARTCHAR 00D8
ENCODING 216
SWIDTH 780 0
DWIDTH 13 0
BBX 11 14 1 -1
BITMAP
0E40
3180
60C0
4140
C220
8220
8420
8420
C820
4860
7040
3180
3F00
4000
ENDCHAR
STARTCHAR 00D9
ENCODING 217
SWIDTH 660 0
DWIDTH 11 0
BBX 9 14 1 -1
BITMAP
1800
0800
8080
8080
8080
8080
8080
8080
8080
8080
8080
C180
6300
3E00
ENDCHAR
STARTCHAR 00DA
ENCODING 218
SWIDTH 660 0
DWIDTH 11 0
BBX 9 14 1 -1
BITMAP
0C00
1800
8080
8080
8080
8080
8080
8080
8080
8080
8080
C180
6300
3E00
ENDCHAR
STARTCHAR 00DB
ENCODING 219
SWIDTH 660 0
DWIDTH 11 0
BBX 9 14 1 -1
BITMAP
1C00
3600
8080
8080
8080
8080
8080
8080
8080
8080
8080
C180
6300
3E00
ENDCHAR
STARTCHAR 00DC
ENCODING 220
SWIDTH 660 0
DWIDTH 11 0
BBX 9 14 1 -1
BITMAP
3600
0000
8080
8080
8080
8080
8080
8080
8080
8080
8080
C180
6300
3E00
ENDCHAR
STARTCHAR 00DE
ENCODING 222
SWIDTH 540 0
DWIDTH 9 0
BBX 7 12 1 -1
BITMAP
C0
E0
D8
C4
C4
C2
C6
C4
C8
F0
C0
C0
ENDCHAR
STARTCHAR 00DF
ENCODING 223
SWIDTH 660 0
DWIDTH 11 0
BBX 8 13 2 -1
BITMAP
78
C6
82
82
82
84
BC
82
81
81
81
A3
9E
ENDCHAR
STARTCHAR 00E0
ENCODING 224
SWIDTH 540 0
DWIDTH 9 0
BBX 7 13 1 -1
BITMAP
20
10
00
38
44
02
02
3E
C2
82
86
C6
7A
ENDCHAR
STARTCHAR 00E1
ENCODING 225
SWIDTH 540 0
DWIDTH 9 0
BBX 7 13 1 -1
BITMAP
0C
18
00
38
44
02
02
3E
C2
82
86
C6
7A
ENDCHAR
STARTCHAR 00E2
ENCODING 226
SWIDTH 540 0
DWIDTH 9 0
BBX 7 13 1 -1
BITMAP
18
28
00
38
44
02
02
3E
C2
82
86
C6
7A
ENDCHAR
STARTCHAR 00E4
ENCODING 228
SWIDTH 540 0
DWIDTH 9 0
BBX 7 12 1 -1
BITMAP
6C
00
38
44
02
02
3E
C2
82
86
C6
7A
ENDCHAR
STARTCHAR 00E6
ENCODING 230
SWIDTH 960 0
DWIDTH 16 0
BBX 14 10 1 -1
BITMAP
3860
4798
0308
0208
3FFC
4200
8200
8300
C508
78F8
ENDCHAR
STARTCHAR 00E7
ENCODING 231
SWIDTH 540 0
DWIDTH 9 0
BBX 7 12 1 -3
BITMAP
1C
62
C0
80
80
80
80
C0
7E
08
1C
1C
ENDCHAR
STARTCHAR 00E8
ENCODING 232
SWIDTH 540 0
DWIDTH 9 0
BBX 7 13 1 -1
BITMAP
30
10
00
18
64
C2
82
FE
80
80
C0
42
3E
ENDCHAR
STARTCHAR 00E9
ENCODING 233
SWIDTH 540 0
DWIDTH 9 0
BBX 7 13 1 -1
BITMAP
0C
18
00
18
64
C2
82
FE
80
80
C0
42
3E
ENDCHAR
STARTCHAR 00EA
ENCODING 234
SWIDTH 540 0
DWIDTH 9 0
BBX 7 13 1 -1
BITMAP
18
2C
00
18
64
C2
82
FE
80
80
C0
42
3E
ENDCHAR
STARTCHAR 00EB
ENCODING 235
SWIDTH 540 0
DWIDTH 9 0
BBX 7 12 1 -1
BITMAP
64
00
18
64
C2
82
FE
80
80
C0
42
3E
ENDCHAR
STARTCHAR 00ED
ENCODING 237
SWIDTH 420 0
DWIDTH 7 0
BBX 2 13 3 -1
BITMAP
40
C0
00
00
80
80
80
80
80
80
80
80
80
ENDCHAR
STARTCHAR 00EE
ENCODING 238
SWIDTH 360 0
DWIDTH 6 0
BBX 4 13 1 -1
BITMAP
60
D0
00
00
20
20
20
20
20
20
20
20
20
ENDCHAR
STARTCHAR 00EF
ENCODING 239
SWIDTH 420 0
DWIDTH 7 0
BBX 5 12 1 -1
BITMAP
98
00
00
20
20
20
20
20
20
20
20
20
ENDCHAR
STARTCHAR 00F0
ENCODING 240
SWIDTH 600 0
DWIDTH 10 0
BBX 8 13 1 -1
BITMAP
10
0C
0C
02
3E
43
81
81
81
81
C1
42
3C
ENDCHAR
STARTCHAR 00F1
ENCODING 241
SWIDTH 600 0
DWIDTH 10 0
BBX 7 13 2 -1
BITMAP
20
5C
00
38
C4
86
82
82
82
82
82
82
82
ENDCHAR
STARTCHAR 00F3
ENCODING 243
SWIDTH 600 0
DWIDTH 10 0
BBX 9 13 1 -1
BITMAP
0400
0800
0000
1C00
6600
C100
8100
8180
8180
8100
C100
6300
3C00
ENDCHAR
STARTCHAR 00F4
ENCODING 244
SWIDTH 600 0
DWIDTH 10 0
BBX 9 13 1 -1
BITMAP
1800
3400
0000
1C00
6600
C100
8100
8180
8180
8100
C100
6300
3C00
ENDCHAR
STARTCHAR 00F6
ENCODING 246
SWIDTH 600 0
DWIDTH 10 0
BBX 9 12 1 -1
BITMAP
2600
0000
1C00
6600
C100
8100
8180
8180
8100
C100
6300
3C00
ENDCHAR
STARTCHAR 00F7
ENCODING 247
SWIDTH 660 0
DWIDTH 11 0
BBX 9 9 1 1
BITMAP
0800
0800
0000
0000
FF80
0000
0000
0800
0800
ENDCHAR
STARTCHAR 00F8
ENCODING 248
SWIDTH 600 0
DWIDTH 10 0
BBX 8 11 1 -2
BITMAP
02
3E
47
C5
89
89
91
51
62
3C
40
ENDCHAR
STARTCHAR 00F9
ENCODING 249
SWIDTH 540 0
DWIDTH 9 0
BBX 7 13 1 -1
BITMAP
20
30
00
00
82
82
82
82
82
82
82
C6
7A
ENDCHAR
STARTCHAR 00FA
ENCODING 250
SWIDTH 540 0
DWIDTH 9 0
BBX 7 13 1 -1
BITMAP
08
10
00
00
82
82
82
82
82
82
82
C6
7A
ENDCHAR
STARTCHAR 00FB
ENCODING 251
SWIDTH 540 0
DWIDTH 9 0
BBX 7 13 1 -1
BITMAP
18
28
00
00
82
82
82
82
82
82
82
C6
7A
ENDCHAR
STARTCHAR 00FC
ENCODING 252
SWIDTH 540 0
DWIDTH 9 0
BBX 7 12 1 -1
BITMAP
64
00
00
82
82
82
82
82
82
82
C6
7A
ENDCHAR
STARTCHAR 00FE
ENCODING 254
SWIDTH 600 0
DWIDTH 10 0
BBX 7 13 2 -2
BITMAP
80
80
80
F8
84
84
82
82
86
84
8C
F8
80
ENDCHAR
STARTCHAR 0111
ENCODING 273
SWIDTH 660 0
DWIDTH 11 0
BBX 9 12 1 -1
BITMAP
0100
0780
0100
7D00
4300
8300
8100
8100
8100
8300
4700
3900
ENDCHAR
STARTCHAR 0126
ENCODING 294
SWIDTH 780 0
DWIDTH 13 0
BBX 11 12 1 -1
BITMAP
4040
4040
FFE0
4040
4040
7FC0
4040
4040
4040
4040
4040
4040
ENDCHAR
STARTCHAR 0127
ENCODING 295
SWIDTH 660 0
DWIDTH 11 0
BBX 8 12 1 -1
BITMAP
40
F8
40
5E
61
41
41
41
41
41
41
41
ENDCHAR
STARTCHAR 0131
ENCODING 305
SWIDTH 300 0
DWIDTH 5 0
BBX 1 9 2 -1
BITMAP
80
80
80
80
80
80
80
80
80
ENDCHAR
STARTCHAR 0132
ENCODING 306
SWIDTH 720 0
DWIDTH 12 0
BBX 9 12 1 -1
BITMAP
8080
8080
8080
8080
8080
8080
8080
8080
9080
9080
9980
8F00
ENDCHAR
STARTCHAR 0133
ENCODING 307
SWIDTH 480 0
DWIDTH 8 0
BBX 4 14 2 -3
BITMAP
90
00
00
90
90
90
90
90
90
90
90
90
10
30
ENDCHAR
STARTCHAR 0138
ENCODING 312
SWIDTH 600 0
DWIDTH 10 0
BBX 7 9 1 -1
BITMAP
86
88
90
B0
D8
88
84
86
82
ENDCHAR
STARTCHAR 013F
ENCODING 319
SWIDTH 600 0
DWIDTH 10 0
BBX 8 12 1 -1
BITMAP
80
80
80
80
8C
8C
80
80
80
80
80
FF
ENDCHAR
STARTCHAR 0140
ENCODING 320
SWIDTH 420 0
DWIDTH 7 0
BBX 5 12 1 -1
BITMAP
80
80
80
80
98
98
80
80
80
80
80
80
ENDCHAR
STARTCHAR 0141
ENCODING 321
SWIDTH 780 0
DWIDTH 13 0
BBX 10 12 2 -1
BITMAP
2000
2000
2400
2800
3000
2000
6000
A000
2000
2000
2000
3FC0
ENDCHAR
STARTCHAR 0142
ENCODING 322
SWIDTH 480 0
DWIDTH 8 0
BBX 4 12 2 -1
BITMAP
40
40
40
50
60
40
C0
40
40
40
40
40
ENDCHAR
STARTCHAR 0149
ENCODING 329
SWIDTH 720 0
DWIDTH 12 0
BBX 10 11 1 -1
BITMAP
C000
4000
5780
9840
1040
1040
1040
1040
1040
1040
1040
ENDCHAR
STARTCHAR 014A
ENCODING 330
SWIDTH 720 0
DWIDTH 12 0
BBX 10 14 1 -3
BITMAP
C0C0
A0C0
B0C0
90C0
88C0
8CC0
84C0
82C0
83C0
81C0
80C0
80C0
08C0
0780
ENDCHAR
STARTCHAR 014B
ENCODING 331
SWIDTH 660 0
DWIDTH 11 0
BBX 7 11 2 -3
BITMAP
FC
C6
82
82
82
82
82
82
82
22
3C
ENDCHAR
STARTCHAR 0152
ENCODING 338
SWIDTH 900 0
DWIDTH 15 0
BBX 13 12 1 -1
BITMAP
1FF8
3200
4200
C200
8200
83F0
8200
8200
C200
4200
7200
1FF8
ENDCHAR
STARTCHAR 0153
ENCODING 339
SWIDTH 960 0
DWIDTH 16 0
BBX 15 10 1 -1
BITMAP
3C78
46CC
8384
8104
81FE
8100
8100
8380
46C4
3C7C
ENDCHAR
STARTCHAR 0166
ENCODING 358
SWIDTH 660 0
DWIDTH 11 0
BBX 9 12 1 -1
BITMAP
FF80
0800
0800
0800
0800
3E00
0800
0800
0800
0800
0800
0800
ENDCHAR
STARTCHAR 0167
ENCODING 359
SWIDTH 420 0
DWIDTH 7 0
BBX 4 12 2 -1
BITMAP
40
40
40
F0
40
F0
40
40
40
40
40
30
ENDCHAR
STARTCHAR 02BC
ENCODING 700
SWIDTH 180 0
DWIDTH 3 0
BBX 2 4 1 8
BITMAP
80
C0
40
80
ENDCHAR
STARTCHAR 02C7
ENCODING 711
SWIDTH 540 0
DWIDTH 9 0
BBX 6 2 1 10
BITMAP
C4
38
ENDCHAR
STARTCHAR 02D0
ENCODING 720
SWIDTH 960 0
DWIDTH 16 0
BBX 2 6 7 2
BITMAP
C0
00
00
00
00
C0
ENDCHAR
STARTCHAR 02D8
ENCODING 728
SWIDTH 540 0
DWIDTH 9 0
BBX 7 2 1 10
BITMAP
82
7C
ENDCHAR
STARTCHAR 02D9
ENCODING 729
SWIDTH 240 0
DWIDTH 4 0
BBX 2 3 1 9
BITMAP
40
C0
40
ENDCHAR
STARTCHAR 02DA
ENCODING 730
SWIDTH 300 0
DWIDTH 5 0
BBX 4 3 1 9
BITMAP
E0
90
E0
ENDCHAR
STARTCHAR 02DB
ENCODING 731
SWIDTH 300 0
DWIDTH 5 0
BBX 3 2 1 -2
BITMAP
80
E0
ENDCHAR
STARTCHAR 02DC
ENCODING 732
SWIDTH 900 0
DWIDTH 15 0
BBX 8 2 4 10
BITMAP
F1
0E
ENDCHAR
STARTCHAR 02DD
ENCODING 733
SWIDTH 480 0
DWIDTH 8 0
BBX 5 3 1 9
BITMAP
48
48
90
ENDCHAR
STARTCHAR 0391
ENCODING 913
SWIDTH 720 0
DWIDTH 12 0
BBX 10 12 1 -1
BITMAP
0C00
0C00
1200
1200
1300
2100
2100
7F80
4080
4080
8040
8040
ENDCHAR
STARTCHAR 0392
ENCODING 914
SWIDTH 720 0
DWIDTH 12 0
BBX 9 12 1 -1
BITMAP
FF00
8080
8080
8080
8100
FF00
8080
8080
8080
8080
8180
FE00
ENDCHAR
STARTCHAR 0393
ENCODING 915
SWIDTH 660 0
DWIDTH 11 0
BBX 8 12 1 -1
BITMAP
FF
80
80
80
80
80
80
80
80
80
80
80
ENDCHAR
STARTCHAR 0394
ENCODING 916
SWIDTH 720 0
DWIDTH 12 0
BBX 10 12 1 -1
BITMAP
0C00
0C00
0A00
1200
1100
3100
2100
2080
4080
40C0
4040
FFC0
ENDCHAR
STARTCHAR 0395
ENCODING 917
SWIDTH 600 0
DWIDTH 10 0
BBX 8 12 1 -1
BITMAP
FF
80
80
80
80
FF
80
80
80
80
80
FF
ENDCHAR
STARTCHAR 0396
ENCODING 918
SWIDTH 660 0
DWIDTH 11 0
BBX 9 12 1 -1
BITMAP
7F80
0100
0300
0600
0400
0800
1000
3000
2000
4000
8000
FF80
ENDCHAR
STARTCHAR 0397
ENCODING 919
SWIDTH 660 0
DWIDTH 11 0
BBX 9 12 1 -1
BITMAP
8080
8080
8080
8080
8080
FF80
8080
8080
8080
8080
8080
8080
ENDCHAR
STARTCHAR 0398
ENCODING 920
SWIDTH 780 0
DWIDTH 13 0
BBX 11 13 1 -1
BITMAP
0E00
3180
60C0
4040
8060
8020
BFA0
8020
8020
4040
4040
3180
1F00
ENDCHAR
STARTCHAR 0399
ENCODING 921
SWIDTH 240 0
DWIDTH 4 0
BBX 1 12 2 -1
BITMAP
80
80
80
80
80
80
80
80
80
80
80
80
ENDCHAR
STARTCHAR 039A
ENCODING 922
SWIDTH 660 0
DWIDTH 11 0
BBX 9 12 1 -1
BITMAP
8180
8200
8400
8800
9000
B800
CC00
8400
8200
8300
8100
8080
ENDCHAR
STARTCHAR 039B
ENCODING 923
SWIDTH 720 0
DWIDTH 12 0
BBX 10 12 1 -1
BITMAP
0C00
0C00
1200
1200
1300
2100
2100
6080
4080
4080
8040
8040
ENDCHAR
STARTCHAR 039C
ENCODING 924
SWIDTH 840 0
DWIDTH 14 0
BBX 12 12 1 -1
BITMAP
C030
E070
A070
A0F0
90B0
90B0
9930
8930
8930
8630
8630
8630
ENDCHAR
STARTCHAR 039D
ENCODING 925
SWIDTH 720 0
DWIDTH 12 0
BBX 9 12 1 -1
BITMAP
C080
E080
A080
9080
9880
8880
8480
8680
8280
8180
8180
8080
ENDCHAR
STARTCHAR 039E
ENCODING 926
SWIDTH 720 0
DWIDTH 12 0
BBX 10 12 1 -1
BITMAP
FFC0
0000
0000
0000
0000
3F00
0000
0000
0000
0000
0000
FFC0
ENDCHAR
STARTCHAR 039F
ENCODING 927
SWIDTH 780 0
DWIDTH 13 0
BBX 11 13 1 -1
BITMAP
0E00
3180
60C0
4040
8060
8020
8020
8020
8020
4040
4040
3180
1F00
ENDCHAR
STARTCHAR 03A0
ENCODING 928
SWIDTH 660 0
DWIDTH 11 0
BBX 9 12 1 -1
BITMAP
FF80
8080
8080
8080
8080
8080
8080
8080
8080
8080
8080
8080
ENDCHAR
STARTCHAR 03A1
ENCODING 929
SWIDTH 660 0
DWIDTH 11 0
BBX 9 12 1 -1
BITMAP
FF00
8100
8080
8080
8100
FF00
8000
8000
8000
8000
8000
8000
ENDCHAR
STARTCHAR 03A3
ENCODING 931
SWIDTH 600 0
DWIDTH 10 0
BBX 9 12 1 -1
BITMAP
FF00
4000
2000
3000
1800
0800
1000
3000
2000
4000
8000
FF80
ENDCHAR
STARTCHAR 03A4
ENCODING 932
SWIDTH 660 0
DWIDTH 11 0
BBX 9 12 1 -1
BITMAP
FF80
0800
0800
0800
0800
0800
0800
0800
0800
0800
0800
0800
ENDCHAR
STARTCHAR 03A5
ENCODING 933
SWIDTH 720 0
DWIDTH 12 0
BBX 9 12 1 -1
BITMAP
C080
4180
2100
3200
1200
0C00
0C00
0800
0800
0800
0800
0800
ENDCHAR
STARTCHAR 03A6
ENCODING 934
SWIDTH 780 0
DWIDTH 13 0
BBX 11 12 1 -1
BITMAP
0400
0E00
7580
C440
8420
8420
8420
C440
7580
0E00
0400
0400
ENDCHAR
STARTCHAR 03A7
ENCODING 935
SWIDTH 720 0
DWIDTH 12 0
BBX 10 12 1 -1
BITMAP
4180
6100
2200
1600
0C00
0800
1C00
1200
2300
6100
4080
80C0
ENDCHAR
STARTCHAR 03A8
ENCODING 936
SWIDTH 780 0
DWIDTH 13 0
BBX 12 12 1 -1
BITMAP
C430
4440
4440
4440
4440
4440
2440
3F80
0400
0400
0400
0400
ENDCHAR
STARTCHAR 03A9
ENCODING 937
SWIDTH 720 0
DWIDTH 12 0
BBX 10 13 1 -1
BITMAP
0C00
3300
4080
80C0
8040
8040
8040
4080
7380
1200
9240
9240
F3C0
ENDCHAR
STARTCHAR 03B1
ENCODING 945
SWIDTH 480 0
DWIDTH 8 0
BBX 8 9 0 -1
BITMAP
7A
46
46
86
84
C4
44
4D
3B
ENDCHAR
STARTCHAR 03B2
ENCODING 946
SWIDTH 480 0
DWIDTH 8 0
BBX 6 15 1 -3
BITMAP
30
C8
84
84
84
88
B8
84
84
84
84
8C
F8
80
80
ENDCHAR
STARTCHAR 03B3
ENCODING 947
SWIDTH 480 0
DWIDTH 8 0
BBX 6 11 1 -3
BITMAP
84
88
48
30
20
30
48
C8
8C
88
78
ENDCHAR
STARTCHAR 03B4
ENCODING 948
SWIDTH 480 0
DWIDTH 8 0
BBX 7 13 0 -1
BITMAP
18
24
24
20
10
3C
46
42
82
82
42
46
3C
ENDCHAR
STARTCHAR 03B5
ENCODING 949
SWIDTH 480 0
DWIDTH 8 0
BBX 7 9 0 -1
BITMAP
7C
42
40
60
70
40
C2
46
3C
ENDCHAR
STARTCHAR 03B6
ENCODING 950
SWIDTH 480 0
DWIDTH 8 0
BBX 6 14 1 -3
BITMAP
78
10
20
40
40
80
80
80
80
80
78
04
04
3C
ENDCHAR
STARTCHAR 03B7
ENCODING 951
SWIDTH 480 0
DWIDTH 8 0
BBX 7 10 0 -2
BITMAP
B8
C4
84
84
84
84
84
84
84
06
ENDCHAR
STARTCHAR 03B8
ENCODING 952
SWIDTH 480 0
DWIDTH 8 0
BBX 7 13 0 -1
BITMAP
18
64
42
42
C2
82
FE
82
82
C2
42
64
38
ENDCHAR
STARTCHAR 03B9
ENCODING 953
SWIDTH 420 0
DWIDTH 7 0
BBX 3 9 2 -1
BITMAP
80
80
80
80
80
80
80
A0
E0
ENDCHAR
STARTCHAR 03BA
ENCODING 954
SWIDTH 480 0
DWIDTH 8 0
BBX 6 9 1 -1
BITMAP
8C
98
B0
E0
D0
90
88
8C
84
ENDCHAR
STARTCHAR 03BB
ENCODING 955
SWIDTH 480 0
DWIDTH 8 0
BBX 7 13 0 -1
BITMAP
C0
40
20
20
20
30
30
30
70
58
48
4A
8E
ENDCHAR
STARTCHAR 03BC
ENCODING 956
SWIDTH 480 0
DWIDTH 8 0
BBX 6 11 1 -3
BITMAP
84
84
84
84
84
84
84
8C
F4
80
80
ENDCHAR
STARTCHAR 03BD
ENCODING 957
SWIDTH 480 0
DWIDTH 8 0
BBX 7 9 0 -1
BITMAP
C2
42
22
24
24
14
18
18
18
ENDCHAR
STARTCHAR 03BE
ENCODING 958
SWIDTH 480 0
DWIDTH 8 0
BBX 6 14 1 -3
BITMAP
70
20
40
60
30
40
80
80
80
80
70
0C
04
38
ENDCHAR
STARTCHAR 03BF
ENCODING 959
SWIDTH 480 0
DWIDTH 8 0
BBX 7 9 0 -1
BITMAP
3C
42
42
82
82
82
42
46
3C
ENDCHAR
STARTCHAR 03C0
ENCODING 960
SWIDTH 480 0
DWIDTH 8 0
BBX 7 9 0 -1
BITMAP
FE
2C
2C
2C
2C
2C
2C
2E
46
ENDCHAR
STARTCHAR 03C1
ENCODING 961
SWIDTH 480 0
DWIDTH 8 0
BBX 7 11 0 -3
BITMAP
3C
42
42
82
82
82
C2
C6
BC
80
80
ENDCHAR
STARTCHAR 03C3
ENCODING 963
SWIDTH 480 0
DWIDTH 8 0
BBX 8 10 0 -1
BITMAP
0E
3D
42
42
82
82
82
42
46
38
ENDCHAR
STARTCHAR 03C4
ENCODING 964
SWIDTH 480 0
DWIDTH 8 0
BBX 7 9 0 -1
BITMAP
FE
10
10
10
10
10
10
14
18
ENDCHAR
STARTCHAR 03C5
ENCODING 965
SWIDTH 480 0
DWIDTH 8 0
BBX 6 9 1 -1
BITMAP
88
8C
84
84
84
84
84
8C
78
ENDCHAR
STARTCHAR 03C6
ENCODING 966
SWIDTH 480 0
DWIDTH 8 0
BBX 7 14 0 -3
BITMAP
10
10
10
3C
52
D2
92
92
92
52
56
3C
10
10
ENDCHAR
STARTCHAR 03C7
ENCODING 967
SWIDTH 480 0
DWIDTH 8 0
BBX 7 11 0 -3
BITMAP
E2
26
14
18
18
18
18
28
68
44
86
ENDCHAR
STARTCHAR 03C8
ENCODING 968
SWIDTH 480 0
DWIDTH 8 0
BBX 7 11 0 -3
BITMAP
92
92
52
52
52
52
52
56
38
10
10
ENDCHAR
STARTCHAR 03C9
ENCODING 969
SWIDTH 480 0
DWIDTH 8 0
BBX 7 9 0 -1
BITMAP
44
42
92
92
92
92
92
9A
6E
ENDCHAR
STARTCHAR 0401
ENCODING 1025
SWIDTH 660 0
DWIDTH 11 0
BBX 8 15 1 -1
BITMAP
24
24
00
FF
C0
C0
C0
C0
FF
C0
C0
C0
C0
C0
FF
ENDCHAR
STARTCHAR 0410
ENCODING 1040
SWIDTH 780 0
DWIDTH 13 0
BBX 10 12 1 -1
BITMAP
0C00
0A00
0A00
1200
1100
3100
2180
3F80
4080
4040
4040
8040
ENDCHAR
STARTCHAR 0411
ENCODING 1041
SWIDTH 720 0
DWIDTH 12 0
BBX 9 12 2 -1
BITMAP
FE00
8000
8000
8000
8000
FE00
8100
8180
8080
8180
8300
FC00
ENDCHAR
STARTCHAR 0412
ENCODING 1042
SWIDTH 720 0
DWIDTH 12 0
BBX 10 12 1 -1
BITMAP
FF00
C080
C080
C080
C100
FF00
C080
C0C0
C040
C080
C180
FE00
ENDCHAR
STARTCHAR 0413
ENCODING 1043
SWIDTH 600 0
DWIDTH 10 0
BBX 8 12 1 -1
BITMAP
FF
80
80
80
80
80
80
80
80
80
80
80
ENDCHAR
STARTCHAR 0414
ENCODING 1044
SWIDTH 840 0
DWIDTH 14 0
BBX 12 14 1 -3
BITMAP
1FC0
1040
1040
1040
1040
1040
1040
1040
1040
2040
6040
FFE0
8010
8010
ENDCHAR
STARTCHAR 0415
ENCODING 1045
SWIDTH 600 0
DWIDTH 10 0
BBX 8 12 1 -1
BITMAP
FF
80
80
80
80
FF
80
80
80
80
80
FF
ENDCHAR
STARTCHAR 0416
ENCODING 1046
SWIDTH 900 0
DWIDTH 15 0
BBX 13 13 1 -1
BITMAP
8008
6230
3240
1240
1280
0A80
0F80
0A80
1A80
1240
1240
2220
C218
ENDCHAR
STARTCHAR 0417
ENCODING 1047
SWIDTH 600 0
DWIDTH 10 0
BBX 8 13 1 -1
BITMAP
18
66
42
C1
02
06
1E
03
01
81
C1
42
3C
ENDCHAR
STARTCHAR 0418
ENCODING 1048
SWIDTH 720 0
DWIDTH 12 0
BBX 10 12 1 -1
BITMAP
80C0
80C0
81C0
82C0
86C0
8CC0
88C0
90C0
A0C0
C0C0
C0C0
80C0
ENDCHAR
STARTCHAR 0419
ENCODING 1049
SWIDTH 720 0
DWIDTH 12 0
BBX 10 14 1 0
BITMAP
1E00
0000
80C0
80C0
81C0
82C0
86C0
8CC0
88C0
90C0
A0C0
C0C0
C0C0
80C0
ENDCHAR
STARTCHAR 041A
ENCODING 1050
SWIDTH 720 0
DWIDTH 12 0
BBX 9 12 1 -1
BITMAP
8180
8200
8400
8800
9000
B800
CC00
8400
8200
8300
8180
8080
ENDCHAR
STARTCHAR 041B
ENCODING 1051
SWIDTH 720 0
DWIDTH 12 0
BBX 10 12 1 -1
BITMAP
1FC0
1040
1040
1040
1040
1040
1040
1040
1040
2040
6040
C040
ENDCHAR
STARTCHAR 041C
ENCODING 1052
SWIDTH 840 0
DWIDTH 14 0
BBX 11 12 1 -1
BITMAP
C060
A060
A060
A0A0
90A0
90A0
9920
8920
8920
8620
8620
8620
ENDCHAR
STARTCHAR 041D
ENCODING 1053
SWIDTH 660 0
DWIDTH 11 0
BBX 9 12 1 -1
BITMAP
8080
8080
8080
8080
8080
FF80
8080
8080
8080
8080
8080
8080
ENDCHAR
STARTCHAR 041E
ENCODING 1054
SWIDTH 780 0
DWIDTH 13 0
BBX 11 13 1 -1
BITMAP
0E00
3180
60C0
4040
C060
8020
8020
8020
C060
4040
40C0
3180
1F00
ENDCHAR
STARTCHAR 041F
ENCODING 1055
SWIDTH 660 0
DWIDTH 11 0
BBX 9 12 1 -1
BITMAP
FF80
8080
8080
8080
8080
8080
8080
8080
8080
8080
8080
8080
ENDCHAR
STARTCHAR 0420
ENCODING 1056
SWIDTH 660 0
DWIDTH 11 0
BBX 8 12 1 -1
BITMAP
FF
81
81
81
81
FF
80
80
80
80
80
80
ENDCHAR
STARTCHAR 0421
ENCODING 1057
SWIDTH 780 0
DWIDTH 13 0
BBX 10 13 1 -1
BITMAP
0E00
3180
60C0
4040
C000
8000
8000
8000
C040
4040
40C0
3180
1F00
ENDCHAR
STARTCHAR 0422
ENCODING 1058
SWIDTH 660 0
DWIDTH 11 0
BBX 9 12 1 -1
BITMAP
FF80
0800
0800
0800
0800
0800
0800
0800
0800
0800
0800
0800
ENDCHAR
STARTCHAR 0423
ENCODING 1059
SWIDTH 600 0
DWIDTH 10 0
BBX 6 12 2 -1
BITMAP
84
84
84
48
48
28
30
30
20
20
20
C0
ENDCHAR
STARTCHAR 0424
ENCODING 1060
SWIDTH 780 0
DWIDTH 13 0
BBX 10 12 1 -1
BITMAP
0400
1E00
6580
4440
8440
8440
8440
C440
6480
1F00
0400
0400
ENDCHAR
STARTCHAR 0425
ENCODING 1061
SWIDTH 720 0
DWIDTH 12 0
BBX 10 12 1 -1
BITMAP
4080
2100
3300
1200
0C00
0C00
0C00
1200
3300
2100
4080
C0C0
ENDCHAR
STARTCHAR 0426
ENCODING 1062
SWIDTH 780 0
DWIDTH 13 0
BBX 11 14 1 -3
BITMAP
C080
C080
C080
C080
C080
C080
C080
C080
C080
C080
C080
FFC0
0020
0020
ENDCHAR
STARTCHAR 0427
ENCODING 1063
SWIDTH 600 0
DWIDTH 10 0
BBX 7 12 1 -1
BITMAP
82
82
82
82
82
82
42
6E
12
02
02
02
ENDCHAR
STARTCHAR 0428
ENCODING 1064
SWIDTH 840 0
DWIDTH 14 0
BBX 10 12 2 -1
BITMAP
8840
8840
8840
8840
8840
8840
8840
8840
8840
8840
8840
FFC0
ENDCHAR
STARTCHAR 0429
ENCODING 1065
SWIDTH 840 0
DWIDTH 14 0
BBX 12 14 1 -3
BITMAP
8440
8440
8440
8440
8440
8440
8440
8440
8440
8440
8440
FFE0
0010
0010
ENDCHAR
STARTCHAR 042A
ENCODING 1066
SWIDTH 780 0
DWIDTH 13 0
BBX 11 12 1 -1
BITMAP
F000
3000
3000
3000
3000
3FC0
3060
3020
3020
3020
30C0
3F00
ENDCHAR
STARTCHAR 042B
ENCODING 1067
SWIDTH 840 0
DWIDTH 14 0
BBX 11 12 1 -1
BITMAP
C020
C020
C020
C020
C020
FE20
C120
C120
C1A0
C120
C320
FC20
ENDCHAR
STARTCHAR 042C
ENCODING 1068
SWIDTH 720 0
DWIDTH 12 0
BBX 10 12 1 -1
BITMAP
8000
8000
8000
8000
8000
FF00
8080
8080
80C0
8080
8180
FE00
ENDCHAR
STARTCHAR 042D
ENCODING 1069
SWIDTH 720 0
DWIDTH 12 0
BBX 10 13 1 -1
BITMAP
1E00
7300
4080
8040
0040
0040
1FC0
0040
8040
8040
4080
6180
1E00
ENDCHAR
STARTCHAR 042E
ENCODING 1070
SWIDTH 840 0
DWIDTH 14 0
BBX 12 13 1 -1
BITMAP
0180
8660
8C20
8810
8810
8810
F810
8810
8810
8810
8C30
8660
83C0
ENDCHAR
STARTCHAR 042F
ENCODING 1071
SWIDTH 660 0
DWIDTH 11 0
BBX 9 12 1 -1
BITMAP
7F80
C080
8080
8080
4080
3F80
6080
4080
C080
C080
8080
8080
ENDCHAR
STARTCHAR 0430
ENCODING 1072
SWIDTH 600 0
DWIDTH 10 0
BBX 7 9 2 -1
BITMAP
7C
84
86
0E
76
86
86
8A
72
ENDCHAR
STARTCHAR 0431
ENCODING 1073
SWIDTH 600 0
DWIDTH 10 0
BBX 8 13 1 -1
BITMAP
02
04
38
20
7E
43
C1
81
81
81
41
62
3C
ENDCHAR
STARTCHAR 0432
ENCODING 1074
SWIDTH 660 0
DWIDTH 11 0
BBX 8 9 2 -1
BITMAP
FE
82
82
86
FE
82
83
82
FC
ENDCHAR
STARTCHAR 0433
ENCODING 1075
SWIDTH 540 0
DWIDTH 9 0
BBX 7 9 1 -1
BITMAP
FE
80
80
80
80
80
80
80
80
ENDCHAR
STARTCHAR 0434
ENCODING 1076
SWIDTH 720 0
DWIDTH 12 0
BBX 11 11 1 -3
BITMAP
3F80
2080
2080
2080
2080
2080
2080
4080
FFC0
8020
0020
ENDCHAR
STARTCHAR 0435
ENCODING 1077
SWIDTH 600 0
DWIDTH 10 0
BBX 8 9 1 -1
BITMAP
3C
42
81
81
FF
80
43
42
3C
ENDCHAR
STARTCHAR 0436
ENCODING 1078
SWIDTH 780 0
DWIDTH 13 0
BBX 11 9 1 -1
BITMAP
C460
2480
1500
1500
1F00
1500
1480
2480
C460
ENDCHAR
STARTCHAR 0437
ENCODING 1079
SWIDTH 600 0
DWIDTH 10 0
BBX 8 9 1 -1
BITMAP
7E
43
81
06
1E
01
81
43
3C
ENDCHAR
STARTCHAR 0438
ENCODING 1080
SWIDTH 600 0
DWIDTH 10 0
BBX 8 9 1 -1
BITMAP
81
83
85
89
91
A1
C1
81
81
ENDCHAR
STARTCHAR 0439
ENCODING 1081
SWIDTH 600 0
DWIDTH 10 0
BBX 8 12 1 -1
BITMAP
44
38
00
81
83
85
89
91
A1
C1
81
81
ENDCHAR
STARTCHAR 043A
ENCODING 1082
SWIDTH 600 0
DWIDTH 10 0
BBX 7 9 1 -1
BITMAP
86
88
90
B0
D8
88
84
86
82
ENDCHAR
STARTCHAR 043B
ENCODING 1083
SWIDTH 660 0
DWIDTH 11 0
BBX 9 9 1 -1
BITMAP
3F80
2080
2080
2080
2080
2080
2080
4080
8080
ENDCHAR
STARTCHAR 043C
ENCODING 1084
SWIDTH 780 0
DWIDTH 13 0
BBX 11 9 1 -1
BITMAP
C060
E060
A0A0
B0A0
9120
9920
8A20
8620
8420
ENDCHAR
STARTCHAR 043D
ENCODING 1085
SWIDTH 660 0
DWIDTH 11 0
BBX 8 9 1 -1
BITMAP
81
81
81
81
FF
81
81
81
81
ENDCHAR
STARTCHAR 043E
ENCODING 1086
SWIDTH 600 0
DWIDTH 10 0
BBX 8 9 1 -1
BITMAP
3E
42
81
81
81
81
C1
42
3C
ENDCHAR
STARTCHAR 043F
ENCODING 1087
SWIDTH 600 0
DWIDTH 10 0
BBX 8 9 1 -1
BITMAP
FF
81
81
81
81
81
81
81
81
ENDCHAR
STARTCHAR 0440
ENCODING 1088
SWIDTH 600 0
DWIDTH 10 0
BBX 8 11 1 -3
BITMAP
BE
C2
81
81
81
81
C3
C2
BC
80
80
ENDCHAR
STARTCHAR 0441
ENCODING 1089
SWIDTH 600 0
DWIDTH 10 0
BBX 7 9 1 -1
BITMAP
3C
42
82
80
80
80
C2
42
3C
ENDCHAR
STARTCHAR 0442
ENCODING 1090
SWIDTH 600 0
DWIDTH 10 0
BBX 8 9 1 -1
BITMAP
FF
08
08
08
08
08
08
08
08
ENDCHAR
STARTCHAR 0443
ENCODING 1091
SWIDTH 600 0
DWIDTH 10 0
BBX 7 11 1 -3
BITMAP
82
42
42
64
24
24
18
18
10
10
70
ENDCHAR
STARTCHAR 0444
ENCODING 1092
SWIDTH 780 0
DWIDTH 13 0
BBX 11 14 1 -3
BITMAP
0400
0400
0400
3FC0
4440
4420
8420
8420
8420
4420
6440
3F80
0400
0400
ENDCHAR
STARTCHAR 0445
ENCODING 1093
SWIDTH 600 0
DWIDTH 10 0
BBX 8 9 1 -1
BITMAP
42
26
34
18
18
34
24
42
C1
ENDCHAR
STARTCHAR 0446
ENCODING 1094
SWIDTH 660 0
DWIDTH 11 0
BBX 9 11 1 -3
BITMAP
8100
8100
8100
8100
8100
8100
8100
8100
FF00
0080
0080
ENDCHAR
STARTCHAR 0447
ENCODING 1095
SWIDTH 540 0
DWIDTH 9 0
BBX 7 9 1 -1
BITMAP
82
82
82
82
82
46
3A
02
02
ENDCHAR
STARTCHAR 0448
ENCODING 1096
SWIDTH 780 0
DWIDTH 13 0
BBX 11 9 1 -1
BITMAP
8460
8460
8460
8460
8460
8460
8460
8460
FFE0
ENDCHAR
STARTCHAR 0449
ENCODING 1097
SWIDTH 780 0
DWIDTH 13 0
BBX 12 11 1 -3
BITMAP
8840
8840
8840
8840
8840
8840
8840
8840
FFE0
0020
0010
ENDCHAR
STARTCHAR 044A
ENCODING 1098
SWIDTH 660 0
DWIDTH 11 0
BBX 9 9 1 -1
BITMAP
E000
2000
2000
2000
3F80
2080
2080
2180
3F00
ENDCHAR
STARTCHAR 044B
ENCODING 1099
SWIDTH 720 0
DWIDTH 12 0
BBX 10 9 1 -1
BITMAP
8040
8040
8040
8040
FE40
8240
8240
8640
F840
ENDCHAR
STARTCHAR 044C
ENCODING 1100
SWIDTH 540 0
DWIDTH 9 0
BBX 7 9 1 -1
BITMAP
80
80
80
80
FE
82
82
82
FC
ENDCHAR
STARTCHAR 044D
ENCODING 1101
SWIDTH 600 0
DWIDTH 10 0
BBX 8 9 1 -1
BITMAP
7C
C2
82
01
3F
03
82
46
3C
ENDCHAR
STARTCHAR 044E
ENCODING 1102
SWIDTH 780 0
DWIDTH 13 0
BBX 11 9 1 -1
BITMAP
87C0
8860
8820
8820
F820
8820
8820
8C40
8380
ENDCHAR
STARTCHAR 044F
ENCODING 1103
SWIDTH 600 0
DWIDTH 10 0
BBX 8 9 1 -1
BITMAP
7F
83
83
C3
3F
43
83
83
83
ENDCHAR
STARTCHAR 0451
ENCODING 1105
SWIDTH 600 0
DWIDTH 10 0
BBX 8 12 1 -1
BITMAP
24
00
00
3C
42
81
81
FF
80
43
42
3C
ENDCHAR
STARTCHAR 1100
ENCODING 4352
SWIDTH 960 0
DWIDTH 16 0
BBX 8 8 4 1
BITMAP
FF
01
01
01
01
01
01
01
ENDCHAR
STARTCHAR 1101
ENCODING 4353
SWIDTH 960 0
DWIDTH 16 0
BBX 10 8 3 1
BITMAP
F7C0
1840
1840
1840
1840
1840
1840
0040
ENDCHAR
STARTCHAR 1102
ENCODING 4354
SWIDTH 960 0
DWIDTH 16 0
BBX 8 7 4 2
BITMAP
80
80
80
80
80
80
FF
ENDCHAR
STARTCHAR 1103
ENCODING 4355
SWIDTH 960 0
DWIDTH 16 0
BBX 8 7 4 2
BITMAP
FF
80
80
80
80
80
FF
ENDCHAR
STARTCHAR 1104
ENCODING 4356
SWIDTH 960 0
DWIDTH 16 0
BBX 10 7 3 2
BITMAP
F7C0
8400
8400
8400
8400
8400
FFC0
ENDCHAR
STARTCHAR 1105
ENCODING 4357
SWIDTH 960 0
DWIDTH 16 0
BBX 8 8 4 1
BITMAP
FF
01
01
FF
80
80
80
FF
ENDCHAR
STARTCHAR 1106
ENCODING 4358
SWIDTH 960 0
DWIDTH 16 0
BBX 8 7 4 2
BITMAP
7E
81
81
81
81
81
FF
ENDCHAR
STARTCHAR 1107
ENCODING 4359
SWIDTH 960 0
DWIDTH 16 0
BBX 8 7 4 2
BITMAP
81
81
81
FF
81
81
FF
ENDCHAR
STARTCHAR 1108
ENCODING 4360
SWIDTH 960 0
DWIDTH 16 0
BBX 10 7 3 2
BITMAP
9640
9640
9640
F7C0
9640
9640
9240
ENDCHAR
STARTCHAR 1109
ENCODING 4361
SWIDTH 960 0
DWIDTH 16 0
BBX 8 8 4 1
BITMAP
18
18
10
18
2C
66
C3
80
ENDCHAR
STARTCHAR 110A
ENCODING 4362
SWIDTH 960 0
DWIDTH 16 0
BBX 11 8 3 1
BITMAP
1100
3100
3300
3380
4AC0
C460
0C00
1800
ENDCHAR
STARTCHAR 110B
ENCODING 4363
SWIDTH 960 0
DWIDTH 16 0
BBX 8 8 4 1
BITMAP
7E
C3
81
81
81
C3
66
3C
ENDCHAR
STARTCHAR 110C
ENCODING 4364
SWIDTH 960 0
DWIDTH 16 0
BBX 10 8 3 1
BITMAP
FF80
0100
0200
0400
0C00
3300
61C0
8000
ENDCHAR
STARTCHAR 110D
ENCODING 4365
SWIDTH 960 0
DWIDTH 16 0
BBX 12 8 2 1
BITMAP
7FE0
0840
0840
1080
2DC0
4760
8610
0400
ENDCHAR
STARTCHAR 110E
ENCODING 4366
SWIDTH 960 0
DWIDTH 16 0
BBX 10 9 3 1
BITMAP
1E00
0000
FF80
0080
0100
0600
1E00
7180
C040
ENDCHAR
STARTCHAR 110F
ENCODING 4367
SWIDTH 960 0
DWIDTH 16 0
BBX 8 8 4 1
BITMAP
FF
01
01
FF
01
01
01
01
ENDCHAR
STARTCHAR 1110
ENCODING 4368
SWIDTH 960 0
DWIDTH 16 0
BBX 8 7 4 2
BITMAP
FF
80
80
FF
80
80
FF
ENDCHAR
STARTCHAR 1111
ENCODING 4369
SWIDTH 960 0
DWIDTH 16 0
BBX 10 7 3 2
BITMAP
7F80
3300
3300
3300
3300
3300
FFC0
ENDCHAR
STARTCHAR 1112
ENCODING 4370
SWIDTH 960 0
DWIDTH 16 0
BBX 10 9 3 1
BITMAP
3E00
0000
FFC0
0000
1E00
2100
4180
6180
3F00
ENDCHAR
STARTCHAR 115F
ENCODING 4447
SWIDTH 0 0
DWIDTH 0 0
BBX 0 0 0 0
BITMAP
ENDCHAR
STARTCHAR 1160
ENCODING 4448
SWIDTH 0 0
DWIDTH 0 0
BBX 0 0 0 0
BITMAP
ENDCHAR
STARTCHAR 1161
ENCODING 4449
SWIDTH 960 0
DWIDTH 16 0
BBX 4 15 6 -2
BITMAP
80
80
80
80
80
80
80
F0
80
80
80
80
80
80
80
ENDCHAR
STARTCHAR 1162
ENCODING 4450
SWIDTH 960 0
DWIDTH 16 0
BBX 6 15 5 -2
BITMAP
84
84
84
84
84
84
84
FC
84
84
84
84
84
84
84
ENDCHAR
STARTCHAR 1163
ENCODING 4451
SWIDTH 960 0
DWIDTH 16 0
BBX 4 15 6 -2
BITMAP
80
80
80
80
F0
80
80
80
80
F0
80
80
80
80
80
ENDCHAR
STARTCHAR 1164
ENCODING 4452
SWIDTH 960 0
DWIDTH 16 0
BBX 6 15 5 -2
BITMAP
84
84
84
84
84
FC
84
84
FC
84
84
84
84
84
84
ENDCHAR
STARTCHAR 1165
ENCODING 4453
SWIDTH 960 0
DWIDTH 16 0
BBX 4 15 6 -2
BITMAP
10
10
10
10
10
10
F0
10
10
10
10
10
10
10
10
ENDCHAR
STARTCHAR 1166
ENCODING 4454
SWIDTH 960 0
DWIDTH 16 0
BBX 7 15 4 -2
BITMAP
12
12
12
12
12
12
F2
12
12
12
12
12
12
12
12
ENDCHAR
STARTCHAR 1167
ENCODING 4455
SWIDTH 960 0
DWIDTH 16 0
BBX 4 15 6 -2
BITMAP
10
10
10
10
F0
10
10
10
10
F0
10
10
10
10
10
ENDCHAR
STARTCHAR 1168
ENCODING 4456
SWIDTH 960 0
DWIDTH 16 0
BBX 6 15 5 -2
BITMAP
24
24
24
24
24
E4
24
24
24
E4
24
24
24
24
24
ENDCHAR
STARTCHAR 1169
ENCODING 4457
SWIDTH 960 0
DWIDTH 16 0
BBX 14 7 1 1
BITMAP
0200
0300
0300
0300
0300
0300
FFFC
ENDCHAR
STARTCHAR 116A
ENCODING 4458
SWIDTH 960 0
DWIDTH 16 0
BBX 14 15 1 -2
BITMAP
0030
0030
0030
0030
0030
0030
0830
083C
0830
0830
0870
FFB0
0030
0030
0030
ENDCHAR
STARTCHAR 116B
ENCODING 4459
SWIDTH 960 0
DWIDTH 16 0
BBX 14 15 1 -2
BITMAP
0064
0064
0064
0064
0064
0064
087C
0864
0864
0864
08E4
FF64
0064
0064
0064
ENDCHAR
STARTCHAR 116C
ENCODING 4460
SWIDTH 960 0
DWIDTH 16 0
BBX 12 15 2 -2
BITMAP
0010
0010
0010
0010
0010
0010
0C10
0C10
0C10
0C10
0C50
FF90
0010
0010
0010
ENDCHAR
STARTCHAR 116D
ENCODING 4461
SWIDTH 960 0
DWIDTH 16 0
BBX 14 7 1 1
BITMAP
0840
0840
0840
0840
0840
0840
FFFC
ENDCHAR
STARTCHAR 116E
ENCODING 4462
SWIDTH 960 0
DWIDTH 16 0
BBX 14 8 1 -1
BITMAP
FFFC
0300
0300
0300
0300
0300
0300
0300
ENDCHAR
STARTCHAR 116F
ENCODING 4463
SWIDTH 960 0
DWIDTH 16 0
BBX 12 15 2 -2
BITMAP
0010
0010
0010
0010
0010
0010
0010
FFD0
0810
0810
08F0
0810
0810
0810
0810
ENDCHAR
STARTCHAR 1170
ENCODING 4464
SWIDTH 960 0
DWIDTH 16 0
BBX 14 15 1 -2
BITMAP
0024
0024
0024
0024
0024
0024
0024
FFA4
0824
0824
09E4
0824
0824
0824
0024
ENDCHAR
STARTCHAR 1171
ENCODING 4465
SWIDTH 960 0
DWIDTH 16 0
BBX 12 15 2 -2
BITMAP
0010
0010
0010
0010
0010
0010
0010
FFD0
0810
0810
0810
0810
0810
0810
0810
ENDCHAR
STARTCHAR 1172
ENCODING 4466
SWIDTH 960 0
DWIDTH 16 0
BBX 14 8 1 -1
BITMAP
FFFC
0840
0840
0840
0840
0840
0840
0840
ENDCHAR
STARTCHAR 1173
ENCODING 4467
SWIDTH 960 0
DWIDTH 16 0
BBX 14 1 1 4
BITMAP
FFFC
ENDCHAR
STARTCHAR 1174
ENCODING 4468
SWIDTH 960 0
DWIDTH 16 0
BBX 12 15 2 -2
BITMAP
0010
0010
0010
0010
0010
0010
0010
0010
0010
0050
FF90
0010
0010
0010
0010
ENDCHAR
STARTCHAR 1175
ENCODING 4469
SWIDTH 960 0
DWIDTH 16 0
BBX 2 15 7 -2
BITMAP
C0
C0
C0
C0
C0
C0
C0
C0
C0
C0
C0
C0
C0
C0
C0
ENDCHAR
STARTCHAR 11A8
ENCODING 4520
SWIDTH 960 0
DWIDTH 16 0
BBX 8 8 4 1
BITMAP
FF
01
01
01
01
01
01
01
ENDCHAR
STARTCHAR 11A9
ENCODING 4521
SWIDTH 960 0
DWIDTH 16 0
BBX 10 8 3 1
BITMAP
F7C0
1840
1840
1840
1840
1840
1840
0040
ENDCHAR
STARTCHAR 11AA
ENCODING 4522
SWIDTH 960 0
DWIDTH 16 0
BBX 12 8 2 1
BITMAP
F880
0880
0880
0980
0940
0960
0A30
0800
ENDCHAR
STARTCHAR 11AB
ENCODING 4523
SWIDTH 960 0
DWIDTH 16 0
BBX 8 7 4 2
BITMAP
80
80
80
80
80
80
FF
ENDCHAR
STARTCHAR 11AC
ENCODING 4524
SWIDTH 960 0
DWIDTH 16 0
BBX 12 7 2 2
BITMAP
87E0
8060
8040
80C0
81C0
8360
FE30
ENDCHAR
STARTCHAR 11AD
ENCODING 4525
SWIDTH 960 0
DWIDTH 16 0
BBX 11 8 2 1
BITMAP
03C0
C7E0
C000
C3C0
C220
C220
7A60
01C0
ENDCHAR
STARTCHAR 11AE
ENCODING 4526
SWIDTH 960 0
DWIDTH 16 0
BBX 8 7 4 2
BITMAP
FF
80
80
80
80
80
FF
ENDCHAR
STARTCHAR 11AF
ENCODING 4527
SWIDTH 960 0
DWIDTH 16 0
BBX 8 8 4 1
BITMAP
FF
01
01
FF
80
80
80
FF
ENDCHAR
STARTCHAR 11B0
ENCODING 4528
SWIDTH 960 0
DWIDTH 16 0
BBX 10 8 3 1
BITMAP
FFC0
0840
0840
F840
8040
8040
8840
7040
ENDCHAR
STARTCHAR 11B1
ENCODING 4529
SWIDTH 960 0
DWIDTH 16 0
BBX 10 8 3 1
BITMAP
F3C0
1E40
1E40
F640
8640
8640
9A40
6180
ENDCHAR
STARTCHAR 11B2
ENCODING 4530
SWIDTH 960 0
DWIDTH 16 0
BBX 10 8 3 1
BITMAP
F640
0E40
0E40
FFC0
8640
8640
9E40
63C0
ENDCHAR
STARTCHAR 11B3
ENCODING 4531
SWIDTH 960 0
DWIDTH 16 0
BBX 12 8 2 1
BITMAP
F880
0880
0880
F880
8140
8140
9A30
6400
ENDCHAR
STARTCHAR 11B4
ENCODING 4532
SWIDTH 960 0
DWIDTH 16 0
BBX 10 8 3 1
BITMAP
F3C0
1400
1400
F7C0
8400
8400
9E00
63C0
ENDCHAR
STARTCHAR 11B5
ENCODING 4533
SWIDTH 960 0
DWIDTH 16 0
BBX 11 8 2 1
BITMAP
FBE0
0940
0940
7940
C140
C140
4BE0
7000
ENDCHAR
STARTCHAR 11B6
ENCODING 4534
SWIDTH 960 0
DWIDTH 16 0
BBX 12 8 2 1
BITMAP
F9E0
0FF0
0800
79C0
8220
8220
8B20
71C0
ENDCHAR
STARTCHAR 11B7
ENCODING 4535
SWIDTH 960 0
DWIDTH 16 0
BBX 8 7 4 2
BITMAP
7E
81
81
81
81
81
FF
ENDCHAR
STARTCHAR 11B8
ENCODING 4536
SWIDTH 960 0
DWIDTH 16 0
BBX 8 7 4 2
BITMAP
81
81
81
FF
81
81
FF
ENDCHAR
STARTCHAR 11B9
ENCODING 4537
SWIDTH 960 0
DWIDTH 16 0
BBX 12 8 2 1
BITMAP
8880
8880
8880
F980
8940
8B40
CE30
3400
ENDCHAR
STARTCHAR 11BA
ENCODING 4538
SWIDTH 960 0
DWIDTH 16 0
BBX 8 8 4 1
BITMAP
18
18
10
18
2C
66
C3
80
ENDCHAR
STARTCHAR 11BB
ENCODING 4539
SWIDTH 960 0
DWIDTH 16 0
BBX 11 8 3 1
BITMAP
1100
3100
3300
3380
4AC0
C460
0C00
1800
ENDCHAR
STARTCHAR 11BC
ENCODING 4540
SWIDTH 960 0
DWIDTH 16 0
BBX 8 8 4 1
BITMAP
7E
C3
81
81
81
C3
66
3C
ENDCHAR
STARTCHAR 11BD
ENCODING 4541
SWIDTH 960 0
DWIDTH 16 0
BBX 10 8 3 1
BITMAP
FF80
0100
0200
0400
0C00
3300
61C0
8000
ENDCHAR
STARTCHAR 11BE
ENCODING 4542
SWIDTH 960 0
DWIDTH 16 0
BBX 10 9 3 1
BITMAP
1E00
0000
FF80
0080
0100
0600
1E00
7180
C040
ENDCHAR
STARTCHAR 11BF
ENCODING 4543
SWIDTH 960 0
DWIDTH 16 0
BBX 8 8 4 1
BITMAP
FF
01
01
FF
01
01
01
01
ENDCHAR
STARTCHAR 11C0
ENCODING 4544
SWIDTH 960 0
DWIDTH 16 0
BBX 8 7 4 2
BITMAP
FF
80
80
FF
80
80
FF
ENDCHAR
STARTCHAR 11C1
ENCODING 4545
SWIDTH 960 0
DWIDTH 16 0
BBX 10 7 3 2
BITMAP
7F80
3300
3300
3300
3300
3300
FFC0
ENDCHAR
STARTCHAR 11C2
ENCODING 4546
SWIDTH 960 0
DWIDTH 16 0
BBX 10 9 3 1
BITMAP
3E00
0000
FFC0
0000
1E00
2100
4180
6180
3F00
ENDCHAR
STARTCHAR 2010
ENCODING 8208
SWIDTH 420 0
DWIDTH 7 0
BBX 7 1 0 5
BITMAP
FE
ENDCHAR
STARTCHAR 2013
ENCODING 8211
SWIDTH 420 0
DWIDTH 7 0
BBX 5 1 1 5
BITMAP
F8
ENDCHAR
STARTCHAR 2014
ENCODING 8212
SWIDTH 900 0
DWIDTH 15 0
BBX 15 1 0 5
BITMAP
FFFE
ENDCHAR
STARTCHAR 2015
ENCODING 8213
SWIDTH 900 0
DWIDTH 15 0
BBX 15 1 0 5
BITMAP
FFFE
ENDCHAR
STARTCHAR 2016
ENCODING 8214
SWIDTH 960 0
DWIDTH 16 0
BBX 4 16 6 -3
BITMAP
90
90
90
90
90
90
90
90
90
90
90
90
90
90
90
90
ENDCHAR
STARTCHAR 2018
ENCODING 8216
SWIDTH 180 0
DWIDTH 3 0
BBX 2 5 1 8
BITMAP
40
80
80
C0
C0
ENDCHAR
STARTCHAR 2019
ENCODING 8217
SWIDTH 180 0
DWIDTH 3 0
BBX 1 5 1 8
BITMAP
80
80
80
80
80
ENDCHAR
STARTCHAR 201B
ENCODING 8219
SWIDTH 180 0
DWIDTH 3 0
BBX 2 4 0 8
BITMAP
40
40
80
40
ENDCHAR
STARTCHAR 201C
ENCODING 8220
SWIDTH 360 0
DWIDTH 6 0
BBX 4 5 1 8
BITMAP
50
90
A0
D0
D0
ENDCHAR
STARTCHAR 201D
ENCODING 8221
SWIDTH 360 0
DWIDTH 6 0
BBX 4 5 1 8
BITMAP
B0
B0
50
90
A0
ENDCHAR
STARTCHAR 201F
ENCODING 8223
SWIDTH 360 0
DWIDTH 6 0
BBX 4 5 1 8
BITMAP
80
B0
A0
A0
10
ENDCHAR
STARTCHAR 2020
ENCODING 8224
SWIDTH 540 0
DWIDTH 9 0
BBX 7 11 1 0
BITMAP
10
10
10
10
FE
10
10
10
10
10
10
ENDCHAR
STARTCHAR 2021
ENCODING 8225
SWIDTH 540 0
DWIDTH 9 0
BBX 7 11 1 0
BITMAP
10
10
FE
10
10
FE
10
10
10
10
10
ENDCHAR
STARTCHAR 2022
ENCODING 8226
SWIDTH 960 0
DWIDTH 16 0
BBX 4 4 6 3
BITMAP
60
F0
F0
60
ENDCHAR
STARTCHAR 2025
ENCODING 8229
SWIDTH 960 0
DWIDTH 16 0
BBX 10 2 3 5
BITMAP
C0C0
C0C0
ENDCHAR
STARTCHAR 2026
ENCODING 8230
SWIDTH 960 0
DWIDTH 16 0
BBX 12 2 2 5
BITMAP
C630
C630
ENDCHAR
STARTCHAR 2030
ENCODING 8240
SWIDTH 960 0
DWIDTH 16 0
BBX 14 13 1 -1
BITMAP
6080
9100
9200
9200
9400
9400
6B18
0CA4
14A4
14A4
24A4
44A4
4398
ENDCHAR
STARTCHAR 2032
ENCODING 8242
SWIDTH 480 0
DWIDTH 8 0
BBX 3 4 2 8
BITMAP
20
40
40
80
ENDCHAR
STARTCHAR 2033
ENCODING 8243
SWIDTH 480 0
DWIDTH 8 0
BBX 5 4 1 8
BITMAP
28
48
50
90
ENDCHAR
STARTCHAR 2034
ENCODING 8244
SWIDTH 960 0
DWIDTH 16 0
BBX 7 4 4 8
BITMAP
6A
56
54
84
ENDCHAR
STARTCHAR 2035
ENCODING 8245
SWIDTH 300 0
DWIDTH 5 0
BBX 4 3 0 9
BITMAP
80
60
10
ENDCHAR
STARTCHAR 2036
ENCODING 8246
SWIDTH 300 0
DWIDTH 5 0
BBX 4 6 0 6
BITMAP
80
60
10
C0
20
10
ENDCHAR
STARTCHAR 2039
ENCODING 8249
SWIDTH 960 0
DWIDTH 16 0
BBX 12 14 2 -2
BITMAP
0020
0040
0180
0600
0800
3000
C000
4000
3000
0C00
0200
0180
0040
0030
ENDCHAR
STARTCHAR 203A
ENCODING 8250
SWIDTH 960 0
DWIDTH 16 0
BBX 11 14 2 -2
BITMAP
C000
2000
1800
0600
0100
00C0
0020
0020
00C0
0300
0400
1800
6000
8000
ENDCHAR
STARTCHAR 203B
ENCODING 8251
SWIDTH 960 0
DWIDTH 16 0
BBX 10 10 3 0
BITMAP
8C40
4C80
2100
1200
CCC0
CCC0
1200
2100
4C80
8C40
ENDCHAR
STARTCHAR 203C
ENCODING 8252
SWIDTH 960 0
DWIDTH 16 0
BBX 6 13 5 -1
BITMAP
84
84
84
84
84
84
84
84
84
84
00
00
CC
ENDCHAR
STARTCHAR 203E
ENCODING 8254
SWIDTH 960 0
DWIDTH 16 0
BBX 0 0 0 13
BITMAP
ENDCHAR
STARTCHAR 2042
ENCODING 8258
SWIDTH 960 0
DWIDTH 16 0
BBX 12 12 2 -1
BITMAP
0400
0900
0E00
0500
0000
0000
0000
2040
A950
50A0
F9F0
2040
ENDCHAR
STARTCHAR 2074
ENCODING 8308
SWIDTH 420 0
DWIDTH 7 0
BBX 3 3 2 8
BITMAP
40
A0
E0
ENDCHAR
STARTCHAR 207A
ENCODING 8314
SWIDTH 480 0
DWIDTH 8 0
BBX 5 5 1 7
BITMAP
20
20
F8
20
20
ENDCHAR
STARTCHAR 207B
ENCODING 8315
SWIDTH 480 0
DWIDTH 8 0
BBX 5 1 1 9
BITMAP
F8
ENDCHAR
STARTCHAR 207C
ENCODING 8316
SWIDTH 480 0
DWIDTH 8 0
BBX 6 2 1 8
BITMAP
FC
F8
ENDCHAR
STARTCHAR 207D
ENCODING 8317
SWIDTH 240 0
DWIDTH 4 0
BBX 2 7 1 6
BITMAP
40
80
80
80
80
80
40
ENDCHAR
STARTCHAR 207E
ENCODING 8318
SWIDTH 240 0
DWIDTH 4 0
BBX 2 8 1 5
BITMAP
80
40
40
40
40
40
40
80
ENDCHAR
STARTCHAR 207F
ENCODING 8319
SWIDTH 420 0
DWIDTH 7 0
BBX 3 4 2 8
BITMAP
E0
A0
A0
A0
ENDCHAR
STARTCHAR 2081
ENCODING 8321
SWIDTH 420 0
DWIDTH 7 0
BBX 1 3 3 -2
BITMAP
80
80
80
ENDCHAR
STARTCHAR 2082
ENCODING 8322
SWIDTH 420 0
DWIDTH 7 0
BBX 3 4 2 -2
BITMAP
E0
20
40
E0
ENDCHAR
STARTCHAR 2083
ENCODING 8323
SWIDTH 420 0
DWIDTH 7 0
BBX 3 4 2 -2
BITMAP
E0
20
20
E0
ENDCHAR
STARTCHAR 2084
ENCODING 8324
SWIDTH 420 0
DWIDTH 7 0
BBX 3 3 2 -2
BITMAP
40
40
E0
ENDCHAR
STARTCHAR 20A9
ENCODING 8361
SWIDTH 960 0
DWIDTH 16 0
BBX 15 13 1 -1
BITMAP
4308
4308
4308
2288
2288
FFFE
2490
2490
1450
1450
1860
1860
0860
ENDCHAR
STARTCHAR 20AC
ENCODING 8364
SWIDTH 960 0
DWIDTH 16 0
BBX 8 12 4 -1
BITMAP
1F
31
60
40
FC
40
40
F8
40
60
31
1F
ENDCHAR
STARTCHAR 2103
ENCODING 8451
SWIDTH 780 0
DWIDTH 13 0
BBX 11 13 1 -1
BITMAP
E000
A000
E780
0840
1020
1000
2000
2000
3000
1020
1020
0840
0780
ENDCHAR
STARTCHAR 2109
ENCODING 8457
SWIDTH 960 0
DWIDTH 16 0
BBX 12 13 2 -1
BITMAP
E000
97F0
6400
0400
0400
0400
07E0
0400
0400
0400
0400
0400
0400
ENDCHAR
STARTCHAR 2113
ENCODING 8467
SWIDTH 540 0
DWIDTH 9 0
BBX 6 13 2 -1
BITMAP
08
18
24
28
28
48
48
50
50
60
48
C8
30
ENDCHAR
STARTCHAR 2116
ENCODING 8470
SWIDTH 960 0
DWIDTH 16 0
BBX 14 12 1 -1
BITMAP
8400
C400
C400
A4E0
A510
9510
9508
8D08
8D08
8D10
8494
84E4
ENDCHAR
STARTCHAR 2121
ENCODING 8481
SWIDTH 960 0
DWIDTH 16 0
BBX 14 12 1 -1
BITMAP
FE04
1004
1004
11C4
1224
1224
1414
13F4
1404
1224
1224
11C4
ENDCHAR
STARTCHAR 2122
ENCODING 8482
SWIDTH 960 0
DWIDTH 16 0
BBX 14 5 1 7
BITMAP
FF04
228C
2294
2254
2264
ENDCHAR
STARTCHAR 2126
ENCODING 8486
SWIDTH 720 0
DWIDTH 12 0
BBX 10 13 1 -1
BITMAP
1C00
2300
4080
8080
8040
8040
8080
4080
6300
1400
9480
9480
F780
ENDCHAR
STARTCHAR 212B
ENCODING 8491
SWIDTH 660 0
DWIDTH 11 0
BBX 9 13 1 -1
BITMAP
1C00
1400
1C00
0000
0800
1400
1400
3200
2200
3F00
4100
4180
8080
ENDCHAR
STARTCHAR 2153
ENCODING 8531
SWIDTH 720 0
DWIDTH 12 0
BBX 10 14 1 -2
BITMAP
2000
6000
2040
2080
2100
2200
0400
0800
13C0
2240
4180
8040
0240
0180
ENDCHAR
STARTCHAR 2154
ENCODING 8532
SWIDTH 780 0
DWIDTH 13 0
BBX 11 14 1 -2
BITMAP
7000
8800
1020
2040
4080
F100
0200
0480
0940
1020
20C0
4020
0120
01C0
ENDCHAR
STARTCHAR 215B
ENCODING 8539
SWIDTH 780 0
DWIDTH 13 0
BBX 10 14 1 -2
BITMAP
2000
6000
2040
2080
2100
2200
0400
0880
1340
2240
4180
8240
0240
01C0
ENDCHAR
STARTCHAR 215C
ENCODING 8540
SWIDTH 780 0
DWIDTH 13 0
BBX 11 14 1 -2
BITMAP
7000
4800
1040
1080
8900
7200
0400
0880
1140
2140
41C0
0220
0220
01C0
ENDCHAR
STARTCHAR 215D
ENCODING 8541
SWIDTH 780 0
DWIDTH 13 0
BBX 11 14 1 -2
BITMAP
7000
4000
7040
0880
8900
7200
0400
0880
1140
2240
41C0
0220
0220
01C0
ENDCHAR
STARTCHAR 215E
ENCODING 8542
SWIDTH 720 0
DWIDTH 12 0
BBX 10 14 1 -2
BITMAP
7800
1000
2040
2080
2100
4200
0400
0880
1340
2240
4180
8240
0240
01C0
ENDCHAR
STARTCHAR 2160
ENCODING 8544
SWIDTH 960 0
DWIDTH 16 0
BBX 2 12 7 -1
BITMAP
C0
C0
C0
C0
C0
C0
C0
C0
C0
C0
C0
C0
ENDCHAR
STARTCHAR 2161
ENCODING 8545
SWIDTH 960 0
DWIDTH 16 0
BBX 6 12 5 -1
BITMAP
84
84
84
84
84
84
84
84
84
84
84
84
ENDCHAR
STARTCHAR 2162
ENCODING 8546
SWIDTH 960 0
DWIDTH 16 0
BBX 8 12 4 -1
BITMAP
99
99
99
99
99
99
99
99
99
99
99
99
ENDCHAR
STARTCHAR 2163
ENCODING 8547
SWIDTH 960 0
DWIDTH 16 0
BBX 11 12 2 -1
BITMAP
D020
C820
C820
C840
CC40
C440
C4C0
C480
C280
C280
C300
C100
ENDCHAR
STARTCHAR 2164
ENCODING 8548
SWIDTH 960 0
DWIDTH 16 0
BBX 10 12 3 -1
BITMAP
C0C0
4080
4080
6180
2100
2100
3200
1200
1200
0C00
0C00
0C00
ENDCHAR
STARTCHAR 2165
ENCODING 8549
SWIDTH 960 0
DWIDTH 16 0
BBX 11 12 3 -1
BITMAP
8160
8260
8260
4260
4460
4460
6460
2460
2860
2860
1860
1060
ENDCHAR
STARTCHAR 2166
ENCODING 8550
SWIDTH 960 0
DWIDTH 16 0
BBX 12 12 2 -1
BITMAP
8290
C690
4490
4490
4490
4490
2890
2890
2890
2890
3890
1090
ENDCHAR
STARTCHAR 2167
ENCODING 8551
SWIDTH 960 0
DWIDTH 16 0
BBX 12 12 2 -1
BITMAP
8950
8950
8950
8950
9950
5150
5150
5150
5150
5150
2150
2150
ENDCHAR
STARTCHAR 2168
ENCODING 8552
SWIDTH 960 0
DWIDTH 16 0
BBX 12 12 2 -1
BITMAP
8820
8C40
8440
8280
8380
8100
8380
8680
8440
8860
8820
9030
ENDCHAR
STARTCHAR 2169
ENCODING 8553
SWIDTH 960 0
DWIDTH 16 0
BBX 10 12 3 -1
BITMAP
4080
2100
3300
1200
0C00
0C00
0C00
1200
3300
2100
4080
C0C0
ENDCHAR
STARTCHAR 2170
ENCODING 8560
SWIDTH 960 0
DWIDTH 16 0
BBX 2 12 7 -1
BITMAP
C0
00
00
C0
C0
C0
C0
C0
C0
C0
C0
C0
ENDCHAR
STARTCHAR 2171
ENCODING 8561
SWIDTH 960 0
DWIDTH 16 0
BBX 6 12 5 -1
BITMAP
84
00
00
84
84
84
84
84
84
84
84
84
ENDCHAR
STARTCHAR 2172
ENCODING 8562
SWIDTH 960 0
DWIDTH 16 0
BBX 8 12 4 -1
BITMAP
99
00
00
99
99
99
99
99
99
99
99
99
ENDCHAR
STARTCHAR 2173
ENCODING 8563
SWIDTH 960 0
DWIDTH 16 0
BBX 9 12 3 -1
BITMAP
8000
0000
0000
9080
9080
8880
8900
8900
8500
8500
8600
8200
ENDCHAR
STARTCHAR 2174
ENCODING 8564
SWIDTH 960 0
DWIDTH 16 0
BBX 8 9 4 -1
BITMAP
C3
42
42
24
24
24
18
18
18
ENDCHAR
STARTCHAR 2175
ENCODING 8565
SWIDTH 960 0
DWIDTH 16 0
BBX 9 12 4 -1
BITMAP
0080
0000
0000
8480
8480
8880
C880
4880
5080
5080
3080
2080
ENDCHAR
STARTCHAR 2176
ENCODING 8566
SWIDTH 960 0
DWIDTH 16 0
BBX 10 12 3 -1
BITMAP
0140
0000
0000
8940
8940
8940
4940
5140
5140
5140
2140
2140
ENDCHAR
STARTCHAR 2177
ENCODING 8567
SWIDTH 960 0
DWIDTH 16 0
BBX 12 12 2 -1
BITMAP
0150
0000
0000
8550
8950
C950
4950
4950
5150
3150
3150
2150
ENDCHAR
STARTCHAR 2178
ENCODING 8568
SWIDTH 960 0
DWIDTH 16 0
BBX 10 12 3 -1
BITMAP
8000
0000
0000
9880
8980
8500
8600
8600
8500
8900
8880
9040
ENDCHAR
STARTCHAR 2179
ENCODING 8569
SWIDTH 960 0
DWIDTH 16 0
BBX 8 9 4 -1
BITMAP
42
24
24
18
18
3C
24
42
81
ENDCHAR
STARTCHAR 2190
ENCODING 8592
SWIDTH 960 0
DWIDTH 16 0
BBX 14 5 1 2
BITMAP
4000
8000
FFFC
C000
4000
ENDCHAR
STARTCHAR 2191
ENCODING 8593
SWIDTH 480 0
DWIDTH 8 0
BBX 5 16 1 -3
BITMAP
20
70
A8
20
20
20
20
20
20
20
20
20
20
20
20
20
ENDCHAR
STARTCHAR 2192
ENCODING 8594
SWIDTH 960 0
DWIDTH 16 0
BBX 14 4 1 3
BITMAP
0008
0004
FFFC
0008
ENDCHAR
STARTCHAR 2193
ENCODING 8595
SWIDTH 480 0
DWIDTH 8 0
BBX 5 16 1 -2
BITMAP
20
20
20
20
20
20
20
20
20
20
20
20
20
A8
70
20
ENDCHAR
STARTCHAR 2194
ENCODING 8596
SWIDTH 960 0
DWIDTH 16 0
BBX 14 4 1 3
BITMAP
4008
8004
FFFC
4008
ENDCHAR
STARTCHAR 2195
ENCODING 8597
SWIDTH 480 0
DWIDTH 8 0
BBX 4 16 2 -2
BITMAP
60
B0
40
40
40
40
40
40
40
40
40
40
40
40
B0
60
ENDCHAR
STARTCHAR 2196
ENCODING 8598
SWIDTH 960 0
DWIDTH 16 0
BBX 14 16 1 -3
BITMAP
E000
C000
A000
2000
1000
0800
0400
0200
0100
0080
0040
0020
0010
0010
0008
0004
ENDCHAR
STARTCHAR 2197
ENCODING 8599
SWIDTH 960 0
DWIDTH 16 0
BBX 14 16 1 -3
BITMAP
001C
000C
0014
0010
0020
0040
0080
0100
0200
0400
0800
1000
2000
2000
4000
8000
ENDCHAR
STARTCHAR 2198
ENCODING 8600
SWIDTH 960 0
DWIDTH 16 0
BBX 14 16 1 -3
BITMAP
8000
4000
2000
1000
1000
0800
0400
0200
0100
0080
0040
0020
0010
000C
0004
001C
ENDCHAR
STARTCHAR 2199
ENCODING 8601
SWIDTH 960 0
DWIDTH 16 0
BBX 14 16 1 -3
BITMAP
0004
0008
0010
0020
0040
0040
0080
0100
0200
0400
0800
1000
2000
C000
8000
E000
ENDCHAR
STARTCHAR 21B0
ENCODING 8624
SWIDTH 960 0
DWIDTH 16 0
BBX 13 15 2 -3
BITMAP
4000
FFF0
8008
4008
0008
0008
0008
0008
0008
0008
0008
0008
0008
0008
0008
ENDCHAR
STARTCHAR 21B1
ENCODING 8625
SWIDTH 960 0
DWIDTH 16 0
BBX 13 15 1 -3
BITMAP
0010
7FF8
8008
8010
8000
8000
8000
8000
8000
8000
8000
8000
8000
8000
8000
ENDCHAR
STARTCHAR 21B2
ENCODING 8626
SWIDTH 960 0
DWIDTH 16 0
BBX 13 16 2 -2
BITMAP
0008
0008
0008
0008
0008
0008
0008
0008
0008
0008
0008
0008
8008
FFF8
8000
4000
ENDCHAR
STARTCHAR 21B3
ENCODING 8627
SWIDTH 960 0
DWIDTH 16 0
BBX 13 16 1 -2
BITMAP
8000
8000
8000
8000
8000
8000
8000
8000
8000
8000
8000
8000
8010
FFF8
0008
0010
ENDCHAR
STARTCHAR 21B4
ENCODING 8628
SWIDTH 960 0
DWIDTH 16 0
BBX 14 15 1 -3
BITMAP
FFF0
0010
0010
0010
0010
0010
0010
0010
0010
0010
0010
0010
0010
003C
0018
ENDCHAR
STARTCHAR 21BC
ENCODING 8636
SWIDTH 960 0
DWIDTH 16 0
BBX 14 3 1 5
BITMAP
1000
2000
FFFC
ENDCHAR
STARTCHAR 21C0
ENCODING 8640
SWIDTH 960 0
DWIDTH 16 0
BBX 14 3 1 5
BITMAP
0020
0010
FFFC
ENDCHAR
STARTCHAR 21C4
ENCODING 8644
SWIDTH 960 0
DWIDTH 16 0
BBX 15 10 1 1
BITMAP
0008
0004
FFFC
0008
0000
0000
4000
FFFE
8000
4000
ENDCHAR
STARTCHAR 21C5
ENCODING 8645
SWIDTH 960 0
DWIDTH 16 0
BBX 10 16 3 -2
BITMAP
6100
D100
2100
2100
2100
2100
2100
2100
2100
2100
2100
2100
2100
2100
22C0
0180
ENDCHAR
STARTCHAR 21CD
ENCODING 8653
SWIDTH 960 0
DWIDTH 16 0
BBX 15 9 1 0
BITMAP
0080
1080
2080
7FFE
8100
8100
7FFE
2200
1200
ENDCHAR
STARTCHAR 21CF
ENCODING 8655
SWIDTH 960 0
DWIDTH 16 0
BBX 15 9 0 0
BITMAP
0080
0090
0088
FFFC
0102
0102
FFFC
0208
0210
ENDCHAR
STARTCHAR 21D0
ENCODING 8656
SWIDTH 960 0
DWIDTH 16 0
BBX 15 8 1 1
BITMAP
1000
2000
7FFE
8000
8000
7FFE
2000
1000
ENDCHAR
STARTCHAR 21D1
ENCODING 8657
SWIDTH 960 0
DWIDTH 16 0
BBX 14 16 1 -2
BITMAP
0480
0CC0
14A0
2490
4488
8484
0480
0480
0480
0480
0480
0480
0480
0480
0480
0480
ENDCHAR
STARTCHAR 21D2
ENCODING 8658
SWIDTH 960 0
DWIDTH 16 0
BBX 15 8 0 1
BITMAP
0010
0008
FFFC
0002
0002
FFFC
0008
0010
ENDCHAR
STARTCHAR 21D3
ENCODING 8659
SWIDTH 960 0
DWIDTH 16 0
BBX 14 17 1 -3
BITMAP
0480
0480
0480
0480
0480
0480
0480
0480
0480
0480
0484
8484
4488
2490
14A0
0CC0
0480
ENDCHAR
STARTCHAR 21D4
ENCODING 8660
SWIDTH 960 0
DWIDTH 16 0
BBX 14 8 1 1
BITMAP
1020
2010
7FF8
8004
8004
7FF8
2010
1020
ENDCHAR
STARTCHAR 21E0
ENCODING 8672
SWIDTH 960 0
DWIDTH 16 0
BBX 14 6 1 2
BITMAP
2000
6000
E4CC
E4CC
6000
2000
ENDCHAR
STARTCHAR 21E1
ENCODING 8673
SWIDTH 960 0
DWIDTH 16 0
BBX 6 14 5 -2
BITMAP
30
78
FC
00
30
30
00
00
30
30
00
00
30
30
ENDCHAR
STARTCHAR 21E2
ENCODING 8674
SWIDTH 960 0
DWIDTH 16 0
BBX 14 6 1 2
BITMAP
0010
0018
CD9C
CC9C
0018
0010
ENDCHAR
STARTCHAR 21E3
ENCODING 8675
SWIDTH 960 0
DWIDTH 16 0
BBX 6 14 5 -2
BITMAP
30
30
00
00
30
30
00
00
30
30
00
FC
78
30
ENDCHAR
STARTCHAR 21E6
ENCODING 8678
SWIDTH 960 0
DWIDTH 16 0
BBX 14 12 1 -1
BITMAP
0400
0C00
1400
27FC
4004
8004
8004
4004
27FC
1400
0C00
0400
ENDCHAR
STARTCHAR 21E7
ENCODING 8679
SWIDTH 960 0
DWIDTH 16 0
BBX 12 16 2 -3
BITMAP
0600
0900
1080
2040
4020
E070
1080
1080
1080
1080
1080
1080
1080
1080
1080
1F80
ENDCHAR
STARTCHAR 21E8
ENCODING 8680
SWIDTH 960 0
DWIDTH 16 0
BBX 14 12 1 -1
BITMAP
0080
00C0
00A0
FF90
8008
8004
8004
8008
FF90
00A0
00C0
0080
ENDCHAR
STARTCHAR 21E9
ENCODING 8681
SWIDTH 960 0
DWIDTH 16 0
BBX 12 16 2 -3
BITMAP
1F80
1080
1080
1080
1080
1080
1080
1080
1080
1080
E070
4020
2040
1080
0900
0600
ENDCHAR
STARTCHAR 2200
ENCODING 8704
SWIDTH 960 0
DWIDTH 16 0
BBX 10 12 3 -1
BITMAP
8040
4080
4080
7F80
2100
2100
3300
1200
1200
0C00
0C00
0C00
ENDCHAR
STARTCHAR 2202
ENCODING 8706
SWIDTH 480 0
DWIDTH 8 0
BBX 6 7 1 2
BITMAP
38
44
04
3C
4C
98
70
ENDCHAR
STARTCHAR 2203
ENCODING 8707
SWIDTH 960 0
DWIDTH 16 0
BBX 8 12 4 -1
BITMAP
FF
01
01
01
01
FF
01
01
01
01
01
FF
ENDCHAR
STARTCHAR 2206
ENCODING 8710
SWIDTH 960 0
DWIDTH 16 0
BBX 10 11 3 0
BITMAP
0C00
0C00
1600
1200
2300
2100
4180
4080
80C0
8040
FFC0
ENDCHAR
STARTCHAR 2207
ENCODING 8711
SWIDTH 960 0
DWIDTH 16 0
BBX 12 10 2 0
BITMAP
FFF0
8010
4020
2040
2040
1080
0900
0900
0600
0400
ENDCHAR
STARTCHAR 2208
ENCODING 8712
SWIDTH 960 0
DWIDTH 16 0
BBX 12 9 2 1
BITMAP
3FF0
4000
8000
8000
FFF0
8000
8000
4000
3FF0
ENDCHAR
STARTCHAR 2209
ENCODING 8713
SWIDTH 960 0
DWIDTH 16 0
BBX 10 10 3 1
BITMAP
0200
3FC0
4200
8200
FF80
8400
8400
4400
3FC0
0800
ENDCHAR
STARTCHAR 220B
ENCODING 8715
SWIDTH 960 0
DWIDTH 16 0
BBX 12 9 2 1
BITMAP
FFC0
0020
0010
0010
FFF0
0010
0010
0020
FFC0
ENDCHAR
STARTCHAR 220C
ENCODING 8716
SWIDTH 960 0
DWIDTH 16 0
BBX 10 11 3 0
BITMAP
0400
0400
FF00
0880
0840
7FC0
0840
1040
1080
FF00
1000
ENDCHAR
STARTCHAR 220F
ENCODING 8719
SWIDTH 780 0
DWIDTH 13 0
BBX 11 12 1 -1
BITMAP
FFE0
2100
2100
2100
2100
2100
2100
2100
2100
2100
2100
2100
ENDCHAR
STARTCHAR 2211
ENCODING 8721
SWIDTH 660 0
DWIDTH 11 0
BBX 9 12 1 -1
BITMAP
FF80
6000
3000
1800
0C00
0600
0C00
1800
3000
6000
4000
FF80
ENDCHAR
STARTCHAR 2213
ENCODING 8723
SWIDTH 960 0
DWIDTH 16 0
BBX 10 10 3 0
BITMAP
FFC0
0000
0800
0800
0800
FFC0
0800
0800
0800
0800
ENDCHAR
STARTCHAR 221A
ENCODING 8730
SWIDTH 840 0
DWIDTH 14 0
BBX 12 10 1 -1
BITMAP
07F0
0400
0800
0800
0800
1000
1000
9000
6000
6000
ENDCHAR
STARTCHAR 221D
ENCODING 8733
SWIDTH 720 0
DWIDTH 12 0
BBX 12 6 0 2
BITMAP
3860
4490
8300
8200
4500
38F0
ENDCHAR
STARTCHAR 221E
ENCODING 8734
SWIDTH 840 0
DWIDTH 14 0
BBX 12 6 1 2
BITMAP
71E0
8F10
8610
8610
8910
70E0
ENDCHAR
STARTCHAR 221F
ENCODING 8735
SWIDTH 960 0
DWIDTH 16 0
BBX 9 9 3 1
BITMAP
8000
8000
8000
8000
8000
8000
8000
8000
FF80
ENDCHAR
STARTCHAR 2220
ENCODING 8736
SWIDTH 960 0
DWIDTH 16 0
BBX 10 10 3 0
BITMAP
0100
0100
0200
0400
0800
1000
2000
4000
8000
FFC0
ENDCHAR
STARTCHAR 2222
ENCODING 8738
SWIDTH 960 0
DWIDTH 16 0
BBX 9 10 4 0
BITMAP
0800
0580
0E00
3200
C100
C100
3200
0E00
0580
0800
ENDCHAR
STARTCHAR 2225
ENCODING 8741
SWIDTH 960 0
DWIDTH 16 0
BBX 10 11 3 -1
BITMAP
0200
0440
0480
0880
0900
1200
2200
2400
4400
4800
9000
ENDCHAR
STARTCHAR 2226
ENCODING 8742
SWIDTH 960 0
DWIDTH 16 0
BBX 10 11 3 -1
BITMAP
0200
2440
2480
1880
0900
1A00
2600
2400
4600
4900
9100
ENDCHAR
STARTCHAR 2227
ENCODING 8743
SWIDTH 960 0
DWIDTH 16 0
BBX 10 10 3 0
BITMAP
0C00
0C00
1200
1200
2100
2100
4080
4080
8040
8040
ENDCHAR
STARTCHAR 2228
ENCODING 8744
SWIDTH 960 0
DWIDTH 16 0
BBX 10 10 3 0
BITMAP
8040
8040
4080
4080
2100
2100
1200
1200
0C00
0C00
ENDCHAR
STARTCHAR 2229
ENCODING 8745
SWIDTH 660 0
DWIDTH 11 0
BBX 9 11 1 0
BITMAP
3E00
4100
8080
8080
8080
8080
8080
8080
8080
8080
8080
ENDCHAR
STARTCHAR 222A
ENCODING 8746
SWIDTH 660 0
DWIDTH 11 0
BBX 9 12 1 -1
BITMAP
8080
8080
8080
8080
8080
8080
8080
8080
8080
8080
4100
3E00
ENDCHAR
STARTCHAR 222B
ENCODING 8747
SWIDTH 540 0
DWIDTH 9 0
BBX 6 14 1 -2
BITMAP
0C
08
10
10
10
10
10
10
10
10
30
20
20
C0
ENDCHAR
STARTCHAR 222C
ENCODING 8748
SWIDTH 960 0
DWIDTH 16 0
BBX 10 14 3 -2
BITMAP
0CC0
1100
1100
1100
3100
3100
2100
2300
2300
2200
2200
2200
2200
CC00
ENDCHAR
STARTCHAR 222E
ENCODING 8750
SWIDTH 960 0
DWIDTH 16 0
BBX 6 14 5 -2
BITMAP
0C
10
10
10
30
58
A4
A4
68
30
20
20
20
C0
ENDCHAR
STARTCHAR 2234
ENCODING 8756
SWIDTH 960 0
DWIDTH 16 0
BBX 10 9 3 1
BITMAP
0C00
0C00
0000
0000
0000
0000
0000
C0C0
C0C0
ENDCHAR
STARTCHAR 2235
ENCODING 8757
SWIDTH 960 0
DWIDTH 16 0
BBX 10 9 3 1
BITMAP
C0C0
C0C0
0000
0000
0000
0000
0000
0C00
0C00
ENDCHAR
STARTCHAR 2236
ENCODING 8758
SWIDTH 960 0
DWIDTH 16 0
BBX 2 6 7 2
BITMAP
C0
00
00
00
00
C0
ENDCHAR
STARTCHAR 2237
ENCODING 8759
SWIDTH 960 0
DWIDTH 16 0
BBX 6 7 5 2
BITMAP
84
84
00
00
00
00
84
ENDCHAR
STARTCHAR 223C
ENCODING 8764
SWIDTH 960 0
DWIDTH 16 0
BBX 10 4 3 3
BITMAP
3000
4840
8480
0300
ENDCHAR
STARTCHAR 223D
ENCODING 8765
SWIDTH 780 0
DWIDTH 13 0
BBX 13 6 0 2
BITMAP
38F0
4188
8108
8208
4408
3870
ENDCHAR
STARTCHAR 2243
ENCODING 8771
SWIDTH 960 0
DWIDTH 16 0
BBX 11 5 3 3
BITMAP
F860
0780
0000
0000
FFC0
ENDCHAR
STARTCHAR 2245
ENCODING 8773
SWIDTH 960 0
DWIDTH 16 0
BBX 12 8 2 1
BITMAP
7C00
03E0
0000
0000
0000
7FE0
0000
FFF0
ENDCHAR
STARTCHAR 2248
ENCODING 8776
SWIDTH 960 0
DWIDTH 16 0
BBX 10 6 3 2
BITMAP
F840
0780
0000
0000
7800
87C0
ENDCHAR
STARTCHAR 2250
ENCODING 8784
SWIDTH 960 0
DWIDTH 16 0
BBX 12 7 2 2
BITMAP
0600
0600
0000
0000
FFF0
0000
7FE0
ENDCHAR
STARTCHAR 2251
ENCODING 8785
SWIDTH 960 0
DWIDTH 16 0
BBX 12 9 2 0
BITMAP
0600
0600
0000
FFF0
0000
0000
7FE0
0000
0600
ENDCHAR
STARTCHAR 2252
ENCODING 8786
SWIDTH 780 0
DWIDTH 13 0
BBX 11 9 1 1
BITMAP
6000
6000
0000
FFE0
0000
FFE0
0000
0080
0080
ENDCHAR
STARTCHAR 2253
ENCODING 8787
SWIDTH 960 0
DWIDTH 16 0
BBX 12 9 2 0
BITMAP
00C0
0040
0000
FFF0
0000
0000
7FE0
0000
3000
ENDCHAR
STARTCHAR 225A
ENCODING 8794
SWIDTH 960 0
DWIDTH 16 0
BBX 10 10 3 0
BITMAP
4080
2100
2100
1200
1200
0C00
0000
FFC0
0000
FFC0
ENDCHAR
STARTCHAR 2260
ENCODING 8800
SWIDTH 660 0
DWIDTH 11 0
BBX 9 11 1 0
BITMAP
0400
0400
0400
FF80
0800
0800
FF80
1000
1000
1000
1000
ENDCHAR
STARTCHAR 2261
ENCODING 8801
SWIDTH 780 0
DWIDTH 13 0
BBX 11 6 1 2
BITMAP
FFE0
0000
FFE0
0000
0000
FFE0
ENDCHAR
STARTCHAR 2262
ENCODING 8802
SWIDTH 960 0
DWIDTH 16 0
BBX 12 10 2 0
BITMAP
0080
0100
FFF0
0200
7BE0
0400
0800
FFF0
1000
1000
ENDCHAR
STARTCHAR 2264
ENCODING 8804
SWIDTH 660 0
DWIDTH 11 0
BBX 10 12 1 -1
BITMAP
00C0
0300
0C00
3000
C000
4000
3000
0C00
0300
00C0
0000
FFC0
ENDCHAR
STARTCHAR 2265
ENCODING 8805
SWIDTH 660 0
DWIDTH 11 0
BBX 10 12 1 -1
BITMAP
8000
7000
0C00
0300
0080
0180
0600
1800
6000
8000
0000
FFC0
ENDCHAR
STARTCHAR 2266
ENCODING 8806
SWIDTH 960 0
DWIDTH 16 0
BBX 10 11 3 0
BITMAP
00C0
0700
3800
C000
6000
1C00
0380
0040
FFC0
0000
FFC0
ENDCHAR
STARTCHAR 2267
ENCODING 8807
SWIDTH 960 0
DWIDTH 16 0
BBX 10 11 3 0
BITMAP
C000
3800
0700
00C0
0380
0C00
7000
8000
FFC0
0000
FFC0
ENDCHAR
STARTCHAR 226A
ENCODING 8810
SWIDTH 960 0
DWIDTH 16 0
BBX 12 12 2 -1
BITMAP
0110
0260
0C80
1100
2600
C800
8800
6400
1300
0C80
0260
0110
ENDCHAR
STARTCHAR 226B
ENCODING 8811
SWIDTH 960 0
DWIDTH 16 0
BBX 12 12 2 -1
BITMAP
8800
6400
1300
0880
0640
0130
0110
0260
0C80
1300
6400
8800
ENDCHAR
STARTCHAR 226E
ENCODING 8814
SWIDTH 960 0
DWIDTH 16 0
BBX 10 11 3 0
BITMAP
0200
02C0
0300
0C00
3400
C400
4400
3800
0C00
0B00
08C0
ENDCHAR
STARTCHAR 226F
ENCODING 8815
SWIDTH 960 0
DWIDTH 16 0
BBX 10 10 3 1
BITMAP
C400
3400
0C00
0700
08C0
0880
0B00
0C00
3000
D000
ENDCHAR
STARTCHAR 2270
ENCODING 8816
SWIDTH 960 0
DWIDTH 16 0
BBX 10 14 3 -2
BITMAP
0200
02C0
0700
1A00
E400
7400
0C00
0780
0840
FFC0
0800
EFC0
1000
1000
ENDCHAR
STARTCHAR 2271
ENCODING 8817
SWIDTH 960 0
DWIDTH 16 0
BBX 10 14 3 -2
BITMAP
0200
C200
3C00
0600
05C0
0780
0C00
7800
8800
FFC0
1000
FFC0
1000
2000
ENDCHAR
STARTCHAR 2272
ENCODING 8818
SWIDTH 960 0
DWIDTH 16 0
BBX 10 11 3 0
BITMAP
0040
0380
0C00
3000
C000
3000
0E00
0180
0040
7000
8FC0
ENDCHAR
STARTCHAR 2273
ENCODING 8819
SWIDTH 960 0
DWIDTH 16 0
BBX 10 11 3 0
BITMAP
8000
7000
0C00
0300
00C0
0300
1C00
6000
8000
6000
9FC0
ENDCHAR
STARTCHAR 2276
ENCODING 8822
SWIDTH 960 0
DWIDTH 16 0
BBX 10 11 3 0
BITMAP
00C0
0700
3800
E000
1C00
E380
1C40
0380
03C0
1C00
E000
ENDCHAR
STARTCHAR 2277
ENCODING 8823
SWIDTH 960 0
DWIDTH 16 0
BBX 10 11 3 0
BITMAP
C000
3800
0700
01C0
0E00
71C0
8E00
7000
F000
0E00
01C0
ENDCHAR
STARTCHAR 2279
ENCODING 8825
SWIDTH 960 0
DWIDTH 16 0
BBX 10 14 3 -2
BITMAP
0200
C200
3A00
0700
05C0
0E00
75C0
8E00
7800
F800
0E00
11C0
1000
1000
ENDCHAR
STARTCHAR 227A
ENCODING 8826
SWIDTH 960 0
DWIDTH 16 0
BBX 9 9 4 1
BITMAP
0080
0100
0600
1800
E000
7000
0C00
0300
0080
ENDCHAR
STARTCHAR 227B
ENCODING 8827
SWIDTH 960 0
DWIDTH 16 0
BBX 9 9 3 1
BITMAP
8000
4000
3000
0C00
0380
0700
1800
6000
8000
ENDCHAR
STARTCHAR 2280
ENCODING 8832
SWIDTH 960 0
DWIDTH 16 0
BBX 9 12 4 -1
BITMAP
0800
0880
0900
0E00
1800
E800
7800
0C00
0B00
0880
0800
0800
ENDCHAR
STARTCHAR 2281
ENCODING 8833
SWIDTH 960 0
DWIDTH 16 0
BBX 9 12 3 -1
BITMAP
0800
8800
4800
3800
0C00
0B80
0F00
1800
6800
8800
0800
0800
ENDCHAR
STARTCHAR 2282
ENCODING 8834
SWIDTH 960 0
DWIDTH 16 0
BBX 12 9 2 1
BITMAP
3FF0
4000
8000
8000
8000
8000
8000
4000
3FF0
ENDCHAR
STARTCHAR 2283
ENCODING 8835
SWIDTH 960 0
DWIDTH 16 0
BBX 12 9 2 1
BITMAP
FFC0
0020
0010
0010
0010
0010
0010
0020
FFC0
ENDCHAR
STARTCHAR 2284
ENCODING 8836
SWIDTH 960 0
DWIDTH 16 0
BBX 10 10 3 1
BITMAP
0200
3FC0
4200
8200
8400
8400
8400
4400
3FC0
0800
ENDCHAR
STARTCHAR 2285
ENCODING 8837
SWIDTH 960 0
DWIDTH 16 0
BBX 10 11 3 0
BITMAP
0400
0400
FF00
0880
0840
0840
0840
1040
1080
FF00
1000
ENDCHAR
STARTCHAR 2286
ENCODING 8838
SWIDTH 960 0
DWIDTH 16 0
BBX 12 10 2 0
BITMAP
3FF0
4000
8000
8000
8000
8000
4000
3FF0
0000
FFF0
ENDCHAR
STARTCHAR 2287
ENCODING 8839
SWIDTH 960 0
DWIDTH 16 0
BBX 12 10 2 0
BITMAP
FFC0
0020
0010
0010
0010
0010
0020
FFC0
0000
FFF0
ENDCHAR
STARTCHAR 228A
ENCODING 8842
SWIDTH 960 0
DWIDTH 16 0
BBX 12 12 2 -2
BITMAP
3FF0
4000
8000
8000
8000
8000
6000
1FE0
0200
7FE0
0400
7FE0
ENDCHAR
STARTCHAR 228B
ENCODING 8843
SWIDTH 960 0
DWIDTH 16 0
BBX 12 13 2 -2
BITMAP
FFC0
0020
0010
0010
0010
0010
0060
7F80
0200
FFE0
0400
FFE0
0400
ENDCHAR
STARTCHAR 2295
ENCODING 8853
SWIDTH 960 0
DWIDTH 16 0
BBX 14 14 1 -2
BITMAP
0FC0
1020
2210
4208
8204
8204
BFF4
8204
8204
4208
4208
2210
1860
0780
ENDCHAR
STARTCHAR 2296
ENCODING 8854
SWIDTH 960 0
DWIDTH 16 0
BBX 14 14 1 -2
BITMAP
0FC0
1020
2010
4008
8004
8004
BFF4
8004
8004
4008
4008
2010
1860
0780
ENDCHAR
STARTCHAR 2297
ENCODING 8855
SWIDTH 960 0
DWIDTH 16 0
BBX 14 14 1 -2
BITMAP
0FC0
1020
2010
5028
8844
8484
8304
8304
8484
4848
5028
2010
1860
0780
ENDCHAR
STARTCHAR 2299
ENCODING 8857
SWIDTH 960 0
DWIDTH 16 0
BBX 14 14 1 -2
BITMAP
0780
1860
2010
4008
4308
8784
8FC4
8FC4
8784
4308
4008
2010
1860
0780
ENDCHAR
STARTCHAR 22A3
ENCODING 8867
SWIDTH 960 0
DWIDTH 16 0
BBX 8 10 4 0
BITMAP
01
01
01
01
FF
01
01
01
01
01
ENDCHAR
STARTCHAR 22A4
ENCODING 8868
SWIDTH 960 0
DWIDTH 16 0
BBX 10 10 3 0
BITMAP
FFC0
0800
0800
0800
0800
0800
0800
0800
0800
0800
ENDCHAR
STARTCHAR 22A5
ENCODING 8869
SWIDTH 960 0
DWIDTH 16 0
BBX 10 10 3 0
BITMAP
0800
0800
0800
0800
0800
0800
0800
0800
0800
FFC0
ENDCHAR
STARTCHAR 22BB
ENCODING 8891
SWIDTH 960 0
DWIDTH 16 0
BBX 10 10 3 0
BITMAP
4080
4080
2100
2100
1200
1200
0C00
0C00
0000
FFC0
ENDCHAR
STARTCHAR 22BC
ENCODING 8892
SWIDTH 960 0
DWIDTH 16 0
BBX 10 10 3 0
BITMAP
FFC0
0000
0C00
0C00
1200
1200
2100
2100
4080
4080
ENDCHAR
STARTCHAR 22CE
ENCODING 8910
SWIDTH 960 0
DWIDTH 16 0
BBX 10 10 3 1
BITMAP
0800
0C00
0C00
0C00
1200
1200
2100
2100
4080
8040
ENDCHAR
STARTCHAR 22CF
ENCODING 8911
SWIDTH 960 0
DWIDTH 16 0
BBX 8 9 4 1
BITMAP
81
81
42
24
24
24
18
18
10
ENDCHAR
STARTCHAR 22DA
ENCODING 8922
SWIDTH 960 0
DWIDTH 16 0
BBX 10 12 3 -1
BITMAP
07C0
3800
7800
07C0
0000
FFC0
0000
F000
0F00
0780
7800
8000
ENDCHAR
STARTCHAR 22DB
ENCODING 8923
SWIDTH 960 0
DWIDTH 16 0
BBX 10 12 3 -1
BITMAP
F800
0700
0780
F800
0000
FFC0
0000
03C0
3C00
7800
0780
0040
ENDCHAR
STARTCHAR 22EE
ENCODING 8942
SWIDTH 960 0
DWIDTH 16 0
BBX 2 12 7 -1
BITMAP
C0
C0
00
00
00
C0
C0
00
00
00
C0
C0
ENDCHAR
STARTCHAR 22EF
ENCODING 8943
SWIDTH 960 0
DWIDTH 16 0
BBX 12 2 2 5
BITMAP
C630
C630
ENDCHAR
STARTCHAR 2306
ENCODING 8966
SWIDTH 960 0
DWIDTH 16 0
BBX 10 10 3 0
BITMAP
FFC0
0000
FFC0
0000
0C00
1400
1200
2100
2100
4080
ENDCHAR
STARTCHAR 2312
ENCODING 8978
SWIDTH 960 0
DWIDTH 16 0
BBX 8 3 4 8
BITMAP
3C
42
81
ENDCHAR
STARTCHAR 2314
ENCODING 8980
SWIDTH 960 0
DWIDTH 16 0
BBX 10 10 3 0
BITMAP
7F80
8040
8040
4080
4080
2100
1200
1200
0C00
0C00
ENDCHAR
STARTCHAR 2460
ENCODING 9312
SWIDTH 960 0
DWIDTH 16 0
BBX 16 15 0 -2
BITMAP
07E0
1818
2004
4082
4382
8081
8081
8081
8081
4082
4082
2084
1008
0810
07E0
ENDCHAR
STARTCHAR 2461
ENCODING 9313
SWIDTH 960 0
DWIDTH 16 0
BBX 16 15 0 -2
BITMAP
07E0
1818
23C4
4222
4422
8421
8041
8081
8101
4202
4402
27E4
1008
0810
07E0
ENDCHAR
STARTCHAR 2462
ENCODING 9314
SWIDTH 960 0
DWIDTH 16 0
BBX 16 15 0 -2
BITMAP
07E0
1818
2184
4242
4422
8021
8041
81C1
8421
4422
4622
23C4
1008
0810
07E0
ENDCHAR
STARTCHAR 2463
ENCODING 9315
SWIDTH 960 0
DWIDTH 16 0
BBX 16 15 0 -2
BITMAP
07E0
1818
2084
4082
4142
8241
8241
8441
8441
4FE2
4042
2044
1008
0810
07E0
ENDCHAR
STARTCHAR 2464
ENCODING 9316
SWIDTH 960 0
DWIDTH 16 0
BBX 16 15 0 -2
BITMAP
07E0
1818
2004
43E2
4202
8401
87C1
8421
8021
4422
4422
23C4
1008
0810
07E0
ENDCHAR
STARTCHAR 2465
ENCODING 9317
SWIDTH 960 0
DWIDTH 16 0
BBX 16 15 0 -2
BITMAP
07E0
1818
2004
43C2
4662
8421
87C1
8421
8421
4422
4622
23C4
1008
0810
07E0
ENDCHAR
STARTCHAR 2466
ENCODING 9318
SWIDTH 960 0
DWIDTH 16 0
BBX 16 15 0 -2
BITMAP
07E0
1818
2004
47E2
4022
8041
8081
8081
8101
4102
4102
2104
1108
0810
07E0
ENDCHAR
STARTCHAR 2467
ENCODING 9319
SWIDTH 960 0
DWIDTH 16 0
BBX 16 15 0 -2
BITMAP
07E0
1818
2004
43C2
4422
8421
8421
83C1
8421
4422
4422
2424
13C8
0810
07E0
ENDCHAR
STARTCHAR 2468
ENCODING 9320
SWIDTH 960 0
DWIDTH 16 0
BBX 16 15 0 -2
BITMAP
07E0
1818
2004
43C2
4422
8421
8421
8461
83E1
4022
4462
23C4
1008
0810
07E0
ENDCHAR
STARTCHAR 2469
ENCODING 9321
SWIDTH 960 0
DWIDTH 16 0
BBX 16 15 0 -2
BITMAP
07E0
1818
2004
44F2
4C92
8509
8509
8509
8509
450A
4492
2464
1008
0810
07E0
ENDCHAR
STARTCHAR 246A
ENCODING 9322
SWIDTH 960 0
DWIDTH 16 0
BBX 16 15 0 -2
BITMAP
07E0
1818
2004
4222
4C62
8421
8421
8421
8421
4422
4422
2424
1008
0810
07E0
ENDCHAR
STARTCHAR 246B
ENCODING 9323
SWIDTH 960 0
DWIDTH 16 0
BBX 16 15 0 -2
BITMAP
07E0
1818
2004
44F2
5C92
8511
8511
8411
8421
44C2
4502
25F4
1008
0810
07E0
ENDCHAR
STARTCHAR 246C
ENCODING 9324
SWIDTH 960 0
DWIDTH 16 0
BBX 16 15 0 -2
BITMAP
07E0
1818
2004
44E2
5D12
8511
8411
8461
8411
450A
450A
24F4
1008
0810
07E0
ENDCHAR
STARTCHAR 246D
ENCODING 9325
SWIDTH 960 0
DWIDTH 16 0
BBX 16 15 0 -2
BITMAP
07E0
1818
2004
4422
4C22
8451
8491
8491
8511
45FA
4412
2414
1008
0810
07E0
ENDCHAR
STARTCHAR 246E
ENCODING 9326
SWIDTH 960 0
DWIDTH 16 0
BBX 16 15 0 -2
BITMAP
07E0
1818
2004
44F2
4C82
8501
85E1
8511
8409
440A
4512
24F4
1008
0810
07E0
ENDCHAR
STARTCHAR 246F
ENCODING 9327
SWIDTH 960 0
DWIDTH 16 0
BBX 16 15 0 -2
BITMAP
03C0
0C30
1008
24E4
4C92
5D02
8561
8591
8509
8509
450A
4492
24E4
1008
0FF0
ENDCHAR
STARTCHAR 2470
ENCODING 9328
SWIDTH 960 0
DWIDTH 16 0
BBX 16 15 0 -2
BITMAP
03C0
0C30
1008
25FC
4412
5C12
8421
8421
8441
8441
4442
4482
2484
1008
0FF0
ENDCHAR
STARTCHAR 2471
ENCODING 9329
SWIDTH 960 0
DWIDTH 16 0
BBX 16 15 0 -2
BITMAP
03C0
0C30
1008
24F4
4D12
5D12
8491
84E1
8511
8509
450A
4512
24E4
1008
0FF0
ENDCHAR
STARTCHAR 2472
ENCODING 9330
SWIDTH 960 0
DWIDTH 16 0
BBX 16 15 0 -2
BITMAP
03C0
0C30
1008
24F4
4D12
5D0A
8509
8509
84F9
8409
450A
4492
2464
1008
0FF0
ENDCHAR
STARTCHAR 2473
ENCODING 9331
SWIDTH 960 0
DWIDTH 16 0
BBX 16 15 0 -2
BITMAP
03C0
0C30
1008
2E74
514A
518A
8189
8289
8489
8889
484A
5E52
2024
1008
0FF0
ENDCHAR
STARTCHAR 2474
ENCODING 9332
SWIDTH 960 0
DWIDTH 16 0
BBX 14 16 1 -3
BITMAP
4008
4008
8004
8104
8704
8104
8104
8104
8104
8104
8104
8104
8104
8104
4008
4008
ENDCHAR
STARTCHAR 2475
ENCODING 9333
SWIDTH 960 0
DWIDTH 16 0
BBX 14 16 1 -3
BITMAP
4008
4008
8784
8C44
8844
8844
8044
8084
8104
8604
8C04
8804
8FC4
8004
4008
4008
ENDCHAR
STARTCHAR 2476
ENCODING 9334
SWIDTH 960 0
DWIDTH 16 0
BBX 14 16 1 -3
BITMAP
4008
4008
8784
8444
8844
8844
8044
8184
8044
8824
8824
8C44
8784
8004
4008
4008
ENDCHAR
STARTCHAR 2477
ENCODING 9335
SWIDTH 960 0
DWIDTH 16 0
BBX 14 16 1 -3
BITMAP
4008
4008
8084
8184
8284
8284
8484
8484
8884
9084
9FC4
8084
8084
8004
4008
4008
ENDCHAR
STARTCHAR 2478
ENCODING 9336
SWIDTH 960 0
DWIDTH 16 0
BBX 14 16 1 -3
BITMAP
4008
4008
8004
87C4
8404
8804
8F84
8844
8044
8024
8824
8844
8C44
8784
4008
4008
ENDCHAR
STARTCHAR 2479
ENCODING 9337
SWIDTH 960 0
DWIDTH 16 0
BBX 14 16 1 -3
BITMAP
4008
4008
8384
8444
8844
8804
8B84
8C44
8844
8824
8824
8844
8C44
8784
4008
4008
ENDCHAR
STARTCHAR 247A
ENCODING 9338
SWIDTH 960 0
DWIDTH 16 0
BBX 14 16 1 -3
BITMAP
4008
4008
8004
8FE4
8044
8084
8084
8104
8104
8204
8204
8204
8204
8204
4008
4008
ENDCHAR
STARTCHAR 247B
ENCODING 9339
SWIDTH 960 0
DWIDTH 16 0
BBX 14 16 1 -3
BITMAP
4008
4008
8004
8784
8844
8844
8844
8784
8844
8844
9024
8844
8844
8784
4008
4008
ENDCHAR
STARTCHAR 247C
ENCODING 9340
SWIDTH 960 0
DWIDTH 16 0
BBX 14 16 1 -3
BITMAP
4008
4008
8784
8CC4
8844
8844
8864
8864
8CA4
87C4
8844
8C44
8784
8004
4008
4008
ENDCHAR
STARTCHAR 247D
ENCODING 9341
SWIDTH 960 0
DWIDTH 16 0
BBX 14 16 1 -3
BITMAP
4008
4008
8004
88E4
B934
8A14
8A14
8A14
8A14
8A14
8A14
8934
88E4
8004
4008
4008
ENDCHAR
STARTCHAR 247E
ENCODING 9342
SWIDTH 960 0
DWIDTH 16 0
BBX 14 16 1 -3
BITMAP
4008
4008
8004
8424
8C64
BCE4
8424
8424
8424
8424
8424
8424
8424
8004
4008
4008
ENDCHAR
STARTCHAR 247F
ENCODING 9343
SWIDTH 960 0
DWIDTH 16 0
BBX 14 16 1 -3
BITMAP
4008
4008
8004
91E4
F114
9214
9214
9024
9044
9184
9104
9204
93F4
8004
4008
4008
ENDCHAR
STARTCHAR 2480
ENCODING 9344
SWIDTH 960 0
DWIDTH 16 0
BBX 14 16 1 -3
BITMAP
4008
4008
8004
89E4
BB14
8A14
8824
88E4
8814
8814
8A14
8A14
89E4
8004
4008
4008
ENDCHAR
STARTCHAR 2481
ENCODING 9345
SWIDTH 960 0
DWIDTH 16 0
BBX 14 16 1 -3
BITMAP
4008
4008
8004
8824
B864
8864
88A4
8924
8924
8A24
8BF4
8824
8824
8004
4008
4008
ENDCHAR
STARTCHAR 2482
ENCODING 9346
SWIDTH 960 0
DWIDTH 16 0
BBX 14 16 1 -3
BITMAP
4008
4008
8004
89F4
B904
8904
8BE4
8A34
8814
8814
8A14
8A34
89E4
8004
4008
4008
ENDCHAR
STARTCHAR 2483
ENCODING 9347
SWIDTH 960 0
DWIDTH 16 0
BBX 14 16 1 -3
BITMAP
4008
4008
8004
91E4
B214
9204
92C4
9324
9214
9214
9214
9214
91E4
8004
4008
4008
ENDCHAR
STARTCHAR 2484
ENCODING 9348
SWIDTH 960 0
DWIDTH 16 0
BBX 14 16 1 -3
BITMAP
4008
4008
8004
8BF4
9814
B824
8844
8844
8884
8884
8884
8884
8904
8904
4008
4008
ENDCHAR
STARTCHAR 2485
ENCODING 9349
SWIDTH 960 0
DWIDTH 16 0
BBX 14 16 1 -3
BITMAP
4008
4008
8044
89A4
B214
9214
9114
90E4
9314
9214
9214
9214
91E4
8004
4008
4008
ENDCHAR
STARTCHAR 2486
ENCODING 9350
SWIDTH 960 0
DWIDTH 16 0
BBX 14 16 1 -3
BITMAP
4008
4008
80C4
9124
B214
9214
9214
9214
9134
90D4
9014
9214
91E4
8004
4008
4008
ENDCHAR
STARTCHAR 2487
ENCODING 9351
SWIDTH 960 0
DWIDTH 16 0
BBX 14 16 1 -3
BITMAP
4008
4008
8804
94F4
A294
A28C
830C
850C
890C
910C
A08C
A094
BE64
8004
4008
4008
ENDCHAR
STARTCHAR 249C
ENCODING 9372
SWIDTH 960 0
DWIDTH 16 0
BBX 14 16 1 -3
BITMAP
4008
4008
8004
8784
8C44
8844
8044
83C4
8C44
8844
88C4
8F64
8004
8004
4008
4008
ENDCHAR
STARTCHAR 249D
ENCODING 9373
SWIDTH 960 0
DWIDTH 16 0
BBX 14 16 1 -3
BITMAP
4008
4008
8804
8804
8804
8B84
8C44
8824
8824
8824
8824
8824
8C44
8B84
4008
4008
ENDCHAR
STARTCHAR 249E
ENCODING 9374
SWIDTH 960 0
DWIDTH 16 0
BBX 14 16 1 -3
BITMAP
4008
4008
8004
8004
8784
8C44
8844
8804
8804
8844
8C44
8784
8004
8004
4008
4008
ENDCHAR
STARTCHAR 249F
ENCODING 9375
SWIDTH 960 0
DWIDTH 16 0
BBX 14 16 1 -3
BITMAP
4008
4008
8044
8044
8044
8744
88C4
9044
9044
9044
9044
9044
88C4
8744
4008
4008
ENDCHAR
STARTCHAR 24A0
ENCODING 9376
SWIDTH 960 0
DWIDTH 16 0
BBX 14 16 1 -3
BITMAP
4008
4008
8004
8004
8784
8844
8844
8FC4
8804
8844
8C44
8784
8004
8004
4008
4008
ENDCHAR
STARTCHAR 24A1
ENCODING 9377
SWIDTH 960 0
DWIDTH 16 0
BBX 14 16 1 -3
BITMAP
4008
4008
8004
8184
8204
8204
8784
8204
8204
8204
8204
8204
8204
8204
4008
4008
ENDCHAR
STARTCHAR 24A2
ENCODING 9378
SWIDTH 960 0
DWIDTH 16 0
BBX 14 16 1 -3
BITMAP
4008
4008
8004
87A4
8C44
8844
8844
8824
8844
8844
87A4
8044
8844
8784
4008
4008
ENDCHAR
STARTCHAR 24A3
ENCODING 9379
SWIDTH 960 0
DWIDTH 16 0
BBX 14 16 1 -3
BITMAP
4008
4008
8804
8804
8804
8B84
8C44
8844
8844
8844
8844
8844
8844
8844
4008
4008
ENDCHAR
STARTCHAR 24A4
ENCODING 9380
SWIDTH 960 0
DWIDTH 16 0
BBX 14 16 1 -3
BITMAP
4008
4008
8104
8104
8004
8004
8104
8104
8104
8104
8104
8104
8104
8104
4008
4008
ENDCHAR
STARTCHAR 24A5
ENCODING 9381
SWIDTH 960 0
DWIDTH 16 0
BBX 14 16 1 -3
BITMAP
4008
4108
8104
8004
8104
8104
8104
8104
8104
8104
8104
8104
8104
8104
4208
4008
ENDCHAR
STARTCHAR 24A6
ENCODING 9382
SWIDTH 960 0
DWIDTH 16 0
BBX 14 16 1 -3
BITMAP
4008
4008
8804
8804
8804
8844
8884
8904
8B04
8D04
8884
8884
8844
8824
4008
4008
ENDCHAR
STARTCHAR 24A7
ENCODING 9383
SWIDTH 960 0
DWIDTH 16 0
BBX 14 16 1 -3
BITMAP
4008
4008
8204
8204
8204
8204
8204
8204
8204
8204
8204
8204
8204
8204
4008
4008
ENDCHAR
STARTCHAR 24A8
ENCODING 9384
SWIDTH 960 0
DWIDTH 16 0
BBX 14 16 1 -3
BITMAP
4008
4008
8004
8004
BEF4
A314
A10C
A10C
A10C
A10C
A10C
A10C
8004
8004
4008
4008
ENDCHAR
STARTCHAR 24A9
ENCODING 9385
SWIDTH 960 0
DWIDTH 16 0
BBX 14 16 1 -3
BITMAP
4008
4008
8004
8004
8B84
8C44
8844
8844
8844
8844
8844
8844
8004
8004
4008
4008
ENDCHAR
STARTCHAR 24AA
ENCODING 9386
SWIDTH 960 0
DWIDTH 16 0
BBX 14 16 1 -3
BITMAP
4008
4008
8004
8004
8784
8844
8844
9024
9024
8844
8844
8784
8004
8004
4008
4008
ENDCHAR
STARTCHAR 24AB
ENCODING 9387
SWIDTH 960 0
DWIDTH 16 0
BBX 14 16 1 -3
BITMAP
4008
4008
8004
8B84
8C44
8824
8824
8824
8824
8C44
8B84
8804
8804
8804
4008
4008
ENDCHAR
STARTCHAR 24AC
ENCODING 9388
SWIDTH 960 0
DWIDTH 16 0
BBX 14 16 1 -3
BITMAP
4008
4008
8004
8744
88C4
9844
9044
9044
9044
9844
88C4
8744
8044
8044
4008
4008
ENDCHAR
STARTCHAR 24AD
ENCODING 9389
SWIDTH 960 0
DWIDTH 16 0
BBX 14 16 1 -3
BITMAP
4008
4008
8004
8004
8584
8504
8204
8404
8404
8404
8404
8404
8004
8004
4008
4008
ENDCHAR
STARTCHAR 24AE
ENCODING 9390
SWIDTH 960 0
DWIDTH 16 0
BBX 14 16 1 -3
BITMAP
4008
4008
8004
8784
88C4
8844
8C04
8384
8044
8844
8C44
8784
8004
8004
4008
4008
ENDCHAR
STARTCHAR 24AF
ENCODING 9391
SWIDTH 960 0
DWIDTH 16 0
BBX 14 16 1 -3
BITMAP
4008
4008
8004
8204
8204
8784
8204
8204
8204
8204
8204
8204
8384
8004
4008
4008
ENDCHAR
STARTCHAR 24B0
ENCODING 9392
SWIDTH 960 0
DWIDTH 16 0
BBX 14 16 1 -3
BITMAP
4008
4008
8004
8004
8844
8844
8844
8844
8844
8844
88C4
8744
8004
8004
4008
4008
ENDCHAR
STARTCHAR 24B1
ENCODING 9393
SWIDTH 960 0
DWIDTH 16 0
BBX 14 16 1 -3
BITMAP
4008
4008
8004
8004
8844
8844
8844
8484
8484
8284
8304
8304
8004
8004
4008
4008
ENDCHAR
STARTCHAR 24B2
ENCODING 9394
SWIDTH 960 0
DWIDTH 16 0
BBX 14 16 1 -3
BITMAP
4008
4008
8004
8004
A314
A314
A314
94A4
94A4
94A4
8CA4
8844
8004
8004
4008
4008
ENDCHAR
STARTCHAR 24B3
ENCODING 9395
SWIDTH 960 0
DWIDTH 16 0
BBX 14 16 1 -3
BITMAP
4008
4008
8004
8004
8844
8484
8484
8304
8304
8484
8484
8844
8004
8004
4008
4008
ENDCHAR
STARTCHAR 24B4
ENCODING 9396
SWIDTH 960 0
DWIDTH 16 0
BBX 14 16 1 -3
BITMAP
4008
4008
8004
8844
8844
8444
8484
8484
8284
8304
8104
8104
8204
8604
4008
4008
ENDCHAR
STARTCHAR 24B5
ENCODING 9397
SWIDTH 960 0
DWIDTH 16 0
BBX 14 16 1 -3
BITMAP
4008
4008
8004
8004
8FC4
80C4
8084
8104
8204
8404
8804
8FC4
8004
8004
4008
4008
ENDCHAR
STARTCHAR 24B6
ENCODING 9398
SWIDTH 960 0
DWIDTH 16 0
BBX 16 15 0 -2
BITMAP
03C0
0C30
1188
2184
4182
4242
8241
8241
87E1
8421
4812
4812
2004
1008
0FF0
ENDCHAR
STARTCHAR 24B7
ENCODING 9399
SWIDTH 960 0
DWIDTH 16 0
BBX 16 15 0 -2
BITMAP
03C0
0C30
1008
27E4
4412
4412
8421
87C1
8431
8411
4412
4412
27E4
1008
0FF0
ENDCHAR
STARTCHAR 24B8
ENCODING 9400
SWIDTH 960 0
DWIDTH 16 0
BBX 16 15 0 -2
BITMAP
03C0
0C30
1008
23C4
4422
4812
8801
8801
8801
8811
4812
4422
23C4
1008
0FF0
ENDCHAR
STARTCHAR 24B9
ENCODING 9401
SWIDTH 960 0
DWIDTH 16 0
BBX 16 15 0 -2
BITMAP
03C0
0C30
1008
27C4
4432
4412
8411
8411
8411
8411
4412
4422
27C4
1008
0FF0
ENDCHAR
STARTCHAR 24BA
ENCODING 9402
SWIDTH 960 0
DWIDTH 16 0
BBX 16 15 0 -2
BITMAP
03C0
0C30
1008
27E4
4402
4402
8401
87E1
8401
8401
4402
4402
27E4
1008
0FF0
ENDCHAR
STARTCHAR 24BB
ENCODING 9403
SWIDTH 960 0
DWIDTH 16 0
BBX 16 15 0 -2
BITMAP
03C0
0C30
1008
27E4
4402
4402
8401
87C1
8401
8401
4402
4402
2404
1008
0FF0
ENDCHAR
STARTCHAR 24BC
ENCODING 9404
SWIDTH 960 0
DWIDTH 16 0
BBX 16 15 0 -2
BITMAP
03C0
0C30
1008
27E4
4822
4812
9001
9001
90F1
8811
4812
4432
23D4
1008
0FF0
ENDCHAR
STARTCHAR 24BD
ENCODING 9405
SWIDTH 960 0
DWIDTH 16 0
BBX 16 15 0 -2
BITMAP
03C0
0C30
1008
2814
4812
4812
8811
8FF1
8811
8811
4812
4812
2814
1008
0FF0
ENDCHAR
STARTCHAR 24BE
ENCODING 9406
SWIDTH 960 0
DWIDTH 16 0
BBX 16 15 0 -2
BITMAP
03C0
0C30
1008
2104
4102
4102
8101
8101
8101
8101
4102
4102
2004
1008
0FF0
ENDCHAR
STARTCHAR 24BF
ENCODING 9407
SWIDTH 960 0
DWIDTH 16 0
BBX 16 15 0 -2
BITMAP
03C0
0C30
1008
2044
4042
4042
8041
8041
8041
8041
4442
4442
2384
1008
0FF0
ENDCHAR
STARTCHAR 24C0
ENCODING 9408
SWIDTH 960 0
DWIDTH 16 0
BBX 16 15 0 -2
BITMAP
03C0
0C30
1008
2824
4842
4882
8901
8B01
8C81
88C1
4842
4822
2814
1008
0FF0
ENDCHAR
STARTCHAR 24C1
ENCODING 9409
SWIDTH 960 0
DWIDTH 16 0
BBX 16 15 0 -2
BITMAP
03C0
0C30
1008
2404
4402
4402
8401
8401
8401
8401
4402
4402
27E4
1008
0FF0
ENDCHAR
STARTCHAR 24C2
ENCODING 9410
SWIDTH 960 0
DWIDTH 16 0
BBX 16 15 0 -2
BITMAP
03C0
0C30
1008
381C
581A
542A
9429
9429
9249
9249
518A
518A
318C
1008
0FF0
ENDCHAR
STARTCHAR 24C3
ENCODING 9411
SWIDTH 960 0
DWIDTH 16 0
BBX 16 15 0 -2
BITMAP
03C0
0C30
1008
2C14
4C12
4A12
8911
8911
8891
8851
4852
4832
2814
1008
0FF0
ENDCHAR
STARTCHAR 24C4
ENCODING 9412
SWIDTH 960 0
DWIDTH 16 0
BBX 16 15 0 -2
BITMAP
03C0
0C30
1008
27E4
4C32
4812
8811
9011
8811
8811
4812
4422
23C4
1008
0FF0
ENDCHAR
STARTCHAR 24C5
ENCODING 9413
SWIDTH 960 0
DWIDTH 16 0
BBX 16 15 0 -2
BITMAP
03C0
0C30
1008
27E4
4412
4412
8411
8431
87E1
8401
4402
4402
2404
1008
0FF0
ENDCHAR
STARTCHAR 24C6
ENCODING 9414
SWIDTH 960 0
DWIDTH 16 0
BBX 16 15 0 -2
BITMAP
03C0
0C30
1008
27E4
4C32
4812
8811
9011
9011
8811
4852
4422
23D4
1008
0FF0
ENDCHAR
STARTCHAR 24C7
ENCODING 9415
SWIDTH 960 0
DWIDTH 16 0
BBX 16 15 0 -2
BITMAP
03C0
0C30
1008
2FE4
4812
4812
8811
8FE1
8821
8811
4812
4812
2814
1008
0FF0
ENDCHAR
STARTCHAR 24C8
ENCODING 9416
SWIDTH 960 0
DWIDTH 16 0
BBX 16 15 0 -2
BITMAP
03C0
0C30
1008
27C4
4422
4822
8401
8381
8061
8011
4812
4422
23E4
1008
0FF0
ENDCHAR
STARTCHAR 24C9
ENCODING 9417
SWIDTH 960 0
DWIDTH 16 0
BBX 16 15 0 -2
BITMAP
03C0
0C30
1008
2FF4
4082
4082
8081
8081
8081
8081
4082
4082
2084
1008
0FF0
ENDCHAR
STARTCHAR 24CA
ENCODING 9418
SWIDTH 960 0
DWIDTH 16 0
BBX 16 15 0 -2
BITMAP
03C0
0C30
1008
2814
4812
4812
8811
8811
8811
8811
4812
4422
2664
1188
0FF0
ENDCHAR
STARTCHAR 24CB
ENCODING 9419
SWIDTH 960 0
DWIDTH 16 0
BBX 16 15 0 -2
BITMAP
03C0
0C30
1008
2814
4812
4422
8421
8421
8241
8241
4242
4182
2184
1008
0FF0
ENDCHAR
STARTCHAR 24CC
ENCODING 9420
SWIDTH 960 0
DWIDTH 16 0
BBX 16 15 0 -2
BITMAP
03C0
0C30
1008
2184
5186
518A
9189
9249
8A49
8A51
4A52
4C32
2424
1008
0FF0
ENDCHAR
STARTCHAR 24CD
ENCODING 9421
SWIDTH 960 0
DWIDTH 16 0
BBX 16 15 0 -2
BITMAP
03C0
0C30
1008
2424
4422
4242
8181
8181
8181
8241
4242
4422
2814
1008
0FF0
ENDCHAR
STARTCHAR 24CE
ENCODING 9422
SWIDTH 960 0
DWIDTH 16 0
BBX 16 15 0 -2
BITMAP
03C0
0C30
1008
2814
4422
4422
8241
8241
8181
8101
4102
4102
2104
1008
0FF0
ENDCHAR
STARTCHAR 24CF
ENCODING 9423
SWIDTH 960 0
DWIDTH 16 0
BBX 16 15 0 -2
BITMAP
03C0
0C30
1008
27F4
4022
4042
80C1
8081
8101
8201
4602
4402
2FF4
1008
0FF0
ENDCHAR
STARTCHAR 24D0
ENCODING 9424
SWIDTH 960 0
DWIDTH 16 0
BBX 16 15 0 -2
BITMAP
07E0
1818
2004
43C2
4262
8421
8021
83E1
8421
4462
43B2
2004
1008
0810
07E0
ENDCHAR
STARTCHAR 24D1
ENCODING 9425
SWIDTH 960 0
DWIDTH 16 0
BBX 16 15 0 -2
BITMAP
07E0
1818
2404
4402
4402
85C1
8621
8411
8411
4412
4412
2624
15C8
0810
07E0
ENDCHAR
STARTCHAR 24D2
ENCODING 9426
SWIDTH 960 0
DWIDTH 16 0
BBX 16 15 0 -2
BITMAP
07E0
1818
2004
43C2
4662
8421
8401
8401
8421
4662
43C2
2004
1008
0810
07E0
ENDCHAR
STARTCHAR 24D3
ENCODING 9427
SWIDTH 960 0
DWIDTH 16 0
BBX 16 15 0 -2
BITMAP
07E0
1818
2024
4022
4022
83A1
8461
8821
8821
4822
4822
2464
13A8
0810
07E0
ENDCHAR
STARTCHAR 24D4
ENCODING 9428
SWIDTH 960 0
DWIDTH 16 0
BBX 16 15 0 -2
BITMAP
07E0
1818
2004
4382
4642
8421
8421
87E1
8401
4422
4462
23C4
1008
0810
07E0
ENDCHAR
STARTCHAR 24D5
ENCODING 9429
SWIDTH 960 0
DWIDTH 16 0
BBX 16 15 0 -2
BITMAP
07E0
1818
2004
41C2
4102
8381
8101
8101
8101
4102
4102
2104
1108
0810
07E0
ENDCHAR
STARTCHAR 24D6
ENCODING 9430
SWIDTH 960 0
DWIDTH 16 0
BBX 16 15 0 -2
BITMAP
07E0
1818
2004
43E2
4422
8421
8421
8421
8421
43E2
4022
2424
13C8
0810
07E0
ENDCHAR
STARTCHAR 24D7
ENCODING 9431
SWIDTH 960 0
DWIDTH 16 0
BBX 16 15 0 -2
BITMAP
07E0
1818
2404
4402
4402
85C1
8621
8421
8421
4422
4422
2424
1428
0810
07E0
ENDCHAR
STARTCHAR 24D8
ENCODING 9432
SWIDTH 960 0
DWIDTH 16 0
BBX 16 15 0 -2
BITMAP
07E0
1818
2104
4002
4002
8101
8101
8101
8101
4102
4102
2104
1108
0810
07E0
ENDCHAR
STARTCHAR 24D9
ENCODING 9433
SWIDTH 960 0
DWIDTH 16 0
BBX 16 15 0 -2
BITMAP
07E0
1818
2084
4002
4002
8081
8081
8081
8081
4082
4082
2084
1108
0810
07E0
ENDCHAR
STARTCHAR 24DA
ENCODING 9434
SWIDTH 960 0
DWIDTH 16 0
BBX 16 15 0 -2
BITMAP
07E0
1818
2404
4402
4402
8421
8441
8481
8581
4682
4442
2424
1428
0810
07E0
ENDCHAR
STARTCHAR 24DB
ENCODING 9435
SWIDTH 960 0
DWIDTH 16 0
BBX 16 15 0 -2
BITMAP
07E0
1818
2104
4102
4102
8101
8101
8101
8101
4102
4102
2104
1108
0810
07E0
ENDCHAR
STARTCHAR 24DC
ENCODING 9436
SWIDTH 960 0
DWIDTH 16 0
BBX 16 15 0 -2
BITMAP
07E0
1818
2004
4002
5F72
9189
9089
9089
9089
508A
508A
2004
1008
0810
07E0
ENDCHAR
STARTCHAR 24DD
ENCODING 9437
SWIDTH 960 0
DWIDTH 16 0
BBX 16 15 0 -2
BITMAP
07E0
1818
2004
4002
45C2
8621
8421
8421
8421
4422
4422
2004
1008
0810
07E0
ENDCHAR
STARTCHAR 24DE
ENCODING 9438
SWIDTH 960 0
DWIDTH 16 0
BBX 16 15 0 -2
BITMAP
07E0
1818
2004
43C2
4422
8421
8821
8821
8421
4422
43C2
2004
1008
0810
07E0
ENDCHAR
STARTCHAR 24DF
ENCODING 9439
SWIDTH 960 0
DWIDTH 16 0
BBX 16 15 0 -2
BITMAP
07E0
1818
2004
45C2
4622
8421
8411
8411
8421
4622
45C2
2404
1408
0810
07E0
ENDCHAR
STARTCHAR 24E0
ENCODING 9440
SWIDTH 960 0
DWIDTH 16 0
BBX 16 15 0 -2
BITMAP
07E0
1818
2004
43A2
4462
8821
8821
8821
8821
4462
43A2
2024
1028
0810
07E0
ENDCHAR
STARTCHAR 24E1
ENCODING 9441
SWIDTH 960 0
DWIDTH 16 0
BBX 16 15 0 -2
BITMAP
07E0
1818
2004
4002
42C2
8301
8301
8201
8201
4202
4202
2004
1008
0810
07E0
ENDCHAR
STARTCHAR 24E2
ENCODING 9442
SWIDTH 960 0
DWIDTH 16 0
BBX 16 15 0 -2
BITMAP
07E0
1818
2004
43C2
4422
8401
8381
8041
8421
4422
43C2
2004
1008
0810
07E0
ENDCHAR
STARTCHAR 24E3
ENCODING 9443
SWIDTH 960 0
DWIDTH 16 0
BBX 16 15 0 -2
BITMAP
07E0
1818
2004
4102
4102
8381
8101
8101
8101
4102
4102
2184
1008
0810
07E0
ENDCHAR
STARTCHAR 24E4
ENCODING 9444
SWIDTH 960 0
DWIDTH 16 0
BBX 16 15 0 -2
BITMAP
07E0
1818
2004
4002
4422
8421
8421
8421
8421
4422
4462
23A4
1008
0810
07E0
ENDCHAR
STARTCHAR 24E5
ENCODING 9445
SWIDTH 960 0
DWIDTH 16 0
BBX 16 15 0 -2
BITMAP
07E0
1818
2004
4002
4422
8421
8241
8241
8241
4182
4182
2184
1008
0810
07E0
ENDCHAR
STARTCHAR 24E6
ENCODING 9446
SWIDTH 960 0
DWIDTH 16 0
BBX 16 15 0 -2
BITMAP
07E0
1818
2004
4002
518A
9189
8989
8951
8A51
4A52
4662
2424
1008
0810
07E0
ENDCHAR
STARTCHAR 24E7
ENCODING 9447
SWIDTH 960 0
DWIDTH 16 0
BBX 16 15 0 -2
BITMAP
07E0
1818
2004
4002
4422
8241
8181
8181
8241
4242
4422
2004
1008
0810
07E0
ENDCHAR
STARTCHAR 24E8
ENCODING 9448
SWIDTH 960 0
DWIDTH 16 0
BBX 16 15 0 -2
BITMAP
07E0
1818
2004
4422
4422
8241
8241
8241
8181
4182
4082
2104
1308
0810
07E0
ENDCHAR
STARTCHAR 24E9
ENCODING 9449
SWIDTH 960 0
DWIDTH 16 0
BBX 16 15 0 -2
BITMAP
07E0
1818
2004
4002
47E2
8041
8081
8101
8301
4202
47E2
2004
1008
0810
07E0
ENDCHAR
STARTCHAR 24EB
ENCODING 9451
SWIDTH 960 0
DWIDTH 16 0
BBX 16 15 0 -2
BITMAP
0180
0FF0
1FF8
3FDC
7BDE
7BDE
7BDE
FBDF
FBDE
7BDE
7BDE
7BDE
3BDC
1FF8
0FF0
ENDCHAR
STARTCHAR 24EC
ENCODING 9452
SWIDTH 960 0
DWIDTH 16 0
BBX 16 15 0 -2
BITMAP
0180
0FF0
1FF8
3F0C
76FE
7EF6
7FFE
FFEF
FFDE
7FBE
7F7E
7EFE
3E04
1FF8
0FF0
ENDCHAR
STARTCHAR 24ED
ENCODING 9453
SWIDTH 960 0
DWIDTH 16 0
BBX 16 15 0 -2
BITMAP
0180
0FF0
1FF8
3F0C
76EE
7EFE
7FEE
FF9F
FFEE
7FF6
7EF6
7EEE
3F0C
1FF8
0FF0
ENDCHAR
STARTCHAR 24EE
ENCODING 9454
SWIDTH 960 0
DWIDTH 16 0
BBX 16 15 0 -2
BITMAP
0180
0FF0
1FF8
3BCC
73CE
7BAE
7BEE
FB6F
FAEE
7AEE
7BEE
7BEE
3BEC
1FF8
0FF0
ENDCHAR
STARTCHAR 24EF
ENCODING 9455
SWIDTH 960 0
DWIDTH 16 0
BBX 16 15 0 -2
BITMAP
0180
0FF0
1FF8
3B0C
73FE
7BFE
7A9E
FAEF
FBF6
7BF6
7AF6
7AEE
3B0C
1FF8
0FF0
ENDCHAR
STARTCHAR 24F0
ENCODING 9456
SWIDTH 960 0
DWIDTH 16 0
BBX 16 15 0 -2
BITMAP
0180
0FF0
1FF8
3F0C
77FE
7EFE
7E9E
FE6F
FEF6
7EF6
7EF6
7EEE
3F0C
1FF8
0FF0
ENDCHAR
STARTCHAR 24F1
ENCODING 9457
SWIDTH 960 0
DWIDTH 16 0
BBX 16 15 0 -2
BITMAP
0180
0FF0
1FF8
3A04
73FE
63EE
7BDE
FBDF
FBBE
7BBE
7BBE
7BBE
3B7C
1FF8
0FF0
ENDCHAR
STARTCHAR 24F2
ENCODING 9458
SWIDTH 960 0
DWIDTH 16 0
BBX 16 15 0 -2
BITMAP
0180
0FF0
1FF8
3F0C
76F6
7EF6
7F6E
FF1F
FEF6
7EF6
7EF6
7EF6
3F0C
1FF8
0FF0
ENDCHAR
STARTCHAR 24F3
ENCODING 9459
SWIDTH 960 0
DWIDTH 16 0
BBX 16 15 0 -2
BITMAP
0180
0FF0
1FF8
3B0C
72F6
7AF6
7AF6
FAF7
FB66
7BF6
7AF6
7B6E
3B0C
1FF8
0FF0
ENDCHAR
STARTCHAR 24F4
ENCODING 9460
SWIDTH 960 0
DWIDTH 16 0
BBX 16 15 0 -2
BITMAP
0180
0FF0
1FF8
358C
6EB6
6EFE
7EFE
FD7F
FB7E
777E
6FF6
6FB6
20CC
1FF8
0FF0
ENDCHAR
STARTCHAR 2500
ENCODING 9472
SWIDTH 960 0
DWIDTH 16 0
BBX 0 0 0 5
BITMAP
ENDCHAR
STARTCHAR 2501
ENCODING 9473
SWIDTH 960 0
DWIDTH 16 0
BBX 16 1 0 5
BITMAP
FFFF
ENDCHAR
STARTCHAR 2502
ENCODING 9474
SWIDTH 960 0
DWIDTH 16 0
BBX 1 16 7 -2
BITMAP
80
80
80
80
80
80
80
80
80
80
80
80
80
80
80
80
ENDCHAR
STARTCHAR 2503
ENCODING 9475
SWIDTH 960 0
DWIDTH 16 0
BBX 1 17 7 -3
BITMAP
80
80
80
80
80
80
80
80
80
80
80
80
80
80
80
80
80
ENDCHAR
STARTCHAR 250C
ENCODING 9484
SWIDTH 960 0
DWIDTH 16 0
BBX 8 9 8 -3
BITMAP
FF
80
80
80
80
80
80
80
80
ENDCHAR
STARTCHAR 250D
ENCODING 9485
SWIDTH 960 0
DWIDTH 16 0
BBX 8 9 8 -3
BITMAP
FF
80
80
80
80
80
80
80
80
ENDCHAR
STARTCHAR 250E
ENCODING 9486
SWIDTH 960 0
DWIDTH 16 0
BBX 9 9 7 -3
BITMAP
FF80
C000
C000
C000
C000
C000
C000
C000
C000
ENDCHAR
STARTCHAR 250F
ENCODING 9487
SWIDTH 960 0
DWIDTH 16 0
BBX 8 9 8 -3
BITMAP
FF
80
80
80
80
80
80
80
80
ENDCHAR
STARTCHAR 2510
ENCODING 9488
SWIDTH 960 0
DWIDTH 16 0
BBX 8 9 0 -3
BITMAP
FF
01
01
01
01
01
01
01
01
ENDCHAR
STARTCHAR 2511
ENCODING 9489
SWIDTH 960 0
DWIDTH 16 0
BBX 8 9 0 -3
BITMAP
FF
01
01
01
01
01
01
01
01
ENDCHAR
STARTCHAR 2512
ENCODING 9490
SWIDTH 960 0
DWIDTH 16 0
BBX 9 9 0 -3
BITMAP
FF80
0180
0180
0180
0180
0180
0180
0180
0180
ENDCHAR
STARTCHAR 2513
ENCODING 9491
SWIDTH 960 0
DWIDTH 16 0
BBX 8 9 0 -3
BITMAP
FF
01
01
01
01
01
01
01
01
ENDCHAR
STARTCHAR 2514
ENCODING 9492
SWIDTH 960 0
DWIDTH 16 0
BBX 7 9 8 5
BITMAP
80
80
80
80
80
80
80
80
FE
ENDCHAR
STARTCHAR 2515
ENCODING 9493
SWIDTH 960 0
DWIDTH 16 0
BBX 8 9 8 5
BITMAP
80
80
80
80
80
80
80
80
FF
ENDCHAR
STARTCHAR 2516
ENCODING 9494
SWIDTH 960 0
DWIDTH 16 0
BBX 9 9 7 5
BITMAP
C000
C000
C000
C000
C000
C000
C000
C000
FF80
ENDCHAR
STARTCHAR 2517
ENCODING 9495
SWIDTH 960 0
DWIDTH 16 0
BBX 8 9 8 5
BITMAP
80
80
80
80
80
80
80
80
FF
ENDCHAR
STARTCHAR 2518
ENCODING 9496
SWIDTH 960 0
DWIDTH 16 0
BBX 7 9 1 5
BITMAP
02
02
02
02
02
02
02
02
FE
ENDCHAR
STARTCHAR 2519
ENCODING 9497
SWIDTH 960 0
DWIDTH 16 0
BBX 8 9 0 5
BITMAP
01
01
01
01
01
01
01
01
FF
ENDCHAR
STARTCHAR 251A
ENCODING 9498
SWIDTH 960 0
DWIDTH 16 0
BBX 9 9 0 5
BITMAP
0180
0180
0180
0180
0180
0180
0180
0180
FF80
ENDCHAR
STARTCHAR 251B
ENCODING 9499
SWIDTH 960 0
DWIDTH 16 0
BBX 8 9 0 5
BITMAP
01
01
01
01
01
01
01
01
FF
ENDCHAR
STARTCHAR 251C
ENCODING 9500
SWIDTH 960 0
DWIDTH 16 0
BBX 8 17 8 -3
BITMAP
80
80
80
80
80
80
80
80
FF
80
80
80
80
80
80
80
80
ENDCHAR
STARTCHAR 251D
ENCODING 9501
SWIDTH 960 0
DWIDTH 16 0
BBX 8 17 8 -3
BITMAP
80
80
80
80
80
80
80
80
FF
80
80
80
80
80
80
80
80
ENDCHAR
STARTCHAR 251E
ENCODING 9502
SWIDTH 960 0
DWIDTH 16 0
BBX 9 17 7 -3
BITMAP
C000
C000
C000
C000
C000
C000
C000
C000
FF80
8000
8000
8000
8000
8000
8000
8000
8000
ENDCHAR
STARTCHAR 251F
ENCODING 9503
SWIDTH 960 0
DWIDTH 16 0
BBX 9 17 7 -3
BITMAP
8000
8000
8000
8000
8000
8000
8000
8000
7F80
C000
C000
C000
C000
C000
C000
C000
C000
ENDCHAR
STARTCHAR 2520
ENCODING 9504
SWIDTH 960 0
DWIDTH 16 0
BBX 9 17 7 -3
BITMAP
C000
C000
C000
C000
C000
C000
C000
C000
FF80
C000
C000
C000
C000
C000
C000
C000
C000
ENDCHAR
STARTCHAR 2521
ENCODING 9505
SWIDTH 960 0
DWIDTH 16 0
BBX 9 17 7 -3
BITMAP
C000
C000
C000
C000
C000
C000
C000
C000
FF80
8000
8000
8000
8000
8000
8000
8000
8000
ENDCHAR
STARTCHAR 2522
ENCODING 9506
SWIDTH 960 0
DWIDTH 16 0
BBX 9 17 7 -3
BITMAP
8000
8000
8000
8000
8000
8000
8000
8000
7F80
C000
C000
C000
C000
C000
C000
C000
C000
ENDCHAR
STARTCHAR 2523
ENCODING 9507
SWIDTH 960 0
DWIDTH 16 0
BBX 8 17 8 -3
BITMAP
80
80
80
80
80
80
80
80
FF
80
80
80
80
80
80
80
80
ENDCHAR
STARTCHAR 2524
ENCODING 9508
SWIDTH 960 0
DWIDTH 16 0
BBX 8 17 0 -3
BITMAP
01
01
01
01
01
01
01
01
FF
01
01
01
01
01
01
01
01
ENDCHAR
STARTCHAR 2525
ENCODING 9509
SWIDTH 960 0
DWIDTH 16 0
BBX 8 17 0 -3
BITMAP
01
01
01
01
01
01
01
01
FF
01
01
01
01
01
01
01
01
ENDCHAR
STARTCHAR 2526
ENCODING 9510
SWIDTH 960 0
DWIDTH 16 0
BBX 9 17 0 -3
BITMAP
0180
0180
0180
0180
0180
0180
0180
0180
FF00
0100
0100
0100
0100
0100
0100
0100
0100
ENDCHAR
STARTCHAR 2527
ENCODING 9511
SWIDTH 960 0
DWIDTH 16 0
BBX 9 17 0 -3
BITMAP
0100
0100
0100
0100
0100
0100
0100
0100
FF80
0180
0180
0180
0180
0180
0180
0180
0180
ENDCHAR
STARTCHAR 2528
ENCODING 9512
SWIDTH 960 0
DWIDTH 16 0
BBX 9 17 0 -3
BITMAP
0180
0180
0180
0180
0180
0180
0180
0180
FF80
0180
0180
0180
0180
0180
0180
0180
0180
ENDCHAR
STARTCHAR 2529
ENCODING 9513
SWIDTH 960 0
DWIDTH 16 0
BBX 9 17 0 -3
BITMAP
0180
0180
0180
0180
0180
0180
0180
0180
FF00
0100
0100
0100
0100
0100
0100
0100
0100
ENDCHAR
STARTCHAR 252A
ENCODING 9514
SWIDTH 960 0
DWIDTH 16 0
BBX 9 17 0 -3
BITMAP
0100
0100
0100
0100
0100
0100
0100
0100
FF80
0180
0180
0180
0180
0180
0180
0180
0180
ENDCHAR
STARTCHAR 252B
ENCODING 9515
SWIDTH 960 0
DWIDTH 16 0
BBX 8 17 0 -3
BITMAP
01
01
01
01
01
01
01
01
FF
01
01
01
01
01
01
01
01
ENDCHAR
STARTCHAR 252C
ENCODING 9516
SWIDTH 960 0
DWIDTH 16 0
BBX 16 9 0 -3
BITMAP
FFFF
0100
0100
0100
0100
0100
0100
0100
0100
ENDCHAR
STARTCHAR 252D
ENCODING 9517
SWIDTH 960 0
DWIDTH 16 0
BBX 16 9 0 -3
BITMAP
FFFF
0100
0100
0100
0100
0100
0100
0100
0100
ENDCHAR
STARTCHAR 252E
ENCODING 9518
SWIDTH 960 0
DWIDTH 16 0
BBX 16 9 0 -3
BITMAP
FFFF
0100
0100
0100
0100
0100
0100
0100
0100
ENDCHAR
STARTCHAR 252F
ENCODING 9519
SWIDTH 960 0
DWIDTH 16 0
BBX 16 9 0 -3
BITMAP
FFFF
0100
0100
0100
0100
0100
0100
0100
0100
ENDCHAR
STARTCHAR 2530
ENCODING 9520
SWIDTH 960 0
DWIDTH 16 0
BBX 16 9 0 -3
BITMAP
FFFF
0180
0180
0180
0180
0180
0180
0180
0180
ENDCHAR
STARTCHAR 2531
ENCODING 9521
SWIDTH 960 0
DWIDTH 16 0
BBX 16 9 0 -3
BITMAP
FFFF
0180
0180
0180
0180
0180
0180
0180
0180
ENDCHAR
STARTCHAR 2532
ENCODING 9522
SWIDTH 960 0
DWIDTH 16 0
BBX 16 9 0 -3
BITMAP
FFFF
0180
0180
0180
0180
0180
0180
0180
0180
ENDCHAR
STARTCHAR 2533
ENCODING 9523
SWIDTH 960 0
DWIDTH 16 0
BBX 16 9 0 -3
BITMAP
FFFF
0100
0100
0100
0100
0100
0100
0100
0100
ENDCHAR
STARTCHAR 2534
ENCODING 9524
SWIDTH 960 0
DWIDTH 16 0
BBX 16 9 0 5
BITMAP
0100
0100
0100
0100
0100
0100
0100
0100
FFFF
ENDCHAR
STARTCHAR 2535
ENCODING 9525
SWIDTH 960 0
DWIDTH 16 0
BBX 16 9 0 5
BITMAP
0100
0100
0100
0100
0100
0100
0100
0100
FFFF
ENDCHAR
STARTCHAR 2536
ENCODING 9526
SWIDTH 960 0
DWIDTH 16 0
BBX 16 9 0 5
BITMAP
0100
0100
0100
0100
0100
0100
0100
0100
FFFF
ENDCHAR
STARTCHAR 2537
ENCODING 9527
SWIDTH 960 0
DWIDTH 16 0
BBX 16 9 0 5
BITMAP
0100
0100
0100
0100
0100
0100
0100
0100
FFFF
ENDCHAR
STARTCHAR 2538
ENCODING 9528
SWIDTH 960 0
DWIDTH 16 0
BBX 14 9 1 5
BITMAP
0300
0300
0300
0300
0300
0300
0300
0300
FFFC
ENDCHAR
STARTCHAR 2539
ENCODING 9529
SWIDTH 960 0
DWIDTH 16 0
BBX 16 9 0 5
BITMAP
0180
0180
0180
0180
0180
0180
0180
0180
FFFF
ENDCHAR
STARTCHAR 253A
ENCODING 9530
SWIDTH 960 0
DWIDTH 16 0
BBX 16 9 0 5
BITMAP
0180
0180
0180
0180
0180
0180
0180
0180
FFFF
ENDCHAR
STARTCHAR 253B
ENCODING 9531
SWIDTH 960 0
DWIDTH 16 0
BBX 16 9 0 5
BITMAP
0100
0100
0100
0100
0100
0100
0100
0100
FFFF
ENDCHAR
STARTCHAR 253C
ENCODING 9532
SWIDTH 960 0
DWIDTH 16 0
BBX 16 17 0 -3
BITMAP
0100
0100
0100
0100
0100
0100
0100
0100
FFFF
0100
0100
0100
0100
0100
0100
0100
0100
ENDCHAR
STARTCHAR 253D
ENCODING 9533
SWIDTH 960 0
DWIDTH 16 0
BBX 16 17 0 -3
BITMAP
0100
0100
0100
0100
0100
0100
0100
0100
FFFF
0100
0100
0100
0100
0100
0100
0100
0100
ENDCHAR
STARTCHAR 253E
ENCODING 9534
SWIDTH 960 0
DWIDTH 16 0
BBX 16 17 0 -3
BITMAP
0100
0100
0100
0100
0100
0100
0100
0100
FFFF
0100
0100
0100
0100
0100
0100
0100
0100
ENDCHAR
STARTCHAR 253F
ENCODING 9535
SWIDTH 960 0
DWIDTH 16 0
BBX 16 17 0 -3
BITMAP
0100
0100
0100
0100
0100
0100
0100
0100
FFFF
0100
0100
0100
0100
0100
0100
0100
0100
ENDCHAR
STARTCHAR 2540
ENCODING 9536
SWIDTH 960 0
DWIDTH 16 0
BBX 16 17 0 -3
BITMAP
0180
0180
0180
0180
0180
0180
0180
0180
FFFF
0100
0100
0100
0100
0100
0100
0100
0100
ENDCHAR
STARTCHAR 2541
ENCODING 9537
SWIDTH 960 0
DWIDTH 16 0
BBX 16 17 0 -3
BITMAP
0100
0100
0100
0100
0100
0100
0100
0100
FFFF
0180
0180
0180
0180
0180
0180
0180
0180
ENDCHAR
STARTCHAR 2542
ENCODING 9538
SWIDTH 960 0
DWIDTH 16 0
BBX 16 17 0 -3
BITMAP
0180
0180
0180
0180
0180
0180
0180
0180
FFFF
0180
0180
0180
0180
0180
0180
0180
0180
ENDCHAR
STARTCHAR 2543
ENCODING 9539
SWIDTH 960 0
DWIDTH 16 0
BBX 16 17 0 -3
BITMAP
0180
0180
0180
0180
0180
0180
0180
0180
FFFF
0100
0100
0100
0100
0100
0100
0100
0100
ENDCHAR
STARTCHAR 2544
ENCODING 9540
SWIDTH 960 0
DWIDTH 16 0
BBX 16 17 0 -3
BITMAP
0180
0180
0180
0180
0180
0180
0180
0180
FFFF
0100
0100
0100
0100
0100
0100
0100
0100
ENDCHAR
STARTCHAR 2545
ENCODING 9541
SWIDTH 960 0
DWIDTH 16 0
BBX 16 17 0 -3
BITMAP
0100
0100
0100
0100
0100
0100
0100
0100
FFFF
0180
0180
0180
0180
0180
0180
0180
0180
ENDCHAR
STARTCHAR 2546
ENCODING 9542
SWIDTH 960 0
DWIDTH 16 0
BBX 16 17 0 -3
BITMAP
0100
0100
0100
0100
0100
0100
0100
0100
FFFF
0180
0180
0180
0180
0180
0180
0180
0180
ENDCHAR
STARTCHAR 2547
ENCODING 9543
SWIDTH 960 0
DWIDTH 16 0
BBX 16 17 0 -3
BITMAP
0180
0180
0180
0180
0180
0180
0180
0180
FFFF
0100
0100
0100
0100
0100
0100
0100
0100
ENDCHAR
STARTCHAR 2548
ENCODING 9544
SWIDTH 960 0
DWIDTH 16 0
BBX 16 17 0 -3
BITMAP
0100
0100
0100
0100
0100
0100
0100
0100
FFFF
0180
0180
0180
0180
0180
0180
0180
0180
ENDCHAR
STARTCHAR 2549
ENCODING 9545
SWIDTH 960 0
DWIDTH 16 0
BBX 16 17 0 -3
BITMAP
0180
0180
0180
0180
0180
0180
0180
0180
FFFF
0180
0180
0180
0180
0180
0180
0180
0180
ENDCHAR
STARTCHAR 254A
ENCODING 9546
SWIDTH 960 0
DWIDTH 16 0
BBX 16 17 0 -3
BITMAP
0180
0180
0180
0180
0180
0180
0180
0180
FFFF
0180
0180
0180
0180
0180
0180
0180
0180
ENDCHAR
STARTCHAR 254B
ENCODING 9547
SWIDTH 960 0
DWIDTH 16 0
BBX 16 17 0 -3
BITMAP
0100
0100
0100
0100
0100
0100
0100
0100
FFFF
0100
0100
0100
0100
0100
0100
0100
0100
ENDCHAR
STARTCHAR 2592
ENCODING 9618
SWIDTH 960 0
DWIDTH 16 0
BBX 12 12 2 -1
BITMAP
FFF0
8910
E970
8010
E970
8910
8010
E970
8010
8910
E970
FFF0
ENDCHAR
STARTCHAR 25A0
ENCODING 9632
SWIDTH 960 0
DWIDTH 16 0
BBX 12 12 2 -1
BITMAP
FFF0
FFF0
FFF0
FFF0
FFF0
FFF0
FFF0
FFF0
FFF0
FFF0
FFF0
FFF0
ENDCHAR
STARTCHAR 25A1
ENCODING 9633
SWIDTH 960 0
DWIDTH 16 0
BBX 12 12 2 -1
BITMAP
FFF0
8010
8010
8010
8010
8010
8010
8010
8010
8010
8010
FFF0
ENDCHAR
STARTCHAR 25A3
ENCODING 9635
SWIDTH 960 0
DWIDTH 16 0
BBX 12 12 2 -1
BITMAP
FFF0
8010
BFD0
BFD0
BFD0
BFD0
BFD0
BFD0
BFD0
BFD0
8010
FFF0
ENDCHAR
STARTCHAR 25A4
ENCODING 9636
SWIDTH 960 0
DWIDTH 16 0
BBX 12 12 2 -1
BITMAP
FFF0
FFF0
8010
FFF0
8010
FFF0
FFF0
8010
FFF0
8010
FFF0
FFF0
ENDCHAR
STARTCHAR 25A5
ENCODING 9637
SWIDTH 960 0
DWIDTH 16 0
BBX 12 12 2 -1
BITMAP
FFF0
D6B0
D6B0
D6B0
D6B0
D6B0
D6B0
D6B0
D6B0
D6B0
D6B0
FFF0
ENDCHAR
STARTCHAR 25A6
ENCODING 9638
SWIDTH 960 0
DWIDTH 16 0
BBX 12 12 2 -1
BITMAP
FFF0
FFF0
D6B0
FFF0
D6B0
FFF0
FFF0
D6B0
FFF0
D6B0
FFF0
FFF0
ENDCHAR
STARTCHAR 25A7
ENCODING 9639
SWIDTH 960 0
DWIDTH 16 0
BBX 12 12 2 -1
BITMAP
FFF0
C930
A490
9250
C930
A490
9250
C930
A490
D250
A930
FFF0
ENDCHAR
STARTCHAR 25A8
ENCODING 9640
SWIDTH 960 0
DWIDTH 16 0
BBX 12 12 2 -1
BITMAP
FFF0
C930
9250
A490
C930
9250
A490
C930
9250
A4B0
C950
FFF0
ENDCHAR
STARTCHAR 25A9
ENCODING 9641
SWIDTH 960 0
DWIDTH 16 0
BBX 12 12 2 -1
BITMAP
FFF0
C930
B6D0
B6D0
C930
B6D0
B6D0
C930
B6D0
F6D0
C930
FFF0
ENDCHAR
STARTCHAR 25B1
ENCODING 9649
SWIDTH 960 0
DWIDTH 16 0
BBX 12 8 2 1
BITMAP
3FF0
2010
4020
4020
4020
4040
8040
FFC0
ENDCHAR
STARTCHAR 25B2
ENCODING 9650
SWIDTH 960 0
DWIDTH 16 0
BBX 12 11 2 0
BITMAP
0400
0600
0E00
0F00
1F80
1F80
3FC0
7FC0
7FE0
FFF0
FFF0
ENDCHAR
STARTCHAR 25B3
ENCODING 9651
SWIDTH 960 0
DWIDTH 16 0
BBX 12 11 2 0
BITMAP
0400
0600
0900
0900
1080
2040
2040
4020
4020
8010
FFF0
ENDCHAR
STARTCHAR 25B5
ENCODING 9653
SWIDTH 960 0
DWIDTH 16 0
BBX 12 10 2 0
BITMAP
0400
0600
0F00
0900
1080
30C0
2040
4020
C030
FFF0
ENDCHAR
STARTCHAR 25B6
ENCODING 9654
SWIDTH 960 0
DWIDTH 16 0
BBX 10 12 3 0
BITMAP
C000
E000
F800
FC00
FF00
FFC0
FF80
FF00
FC00
F800
E000
8000
ENDCHAR
STARTCHAR 25B7
ENCODING 9655
SWIDTH 960 0
DWIDTH 16 0
BBX 10 12 3 0
BITMAP
C000
B000
8800
8600
8100
80C0
8080
8300
8400
9800
A000
C000
ENDCHAR
STARTCHAR 25B9
ENCODING 9657
SWIDTH 960 0
DWIDTH 16 0
BBX 10 12 3 -1
BITMAP
C000
E000
9800
8C00
8300
81C0
8180
8300
8C00
B800
E000
8000
ENDCHAR
STARTCHAR 25BC
ENCODING 9660
SWIDTH 960 0
DWIDTH 16 0
BBX 12 10 2 0
BITMAP
FFF0
FFF0
7FE0
3FC0
3FC0
1F80
0F00
0F00
0600
0400
ENDCHAR
STARTCHAR 25BD
ENCODING 9661
SWIDTH 960 0
DWIDTH 16 0
BBX 12 10 2 0
BITMAP
FFF0
8010
4020
4020
2040
1080
1100
0900
0600
0400
ENDCHAR
STARTCHAR 25BF
ENCODING 9663
SWIDTH 960 0
DWIDTH 16 0
BBX 12 10 2 0
BITMAP
FFF0
C030
4020
2040
30C0
1080
0900
0F00
0600
0600
ENDCHAR
STARTCHAR 25C0
ENCODING 9664
SWIDTH 960 0
DWIDTH 16 0
BBX 10 12 3 0
BITMAP
00C0
01C0
07C0
0FC0
3FC0
FFC0
7FC0
3FC0
0FC0
07C0
01C0
0040
ENDCHAR
STARTCHAR 25C1
ENCODING 9665
SWIDTH 960 0
DWIDTH 16 0
BBX 10 12 3 0
BITMAP
00C0
0340
0440
1840
2040
C040
4040
3040
0840
0640
0140
00C0
ENDCHAR
STARTCHAR 25C3
ENCODING 9667
SWIDTH 960 0
DWIDTH 16 0
BBX 10 12 3 -1
BITMAP
00C0
01C0
0640
0C40
3040
E040
6040
3040
0C40
0740
01C0
0040
ENDCHAR
STARTCHAR 25C6
ENCODING 9670
SWIDTH 960 0
DWIDTH 16 0
BBX 14 15 1 -2
BITMAP
0300
0780
0FC0
1FE0
3FF0
7FF8
FFFC
FFFC
7FF8
3FF0
1FE0
0FC0
0780
0300
0200
ENDCHAR
STARTCHAR 25C7
ENCODING 9671
SWIDTH 960 0
DWIDTH 16 0
BBX 14 15 1 -2
BITMAP
0300
0480
0840
1020
2010
4008
8004
8004
4008
2010
1020
0840
0480
0300
0200
ENDCHAR
STARTCHAR 25C8
ENCODING 9672
SWIDTH 960 0
DWIDTH 16 0
BBX 14 14 1 -2
BITMAP
0300
0480
0840
1320
2790
4FC8
9FE4
9FE4
4FC8
2790
1320
0840
0480
0300
ENDCHAR
STARTCHAR 25C9
ENCODING 9673
SWIDTH 960 0
DWIDTH 16 0
BBX 14 14 1 -2
BITMAP
0780
1860
2010
4008
4308
8784
8FC4
8FC4
8784
4308
4008
2010
1860
0780
ENDCHAR
STARTCHAR 25CA
ENCODING 9674
SWIDTH 960 0
DWIDTH 16 0
BBX 12 14 2 -2
BITMAP
0600
0F00
0900
1080
30C0
6060
C030
C030
6060
30C0
1980
0900
0600
0600
ENDCHAR
STARTCHAR 25CB
ENCODING 9675
SWIDTH 960 0
DWIDTH 16 0
BBX 12 12 2 -1
BITMAP
1F00
20C0
4020
8010
8010
8010
8010
8010
8010
4020
20C0
1F80
ENDCHAR
STARTCHAR 25CC
ENCODING 9676
SWIDTH 960 0
DWIDTH 16 0
BBX 16 15 0 -2
BITMAP
0180
0000
2004
0000
4002
0000
0000
8001
8001
0000
0002
0000
2004
0000
0C10
ENDCHAR
STARTCHAR 25CE
ENCODING 9678
SWIDTH 960 0
DWIDTH 16 0
BBX 14 14 1 -2
BITMAP
0780
1860
2010
4788
4848
9024
9024
9024
9024
4848
4788
2010
1860
0F80
ENDCHAR
STARTCHAR 25CF
ENCODING 9679
SWIDTH 960 0
DWIDTH 16 0
BBX 12 12 2 -1
BITMAP
0F00
3FC0
7FE0
FFF0
FFF0
FFF0
FFF0
FFF0
FFF0
7FE0
3FC0
1F80
ENDCHAR
STARTCHAR 25D0
ENCODING 9680
SWIDTH 960 0
DWIDTH 16 0
BBX 14 14 1 -2
BITMAP
0780
1E60
3E10
7E08
7E08
7E04
FE04
FE04
7E04
7E08
7E08
3E10
1E60
0380
ENDCHAR
STARTCHAR 25D1
ENCODING 9681
SWIDTH 960 0
DWIDTH 16 0
BBX 14 14 1 -2
BITMAP
0780
19E0
21F0
41F8
41F8
81F8
81FC
81FC
81F8
41F8
41F8
21F0
19E0
0700
ENDCHAR
STARTCHAR 25E6
ENCODING 9702
SWIDTH 960 0
DWIDTH 16 0
BBX 9 9 3 1
BITMAP
0C00
3300
4080
4080
8080
4080
4080
6180
3F00
ENDCHAR
STARTCHAR 25EF
ENCODING 9711
SWIDTH 960 0
DWIDTH 16 0
BBX 16 15 0 -2
BITMAP
03C0
0C30
1008
2004
4002
4002
8001
8001
8001
8001
4002
4002
2004
1008
0FF0
ENDCHAR
STARTCHAR 2605
ENCODING 9733
SWIDTH 960 0
DWIDTH 16 0
BBX 12 12 2 0
BITMAP
0400
0600
0600
0E00
FFF0
7FE0
1F80
1F80
1F80
39C0
30C0
4020
ENDCHAR
STARTCHAR 2606
ENCODING 9734
SWIDTH 960 0
DWIDTH 16 0
BBX 12 12 2 0
BITMAP
0400
0600
0600
0900
F9F0
4020
2040
1080
1680
2940
30C0
4020
ENDCHAR
STARTCHAR 260E
ENCODING 9742
SWIDTH 960 0
DWIDTH 16 0
BBX 14 10 1 0
BITMAP
3FF0
7FF8
ECDC
EFDC
C84C
1860
3070
7878
7CF8
7FF8
ENDCHAR
STARTCHAR 260F
ENCODING 9743
SWIDTH 960 0
DWIDTH 16 0
BBX 14 10 1 0
BITMAP
7FF0
9FEC
9CE4
9364
F4BC
1860
2850
4848
4488
7FF8
ENDCHAR
STARTCHAR 261C
ENCODING 9756
SWIDTH 960 0
DWIDTH 16 0
BBX 12 4 2 3
BITMAP
FFF0
1790
1E10
0FF0
ENDCHAR
STARTCHAR 261D
ENCODING 9757
SWIDTH 960 0
DWIDTH 16 0
BBX 4 12 6 -1
BITMAP
80
80
80
C0
B0
B0
F0
90
D0
90
90
F0
ENDCHAR
STARTCHAR 261E
ENCODING 9758
SWIDTH 960 0
DWIDTH 16 0
BBX 12 4 2 3
BITMAP
FFF0
9E80
8780
FF00
ENDCHAR
STARTCHAR 261F
ENCODING 9759
SWIDTH 960 0
DWIDTH 16 0
BBX 4 12 6 0
BITMAP
F0
F0
90
90
D0
90
F0
B0
E0
80
80
80
ENDCHAR
STARTCHAR 262F
ENCODING 9775
SWIDTH 960 0
DWIDTH 16 0
BBX 14 14 1 -2
BITMAP
0780
1860
2010
4008
4008
80F4
81FC
83FC
47F8
7FF8
7FF8
3FF0
1FE0
0300
ENDCHAR
STARTCHAR 2640
ENCODING 9792
SWIDTH 960 0
DWIDTH 16 0
BBX 10 14 3 -2
BITMAP
1E00
2200
2100
2100
2100
1E00
0800
0800
FFC0
0800
0800
0800
0800
0800
ENDCHAR
STARTCHAR 2642
ENCODING 9794
SWIDTH 960 0
DWIDTH 16 0
BBX 8 14 4 -2
BITMAP
10
18
34
52
91
10
10
10
3C
44
42
42
44
3C
ENDCHAR
STARTCHAR 2660
ENCODING 9824
SWIDTH 960 0
DWIDTH 16 0
BBX 12 14 2 -2
BITMAP
0600
0600
0F00
1F80
3FC0
3FC0
7FE0
7FE0
FFF0
7FE0
7FE0
0600
0F00
0F00
ENDCHAR
STARTCHAR 2661
ENCODING 9825
SWIDTH 960 0
DWIDTH 16 0
BBX 12 12 2 -2
BITMAP
79E0
8610
8610
8010
8010
4020
4020
2040
2040
1080
0900
0600
ENDCHAR
STARTCHAR 2663
ENCODING 9827
SWIDTH 960 0
DWIDTH 16 0
BBX 14 14 1 -2
BITMAP
0780
0FC0
0FC0
0FC0
0780
3730
7FF8
FFFC
FFFC
FFFC
7BF8
37B0
0780
0780
ENDCHAR
STARTCHAR 2664
ENCODING 9828
SWIDTH 960 0
DWIDTH 16 0
BBX 12 14 2 -2
BITMAP
0600
0600
0900
1080
2040
2040
4020
4020
8010
8010
7FE0
0600
0900
0F00
ENDCHAR
STARTCHAR 2665
ENCODING 9829
SWIDTH 960 0
DWIDTH 16 0
BBX 12 12 2 -2
BITMAP
79E0
FFF0
FFF0
FFF0
FFF0
7FE0
7FE0
3FC0
3FC0
1F80
0F00
0600
ENDCHAR
STARTCHAR 2667
ENCODING 9831
SWIDTH 960 0
DWIDTH 16 0
BBX 14 14 1 -2
BITMAP
0780
0840
0840
0840
0840
34B0
4CC8
8004
8004
8004
4EC8
34B0
0480
0780
ENDCHAR
STARTCHAR 2668
ENCODING 9832
SWIDTH 960 0
DWIDTH 16 0
BBX 14 14 1 -2
BITMAP
0100
0540
0B40
0A40
0A40
0B40
0D40
0D40
2D58
4B44
8A84
E298
7FF0
0FC0
ENDCHAR
STARTCHAR 2669
ENCODING 9833
SWIDTH 420 0
DWIDTH 7 0
BBX 3 12 2 -1
BITMAP
20
20
20
20
20
20
20
20
20
60
E0
C0
ENDCHAR
STARTCHAR 266A
ENCODING 9834
SWIDTH 540 0
DWIDTH 9 0
BBX 7 12 1 -1
BITMAP
10
10
1C
2C
22
22
22
22
24
60
E0
C0
ENDCHAR
STARTCHAR 266C
ENCODING 9836
SWIDTH 720 0
DWIDTH 12 0
BBX 10 12 1 -1
BITMAP
00C0
1FC0
1C40
23C0
1F40
1040
2040
2040
21C0
6180
E000
C000
ENDCHAR
STARTCHAR 266D
ENCODING 9837
SWIDTH 540 0
DWIDTH 9 0
BBX 5 11 2 0
BITMAP
80
80
80
80
F0
98
88
88
88
90
E0
ENDCHAR
STARTCHAR 266F
ENCODING 9839
SWIDTH 960 0
DWIDTH 16 0
BBX 8 13 4 -2
BITMAP
04
04
24
27
FE
24
24
24
25
FF
A4
24
24
ENDCHAR
STARTCHAR 2716
ENCODING 10006
SWIDTH 960 0
DWIDTH 16 0
BBX 12 12 2 -1
BITMAP
30C0
79E0
FFF0
FFF0
7FE0
3FC0
3FC0
7FE0
FFF0
FFF0
79E0
30C0
ENDCHAR
STARTCHAR 271A
ENCODING 10010
SWIDTH 960 0
DWIDTH 16 0
BBX 14 14 1 -2
BITMAP
0780
0780
0780
0780
0780
FFFC
FFFC
FFFC
FFFC
0780
0780
0780
0780
0780
ENDCHAR
STARTCHAR 273D
ENCODING 10045
SWIDTH 960 0
DWIDTH 16 0
BBX 8 9 4 0
BITMAP
18
18
99
D7
38
24
D3
99
18
ENDCHAR
STARTCHAR 2756
ENCODING 10070
SWIDTH 960 0
DWIDTH 16 0
BBX 12 12 2 -1
BITMAP
0600
0F00
0F00
2640
70E0
F9F0
F0F0
6660
0F00
1F80
0F00
0600
ENDCHAR
STARTCHAR 2776
ENCODING 10102
SWIDTH 960 0
DWIDTH 16 0
BBX 16 15 0 -2
BITMAP
0180
0FF0
1FF8
3F7C
7E7E
7F7E
7F7E
FF7F
FF7E
7F7E
7F7E
7F7E
3F7C
1FF8
0FF0
ENDCHAR
STARTCHAR 2777
ENCODING 10103
SWIDTH 960 0
DWIDTH 16 0
BBX 16 15 0 -2
BITMAP
0180
0FF0
1E78
3DDC
7BDE
7BDE
7FDE
FFBF
FF7E
7CFE
79FE
7BFE
381C
1FF8
0FF0
ENDCHAR
STARTCHAR 2778
ENCODING 10104
SWIDTH 960 0
DWIDTH 16 0
BBX 16 15 0 -2
BITMAP
0180
0FF0
1FF8
3DBC
7BDE
7BDE
7FDE
FE3F
FFDE
7FDE
7BFE
7BDE
3C3C
1FF8
0FF0
ENDCHAR
STARTCHAR 2779
ENCODING 10105
SWIDTH 960 0
DWIDTH 16 0
BBX 16 15 0 -2
BITMAP
0180
0FF0
1FF8
3F3C
7EBE
7EBE
7DBE
FBBF
FBBE
701E
7FBE
7FBE
3FBC
1FF8
0FF0
ENDCHAR
STARTCHAR 277A
ENCODING 10106
SWIDTH 960 0
DWIDTH 16 0
BBX 16 15 0 -2
BITMAP
0180
0FF0
1FF8
3C1C
7FFE
7BFE
7A3E
FBDF
FFDE
7FDE
7BDE
7BDE
3C3C
1FF8
0FF0
ENDCHAR
STARTCHAR 277B
ENCODING 10107
SWIDTH 960 0
DWIDTH 16 0
BBX 16 15 0 -2
BITMAP
0180
0FF0
1FF8
3CBC
7BDE
7BFE
7A7E
FD9F
FBDE
7BDE
7BDE
7BDE
3C3C
1FF8
0FF0
ENDCHAR
STARTCHAR 277C
ENCODING 10108
SWIDTH 960 0
DWIDTH 16 0
BBX 16 15 0 -2
BITMAP
0180
0FF0
1FF8
381C
7FDE
7FBE
7FFE
FF7F
FF7E
7EFE
7EFE
7EFE
3EFC
1FF8
0FF0
ENDCHAR
STARTCHAR 277D
ENCODING 10109
SWIDTH 960 0
DWIDTH 16 0
BBX 16 15 0 -2
BITMAP
0180
0FF0
1FF8
3C3C
7BDE
7BDE
7BDE
FE7F
FBDE
7BDE
7BDE
7BDE
3C3C
1FF8
0FF0
ENDCHAR
STARTCHAR 277E
ENCODING 10110
SWIDTH 960 0
DWIDTH 16 0
BBX 16 15 0 -2
BITMAP
0180
0FF0
1FF8
3DBC
7BDE
7BDE
7BDE
FBDF
FDBE
7FDE
7BDE
7BDE
3C3C
1FF8
0FF0
ENDCHAR
STARTCHAR 277F
ENCODING 10111
SWIDTH 960 0
DWIDTH 16 0
BBX 16 15 0 -2
BITMAP
0180
0FF0
1FF8
3B0C
7376
7AF6
7AF6
FAF7
FAF6
7AF6
7AF6
7B6E
3B8C
1FF8
0FF0
ENDCHAR
STARTCHAR 278A
ENCODING 10122
SWIDTH 960 0
DWIDTH 16 0
BBX 16 15 0 -2
BITMAP
0180
0FF0
1F78
3E7C
7C7E
7E7E
7E7E
FE7F
FE7E
7E7E
7E7E
7E7E
3E7C
1FF8
0FF0
ENDCHAR
STARTCHAR 278B
ENCODING 10123
SWIDTH 960 0
DWIDTH 16 0
BBX 16 15 0 -2
BITMAP
0180
0FF0
1E38
3C1C
799E
799E
7F3E
FF3F
FE7E
7E7E
7CFE
781E
381C
1FF8
0FF0
ENDCHAR
STARTCHAR 278C
ENCODING 10124
SWIDTH 960 0
DWIDTH 16 0
BBX 16 15 0 -2
BITMAP
0180
0FF0
1E78
3C3C
7DBE
79BE
7F3E
FE3F
FE3E
7F9E
799E
7DBE
3C3C
1FF8
0FF0
ENDCHAR
STARTCHAR 278D
ENCODING 10125
SWIDTH 960 0
DWIDTH 16 0
BBX 16 15 0 -2
BITMAP
0180
0FF0
1E78
3E7C
7E7E
7C7E
7D7E
F97F
FB7E
783E
783E
7F7E
3F7C
1FF8
0FF0
ENDCHAR
STARTCHAR 278E
ENCODING 10126
SWIDTH 960 0
DWIDTH 16 0
BBX 16 15 0 -2
BITMAP
0180
0FF0
1FF8
3C3C
7DFE
7DFE
7C3E
FC3F
FF9E
7F9E
799E
7DBE
3C3C
1FF8
0FF0
ENDCHAR
STARTCHAR 278F
ENCODING 10127
SWIDTH 960 0
DWIDTH 16 0
BBX 16 15 0 -2
BITMAP
0180
0FF0
1E78
3C3C
799E
799E
79FE
F83F
F99E
799E
799E
789E
3C3C
1FF8
0FF0
ENDCHAR
STARTCHAR 2790
ENCODING 10128
SWIDTH 960 0
DWIDTH 16 0
BBX 16 15 0 -2
BITMAP
0180
0FF0
1FF8
3C1C
7F9E
7F3E
7F3E
FF3F
FF3E
7E7E
7E7E
7E7E
3E7C
1FF8
0FF0
ENDCHAR
STARTCHAR 2791
ENCODING 10129
SWIDTH 960 0
DWIDTH 16 0
BBX 16 15 0 -2
BITMAP
0180
0FF0
1E78
3C3C
79BE
79BE
7DBE
FC3F
FC3E
799E
799E
799E
3C3C
1FF8
0FF0
ENDCHAR
STARTCHAR 2792
ENCODING 10130
SWIDTH 960 0
DWIDTH 16 0
BBX 16 15 0 -2
BITMAP
0180
0FF0
1E78
3C3C
799E
799E
799E
F81F
FC1E
7F9E
799E
7D9E
3C3C
1FF8
0FF0
ENDCHAR
STARTCHAR 2793
ENCODING 10131
SWIDTH 960 0
DWIDTH 16 0
BBX 16 15 0 -2
BITMAP
0180
0FF0
1FF8
3B0C
6326
7B66
7B66
FB67
FB66
7B66
7B66
7B2E
3B0C
1FF8
0FF0
ENDCHAR
STARTCHAR 2963
ENCODING 10595
SWIDTH 960 0
DWIDTH 16 0
BBX 14 16 1 -2
BITMAP
0480
0CC0
14A0
2490
4488
8484
0480
0480
0480
0480
0480
0480
0480
0480
0480
0480
ENDCHAR
STARTCHAR 2965
ENCODING 10597
SWIDTH 960 0
DWIDTH 16 0
BBX 14 17 1 -3
BITMAP
0480
0480
0480
0480
0480
0480
0480
0480
0480
0480
0484
8484
4488
2490
14A0
0CC0
0480
ENDCHAR
STARTCHAR 2AC5
ENCODING 10949
SWIDTH 960 0
DWIDTH 16 0
BBX 12 11 2 0
BITMAP
3FF0
4000
8000
8000
8000
8000
6000
1FE0
0000
7FE0
7FE0
ENDCHAR
STARTCHAR 2AC6
ENCODING 10950
SWIDTH 960 0
DWIDTH 16 0
BBX 12 11 2 0
BITMAP
FFC0
0020
0010
0010
0010
0010
0060
7F80
0000
FFE0
FFE0
ENDCHAR
STARTCHAR 2ACB
ENCODING 10955
SWIDTH 960 0
DWIDTH 16 0
BBX 12 12 2 -2
BITMAP
3FF0
4000
8000
8000
8000
8000
6000
1FE0
0200
7FE0
0400
7FE0
ENDCHAR
STARTCHAR 2ACC
ENCODING 10956
SWIDTH 960 0
DWIDTH 16 0
BBX 12 13 2 -2
BITMAP
FFC0
0020
0010
0010
0010
0010
0060
7F80
0200
FFE0
0400
FFE0
0400
ENDCHAR
STARTCHAR 2F00
ENCODING 12032
SWIDTH 960 0
DWIDTH 16 0
BBX 14 1 1 5
BITMAP
FFFC
ENDCHAR
STARTCHAR 2F04
ENCODING 12036
SWIDTH 960 0
DWIDTH 16 0
BBX 13 13 2 -1
BITMAP
FF80
0080
0100
0200
0400
0800
1800
3000
2000
4000
C008
C010
7FF0
ENDCHAR
STARTCHAR 2F06
ENCODING 12038
SWIDTH 960 0
DWIDTH 16 0
BBX 14 11 1 0
BITMAP
3FF0
0000
0000
0000
0000
0000
0000
0000
0000
0000
FFFC
ENDCHAR
STARTCHAR 2F08
ENCODING 12040
SWIDTH 960 0
DWIDTH 16 0
BBX 14 15 1 -2
BITMAP
0200
0200
0200
0200
0200
0300
0300
0300
0480
0480
0840
1860
3030
6018
C004
ENDCHAR
STARTCHAR 2F0A
ENCODING 12042
SWIDTH 960 0
DWIDTH 16 0
BBX 14 14 1 -2
BITMAP
1F00
0300
0300
0300
0300
0300
0300
0680
0480
0840
1860
3030
6018
C00C
ENDCHAR
STARTCHAR 2F0B
ENCODING 12043
SWIDTH 960 0
DWIDTH 16 0
BBX 14 14 1 -2
BITMAP
0FC0
0040
0840
0840
0840
0840
1060
1020
1020
2030
2010
6018
C00C
8004
ENDCHAR
STARTCHAR 2F11
ENCODING 12049
SWIDTH 960 0
DWIDTH 16 0
BBX 12 14 2 -2
BITMAP
FFF0
0810
0810
0810
0810
0810
0810
1830
1030
1020
2020
6020
C020
81E0
ENDCHAR
STARTCHAR 2F12
ENCODING 12050
SWIDTH 960 0
DWIDTH 16 0
BBX 12 15 2 -2
BITMAP
0400
0400
0400
0400
FFF0
0410
0410
0C10
0810
0830
1830
1020
2020
C220
81C0
ENDCHAR
STARTCHAR 2F14
ENCODING 12052
SWIDTH 960 0
DWIDTH 16 0
BBX 11 14 3 -1
BITMAP
8000
8000
80C0
8100
8600
9800
E000
8000
8000
8000
8020
8020
8020
7FC0
ENDCHAR
STARTCHAR 2F17
ENCODING 12055
SWIDTH 960 0
DWIDTH 16 0
BBX 14 15 1 -2
BITMAP
0300
0300
0300
0300
0300
FFFC
0300
0300
0300
0300
0300
0300
0300
0300
0300
ENDCHAR
STARTCHAR 2F18
ENCODING 12056
SWIDTH 960 0
DWIDTH 16 0
BBX 6 15 7 -2
BITMAP
80
80
80
80
80
C0
B0
98
84
80
80
80
80
80
80
ENDCHAR
STARTCHAR 2F1C
ENCODING 12060
SWIDTH 960 0
DWIDTH 16 0
BBX 14 14 1 -2
BITMAP
7FF0
1010
1010
1820
0820
0840
04C0
0680
0300
0300
06C0
1860
7038
C00C
ENDCHAR
STARTCHAR 2F1D
ENCODING 12061
SWIDTH 960 0
DWIDTH 16 0
BBX 10 12 3 -1
BITMAP
FFC0
8040
8040
8040
8040
8040
8040
8040
8040
FFC0
8040
8040
ENDCHAR
STARTCHAR 2F1F
ENCODING 12063
SWIDTH 960 0
DWIDTH 16 0
BBX 14 14 1 -1
BITMAP
0300
0300
0300
0300
0300
7FF8
0300
0300
0300
0300
0300
0300
0300
FFFC
ENDCHAR
STARTCHAR 2F20
ENCODING 12064
SWIDTH 960 0
DWIDTH 16 0
BBX 14 14 1 -1
BITMAP
0200
0200
0200
0200
0200
FFFC
0200
0200
0200
0200
0200
0200
0200
7FF8
ENDCHAR
STARTCHAR 2F23
ENCODING 12067
SWIDTH 960 0
DWIDTH 16 0
BBX 11 15 2 -2
BITMAP
0C00
0800
0FE0
1020
1020
2040
5840
CC80
8280
0100
0200
0400
1800
7000
C000
ENDCHAR
STARTCHAR 2F24
ENCODING 12068
SWIDTH 960 0
DWIDTH 16 0
BBX 14 15 1 -2
BITMAP
0200
0200
0200
0200
FFFC
0300
0300
0300
0480
04C0
0840
1820
3010
6008
8004
ENDCHAR
STARTCHAR 2F25
ENCODING 12069
SWIDTH 960 0
DWIDTH 16 0
BBX 14 15 1 -2
BITMAP
0400
0400
0400
0400
FFFC
0820
0840
1040
10C0
1C80
0300
03C0
0670
3818
4008
ENDCHAR
STARTCHAR 2F26
ENCODING 12070
SWIDTH 960 0
DWIDTH 16 0
BBX 14 14 1 -2
BITMAP
3FF0
0020
0040
0080
0300
0200
FFFC
0200
0200
0200
0200
0200
0200
0E00
ENDCHAR
STARTCHAR 2F28
ENCODING 12072
SWIDTH 960 0
DWIDTH 16 0
BBX 12 15 2 -2
BITMAP
0080
0080
0080
0080
FFF0
0080
2080
2080
1080
1080
0880
0080
0080
0080
0380
ENDCHAR
STARTCHAR 2F29
ENCODING 12073
SWIDTH 960 0
DWIDTH 16 0
BBX 14 15 1 -2
BITMAP
0300
0300
0300
1320
1320
1320
2310
2310
2310
4308
430C
8304
0300
0300
0E00
ENDCHAR
STARTCHAR 2F2B
ENCODING 12075
SWIDTH 960 0
DWIDTH 16 0
BBX 13 14 1 -2
BITMAP
3FF8
2008
2008
2008
3FF8
2000
2000
2000
2000
6000
4000
4000
4000
8000
ENDCHAR
STARTCHAR 2F2D
ENCODING 12077
SWIDTH 960 0
DWIDTH 16 0
BBX 12 15 2 -2
BITMAP
0600
0600
0600
8610
8610
8610
8610
8610
8610
8610
8610
8610
8610
FFF0
8010
ENDCHAR
STARTCHAR 2F2F
ENCODING 12079
SWIDTH 960 0
DWIDTH 16 0
BBX 14 13 1 -1
BITMAP
7FF8
0200
0200
0200
0200
0200
0200
0200
0200
0200
0200
0200
FFFC
ENDCHAR
STARTCHAR 2F30
ENCODING 12080
SWIDTH 960 0
DWIDTH 16 0
BBX 13 13 2 -1
BITMAP
FFE0
0020
0020
0020
0020
FFE0
8020
8000
8000
8000
8018
C010
7FF0
ENDCHAR
STARTCHAR 2F31
ENCODING 12081
SWIDTH 960 0
DWIDTH 16 0
BBX 12 15 2 -2
BITMAP
0400
0400
0400
FFF0
C430
C430
C430
C430
C430
C430
C430
C430
C4E0
0400
0400
ENDCHAR
STARTCHAR 2F32
ENCODING 12082
SWIDTH 960 0
DWIDTH 16 0
BBX 14 14 1 -2
BITMAP
7FF0
0200
0200
0200
0200
0200
FFFC
0200
0200
0200
0200
0200
0200
0200
ENDCHAR
STARTCHAR 2F38
ENCODING 12088
SWIDTH 960 0
DWIDTH 16 0
BBX 12 14 2 -2
BITMAP
7FE0
0020
0020
7FE0
4000
4000
4000
C000
FFF0
8010
0010
0010
0020
01E0
ENDCHAR
STARTCHAR 2F3C
ENCODING 12092
SWIDTH 960 0
DWIDTH 16 0
BBX 14 15 1 -2
BITMAP
0400
0700
0180
0100
0800
0830
2810
6818
4808
480C
4804
8800
0810
0830
0FE0
ENDCHAR
STARTCHAR 2F3D
ENCODING 12093
SWIDTH 960 0
DWIDTH 16 0
BBX 14 15 1 -2
BITMAP
0400
04C0
0460
0400
05FC
FE00
0210
0230
0260
01C0
0380
0684
1C88
7048
C038
ENDCHAR
STARTCHAR 2F3E
ENCODING 12094
SWIDTH 960 0
DWIDTH 16 0
BBX 13 15 1 -2
BITMAP
0038
3FC0
2000
2000
3FF8
2008
2008
2008
3FF8
2008
4000
4000
4000
C000
8000
ENDCHAR
STARTCHAR 2F3F
ENCODING 12095
SWIDTH 960 0
DWIDTH 16 0
BBX 14 15 1 -2
BITMAP
0070
7FC0
0300
0300
0300
7FF8
0300
0300
FFFC
0300
0300
0300
0300
0300
0E00
ENDCHAR
STARTCHAR 2F40
ENCODING 12096
SWIDTH 960 0
DWIDTH 16 0
BBX 14 16 1 -2
BITMAP
0200
0200
0200
FFFC
0200
0200
0200
7FF0
1020
0860
0C40
0680
0300
0F80
3870
E00C
ENDCHAR
STARTCHAR 2F42
ENCODING 12098
SWIDTH 960 0
DWIDTH 16 0
BBX 14 15 1 -2
BITMAP
0200
0200
0200
FFFC
1020
1060
0840
0840
0C80
0580
0300
0780
0CC0
3070
C018
ENDCHAR
STARTCHAR 2F43
ENCODING 12099
SWIDTH 960 0
DWIDTH 16 0
BBX 14 15 1 -2
BITMAP
0040
0840
0C40
0240
0040
3040
0840
0040
007C
0FE0
F040
0040
0040
0040
0040
ENDCHAR
STARTCHAR 2F44
ENCODING 12100
SWIDTH 960 0
DWIDTH 16 0
BBX 13 15 1 -2
BITMAP
0070
3F80
2000
2000
2000
3FF8
2080
2080
2080
6080
4080
4080
4080
C080
8080
ENDCHAR
STARTCHAR 2F45
ENCODING 12101
SWIDTH 960 0
DWIDTH 16 0
BBX 14 15 1 -2
BITMAP
0200
0200
0200
FFFC
0800
0800
0FF0
0810
0810
0810
1010
1010
2010
4020
81E0
ENDCHAR
STARTCHAR 2F46
ENCODING 12102
SWIDTH 960 0
DWIDTH 16 0
BBX 14 14 1 -2
BITMAP
7FF8
0200
0200
0200
0200
FFF8
0300
0700
0500
0D00
0900
3104
610C
C0F8
ENDCHAR
STARTCHAR 2F47
ENCODING 12103
SWIDTH 960 0
DWIDTH 16 0
BBX 10 14 3 -2
BITMAP
FFC0
8040
8040
8040
8040
8040
FFC0
8040
8040
8040
8040
8040
FFC0
8040
ENDCHAR
STARTCHAR 2F48
ENCODING 12104
SWIDTH 960 0
DWIDTH 16 0
BBX 12 14 2 -2
BITMAP
FFF0
8010
8010
8010
8010
8010
FFF0
8010
8010
8010
8010
FFF0
8010
8010
ENDCHAR
STARTCHAR 2F49
ENCODING 12105
SWIDTH 960 0
DWIDTH 16 0
BBX 11 14 2 -2
BITMAP
3FE0
2020
2020
2020
3FE0
2020
2020
3FE0
6020
4020
4020
4020
8020
81E0
ENDCHAR
STARTCHAR 2F4A
ENCODING 12106
SWIDTH 960 0
DWIDTH 16 0
BBX 14 15 1 -2
BITMAP
0200
0200
0200
FFF8
0300
0780
0E80
0A40
1220
2230
4218
8204
0200
0200
0200
ENDCHAR
STARTCHAR 2F4B
ENCODING 12107
SWIDTH 960 0
DWIDTH 16 0
BBX 14 15 1 -2
BITMAP
0800
0800
1800
1FF8
3210
2210
6330
4300
0300
0780
0480
0840
1020
6018
C00C
ENDCHAR
STARTCHAR 2F4C
ENCODING 12108
SWIDTH 960 0
DWIDTH 16 0
BBX 14 14 1 -1
BITMAP
0100
0100
0100
0100
1100
11F8
1100
1100
1100
1100
1100
1100
1100
FFFC
ENDCHAR
STARTCHAR 2F4F
ENCODING 12111
SWIDTH 960 0
DWIDTH 16 0
BBX 14 13 1 -1
BITMAP
1FF0
3110
2110
2310
2210
FFFC
2210
2210
2210
6230
7FF8
4020
00E0
ENDCHAR
STARTCHAR 2F50
ENCODING 12112
SWIDTH 960 0
DWIDTH 16 0
BBX 14 15 1 -2
BITMAP
2080
2080
2080
208C
2098
3EA0
20C0
2080
2080
2080
2080
2080
2684
3884
C0F8
ENDCHAR
STARTCHAR 2F51
ENCODING 12113
SWIDTH 960 0
DWIDTH 16 0
BBX 14 15 1 -2
BITMAP
0020
07C0
7E00
0200
0238
0FC0
7A00
023C
0FC0
F200
0200
0200
0204
0208
03F8
ENDCHAR
STARTCHAR 2F52
ENCODING 12114
SWIDTH 960 0
DWIDTH 16 0
BBX 14 15 1 -2
BITMAP
0010
03E0
3D00
2100
2100
2080
3FFC
2080
2080
2080
2040
2040
2764
3C24
C018
ENDCHAR
STARTCHAR 2F54
ENCODING 12116
SWIDTH 960 0
DWIDTH 16 0
BBX 13 15 1 -2
BITMAP
0300
0300
0300
0300
FB18
0B30
0BE0
1BC0
1340
3360
6330
4318
8308
0300
0E00
ENDCHAR
STARTCHAR 2F55
ENCODING 12117
SWIDTH 960 0
DWIDTH 16 0
BBX 14 15 1 -2
BITMAP
0200
0200
0200
1218
2210
2310
6320
4320
0700
0480
0CC0
1840
3030
6018
C00C
ENDCHAR
STARTCHAR 2F56
ENCODING 12118
SWIDTH 960 0
DWIDTH 16 0
BBX 14 15 1 -2
BITMAP
0030
3FE0
2220
2220
2220
2220
2220
2230
2210
2210
2210
6218
4208
C20C
8204
ENDCHAR
STARTCHAR 2F57
ENCODING 12119
SWIDTH 960 0
DWIDTH 16 0
BBX 14 15 1 -2
BITMAP
0840
0860
1018
6808
5820
1040
2840
28C0
0480
0300
0300
0780
0CC0
7030
C00C
ENDCHAR
STARTCHAR 2F58
ENCODING 12120
SWIDTH 960 0
DWIDTH 16 0
BBX 14 15 1 -2
BITMAP
0010
6020
1CC0
0780
3870
6818
1020
3860
2840
0480
0300
0380
0CC0
3878
C00C
ENDCHAR
STARTCHAR 2F5A
ENCODING 12122
SWIDTH 960 0
DWIDTH 16 0
BBX 14 15 1 -2
BITMAP
0080
2080
2080
2080
3FFC
2000
2000
2000
3FC0
2040
2040
6040
4040
C040
8040
ENDCHAR
STARTCHAR 2F5B
ENCODING 12123
SWIDTH 960 0
DWIDTH 16 0
BBX 14 14 1 -2
BITMAP
7FF8
1040
1040
1040
1040
FFFC
00C0
01C0
0340
0E40
1C40
7040
E040
01C0
ENDCHAR
STARTCHAR 2F5C
ENCODING 12124
SWIDTH 960 0
DWIDTH 16 0
BBX 14 15 1 -2
BITMAP
1100
1100
1100
3FF8
2100
4100
4100
0100
FFFC
0100
0100
0100
0100
0100
0100
ENDCHAR
STARTCHAR 2F5D
ENCODING 12125
SWIDTH 960 0
DWIDTH 16 0
BBX 14 15 1 -2
BITMAP
0200
0240
0230
0210
0200
FFFC
0300
0300
0480
0480
0840
1820
3030
6018
8004
ENDCHAR
STARTCHAR 2F5E
ENCODING 12126
SWIDTH 960 0
DWIDTH 16 0
BBX 14 15 1 -2
BITMAP
0300
0300
FFFC
0200
0400
0440
2840
3880
0D00
0700
0220
0430
0810
FFF8
FF0C
ENDCHAR
STARTCHAR 2F5F
ENCODING 12127
SWIDTH 960 0
DWIDTH 16 0
BBX 14 13 1 -1
BITMAP
7FF8
0200
0200
0200
0200
3FF0
0200
0240
0260
0220
0220
0200
FFFC
ENDCHAR
STARTCHAR 2F60
ENCODING 12128
SWIDTH 960 0
DWIDTH 16 0
BBX 14 15 1 -2
BITMAP
0070
3FA0
2220
2220
2220
2220
2220
2220
2230
2210
2290
6250
43C8
DE2C
8024
ENDCHAR
STARTCHAR 2F61
ENCODING 12129
SWIDTH 960 0
DWIDTH 16 0
BBX 14 14 1 -2
BITMAP
FFF8
0800
0800
0FE0
1860
1040
1440
1240
1240
1140
1040
11C4
1E44
E078
ENDCHAR
STARTCHAR 2F62
ENCODING 12130
SWIDTH 960 0
DWIDTH 16 0
BBX 12 15 2 -2
BITMAP
2040
2040
2040
FFF0
2040
2040
2040
3FC0
2040
2040
2040
2040
2040
3FC0
2040
ENDCHAR
STARTCHAR 2F63
ENCODING 12131
SWIDTH 960 0
DWIDTH 16 0
BBX 14 14 1 -1
BITMAP
1200
3200
2200
3FF8
6200
4200
C200
0200
3FF0
0200
0200
0200
0200
FFFC
ENDCHAR
STARTCHAR 2F64
ENCODING 12132
SWIDTH 960 0
DWIDTH 16 0
BBX 13 14 1 -2
BITMAP
3FF8
2108
2108
2108
3FF8
2108
2108
2108
3FF8
6108
4108
4108
C108
8138
ENDCHAR
STARTCHAR 2F65
ENCODING 12133
SWIDTH 960 0
DWIDTH 16 0
BBX 12 14 2 -2
BITMAP
FFF0
8410
8410
8410
8410
8410
FFF0
8410
8410
8410
8410
8410
FFF0
8010
ENDCHAR
STARTCHAR 2F66
ENCODING 12134
SWIDTH 960 0
DWIDTH 16 0
BBX 14 14 1 -2
BITMAP
7FF8
0108
0118
0110
1100
1100
11F8
1100
3100
3100
2900
4700
41FC
8000
ENDCHAR
STARTCHAR 2F69
ENCODING 12137
SWIDTH 960 0
DWIDTH 16 0
BBX 10 15 3 -2
BITMAP
0800
0800
0800
FFC0
8040
8040
8040
8040
FFC0
8040
8040
8040
8040
FFC0
8040
ENDCHAR
STARTCHAR 2F6A
ENCODING 12138
SWIDTH 960 0
DWIDTH 16 0
BBX 14 15 1 -2
BITMAP
0100
0100
3FFC
2108
2108
2100
3FF0
2810
2420
2660
6340
4180
43C0
CE30
B00C
ENDCHAR
STARTCHAR 2F6B
ENCODING 12139
SWIDTH 960 0
DWIDTH 16 0
BBX 14 12 1 -1
BITMAP
7FF8
4488
4488
4488
4488
4488
4488
4488
4488
4488
4488
FFFC
ENDCHAR
STARTCHAR 2F6C
ENCODING 12140
SWIDTH 960 0
DWIDTH 16 0
BBX 10 14 3 -2
BITMAP
FFC0
8040
8040
8040
FFC0
8040
8040
8040
FFC0
8040
8040
8040
FFC0
8040
ENDCHAR
STARTCHAR 2F6D
ENCODING 12141
SWIDTH 960 0
DWIDTH 16 0
BBX 13 14 1 -2
BITMAP
7FE0
0060
04C0
0780
0100
FFF8
0318
0510
0960
3100
6100
8100
0100
0600
ENDCHAR
STARTCHAR 2F6E
ENCODING 12142
SWIDTH 960 0
DWIDTH 16 0
BBX 14 15 1 -2
BITMAP
1800
1000
3FF8
2200
4200
4200
0200
FFFC
0300
0300
0480
0C40
1820
6018
C00C
ENDCHAR
STARTCHAR 2F6F
ENCODING 12143
SWIDTH 960 0
DWIDTH 16 0
BBX 14 14 1 -2
BITMAP
FFFC
0400
0800
0800
1800
1000
3FF0
3010
5010
9010
1010
1010
1FF0
1010
ENDCHAR
STARTCHAR 2F70
ENCODING 12144
SWIDTH 960 0
DWIDTH 16 0
BBX 13 14 1 -2
BITMAP
3FF0
0000
0000
0000
FFF8
0100
0120
1120
1130
2110
2118
4108
C108
0700
ENDCHAR
STARTCHAR 2F72
ENCODING 12146
SWIDTH 960 0
DWIDTH 16 0
BBX 14 15 1 -2
BITMAP
0070
3FC0
0300
0300
0300
FFFC
0300
0780
0B40
1360
3330
4318
8304
0300
0300
ENDCHAR
STARTCHAR 2F73
ENCODING 12147
SWIDTH 960 0
DWIDTH 16 0
BBX 14 15 1 -2
BITMAP
0300
0300
7FF8
4008
4008
4FC8
0040
0840
0840
1820
1020
3010
2018
400C
8004
ENDCHAR
STARTCHAR 2F74
ENCODING 12148
SWIDTH 960 0
DWIDTH 16 0
BBX 14 14 1 -1
BITMAP
0300
0300
0300
7FF8
0000
1020
1020
1040
0840
0840
0840
0880
0080
FFFC
ENDCHAR
STARTCHAR 2F75
ENCODING 12149
SWIDTH 960 0
DWIDTH 16 0
BBX 14 15 1 -2
BITMAP
1040
20C0
2080
3EFC
5930
5930
9A30
1830
1830
1830
1830
1830
1830
1830
18E0
ENDCHAR
STARTCHAR 2F76
ENCODING 12150
SWIDTH 960 0
DWIDTH 16 0
BBX 14 15 1 -2
BITMAP
0300
2310
3310
1320
0B20
0300
FFFC
0300
0680
0EC0
1B60
3330
6318
830C
0300
ENDCHAR
STARTCHAR 2F78
ENCODING 12152
SWIDTH 960 0
DWIDTH 16 0
BBX 14 15 1 -2
BITMAP
1800
1000
3FF8
6200
4200
0200
0200
FFFC
0200
2218
2218
2218
2218
3FF8
2018
ENDCHAR
STARTCHAR 2F7A
ENCODING 12154
SWIDTH 960 0
DWIDTH 16 0
BBX 14 15 1 -2
BITMAP
1040
0840
0C80
7FF8
0200
0200
7FF0
0200
0200
0200
FFFC
0200
0200
0200
0200
ENDCHAR
STARTCHAR 2F7B
ENCODING 12155
SWIDTH 960 0
DWIDTH 16 0
BBX 12 14 2 -2
BITMAP
FFF0
0C30
1C70
34D0
6510
C610
8C10
1430
24D0
C510
8610
0410
0410
3870
ENDCHAR
STARTCHAR 2F7C
ENCODING 12156
SWIDTH 960 0
DWIDTH 16 0
BBX 14 14 1 -1
BITMAP
0200
0218
3FD0
0220
0240
FFFC
0300
0600
1830
79E0
CF00
0808
0808
0FF8
ENDCHAR
STARTCHAR 2F7D
ENCODING 12157
SWIDTH 960 0
DWIDTH 16 0
BBX 14 14 1 -2
BITMAP
FFFC
0200
0200
7FF8
4488
4488
4488
4488
4488
4488
4488
4488
4488
4038
ENDCHAR
STARTCHAR 2F7F
ENCODING 12159
SWIDTH 960 0
DWIDTH 16 0
BBX 14 14 1 -2
BITMAP
7FF8
1020
1020
1FE0
1020
1020
1020
1FE0
1020
1020
FFFC
0020
0020
0020
ENDCHAR
STARTCHAR 2F80
ENCODING 12160
SWIDTH 960 0
DWIDTH 16 0
BBX 14 15 1 -2
BITMAP
0200
0200
3FF0
0210
FFFC
0210
3FF0
0200
0200
7FF8
0200
FFFC
0200
0200
0200
ENDCHAR
STARTCHAR 2F81
ENCODING 12161
SWIDTH 960 0
DWIDTH 16 0
BBX 12 15 2 -2
BITMAP
0400
0400
0400
FFF0
8610
8710
8990
9450
A610
8710
8990
9050
A010
8010
8070
ENDCHAR
STARTCHAR 2F82
ENCODING 12162
SWIDTH 960 0
DWIDTH 16 0
BBX 13 14 2 -2
BITMAP
FFF0
8600
8600
8600
FFE0
8020
8020
8020
FFE0
8600
8600
8600
FFF8
8000
ENDCHAR
STARTCHAR 2F83
ENCODING 12163
SWIDTH 960 0
DWIDTH 16 0
BBX 10 15 3 -2
BITMAP
0800
0800
FFC0
8040
8040
8040
FFC0
8040
8040
FFC0
8040
8040
8040
FFC0
8040
ENDCHAR
STARTCHAR 2F84
ENCODING 12164
SWIDTH 960 0
DWIDTH 16 0
BBX 14 13 1 -1
BITMAP
7FF8
0400
0840
0820
11F0
7E18
0200
0200
7FF0
0200
0200
0200
FFFC
ENDCHAR
STARTCHAR 2F85
ENCODING 12165
SWIDTH 960 0
DWIDTH 16 0
BBX 12 14 2 -2
BITMAP
0C00
F3F0
8010
8010
8010
8010
FBF0
8010
8010
8010
8010
FFF0
8010
8010
ENDCHAR
STARTCHAR 2F86
ENCODING 12166
SWIDTH 960 0
DWIDTH 16 0
BBX 14 15 1 -2
BITMAP
0070
7F80
0200
0200
FFFC
0200
0200
0200
3FF0
2010
2010
2010
2010
3FF0
2010
ENDCHAR
STARTCHAR 2F87
ENCODING 12167
SWIDTH 960 0
DWIDTH 16 0
BBX 14 15 1 -2
BITMAP
1030
2030
2030
3DF8
2530
4530
4530
ED30
9930
0930
1BFC
3030
2030
4030
8030
ENDCHAR
STARTCHAR 2F88
ENCODING 12168
SWIDTH 960 0
DWIDTH 16 0
BBX 14 15 1 -2
BITMAP
0200
0200
1FE0
1220
1220
1120
1120
FFFC
1220
1220
2220
2220
2220
6020
40E0
ENDCHAR
STARTCHAR 2F89
ENCODING 12169
SWIDTH 960 0
DWIDTH 16 0
BBX 14 14 1 -2
BITMAP
3FF0
2010
2010
3FF0
2010
2010
3FF0
2200
2218
2120
20C0
2060
2738
F80C
ENDCHAR
STARTCHAR 2F8A
ENCODING 12170
SWIDTH 960 0
DWIDTH 16 0
BBX 13 15 1 -2
BITMAP
0C00
0FC0
10C0
1080
2100
7FF0
A310
2310
2310
3FF0
2000
2008
2008
2008
3FF8
ENDCHAR
STARTCHAR 2F8B
ENCODING 12171
SWIDTH 960 0
DWIDTH 16 0
BBX 14 15 1 -2
BITMAP
1020
1020
9524
9524
9524
9524
9524
9524
9524
FDFC
9120
3020
2020
4020
8020
ENDCHAR
STARTCHAR 2F8E
ENCODING 12174
SWIDTH 960 0
DWIDTH 16 0
BBX 14 14 1 -1
BITMAP
0200
0200
3FF0
2490
2490
2490
2490
2490
2490
2490
2490
2490
2490
FFFC
ENDCHAR
STARTCHAR 2F8F
ENCODING 12175
SWIDTH 960 0
DWIDTH 16 0
BBX 14 15 1 -2
BITMAP
0800
11F8
2000
4000
8800
17FC
1030
2030
6030
A030
2030
2030
2030
2030
20E0
ENDCHAR
STARTCHAR 2F90
ENCODING 12176
SWIDTH 960 0
DWIDTH 16 0
BBX 14 15 1 -2
BITMAP
0200
0200
FFFC
0300
0700
0508
0898
18B0
38C0
4840
8820
0830
0990
0E08
7004
ENDCHAR
STARTCHAR 2F92
ENCODING 12178
SWIDTH 960 0
DWIDTH 16 0
BBX 14 14 1 -2
BITMAP
3FF0
2010
2010
3FF0
2010
3FF0
2010
2010
3FF0
0480
0C80
0884
3084
C0F8
ENDCHAR
STARTCHAR 2F93
ENCODING 12179
SWIDTH 960 0
DWIDTH 16 0
BBX 13 15 1 -2
BITMAP
0800
0FC0
10C0
6080
7FF8
2118
2118
3FF8
2118
2118
3FF8
2018
6018
4018
8070
ENDCHAR
STARTCHAR 2F94
ENCODING 12180
SWIDTH 960 0
DWIDTH 16 0
BBX 14 15 1 -2
BITMAP
1FF0
0000
FFFC
0000
0000
3FF0
0000
3FF0
0000
3FF0
2010
2010
2010
3FF0
2010
ENDCHAR
STARTCHAR 2F95
ENCODING 12181
SWIDTH 960 0
DWIDTH 16 0
BBX 14 15 1 -2
BITMAP
0480
0840
1020
6318
4708
0480
0840
1020
7FF8
D02C
1020
1020
1020
1FE0
1020
ENDCHAR
STARTCHAR 2F96
ENCODING 12182
SWIDTH 960 0
DWIDTH 16 0
BBX 14 13 1 -1
BITMAP
7FF8
0000
0000
3FF0
2010
2010
2010
3FF0
0840
0840
0840
0480
FFFC
ENDCHAR
STARTCHAR 2F97
ENCODING 12183
SWIDTH 960 0
DWIDTH 16 0
BBX 13 14 1 -2
BITMAP
7FF8
0380
0480
1C88
3290
C6A0
0D40
3140
4360
0520
1910
3108
4108
0700
ENDCHAR
STARTCHAR 2F99
ENCODING 12185
SWIDTH 960 0
DWIDTH 16 0
BBX 14 14 1 -2
BITMAP
3FF0
2010
2010
3FF0
2010
2010
3FF0
2010
2010
3FF0
0840
1860
6018
C00C
ENDCHAR
STARTCHAR 2F9A
ENCODING 12186
SWIDTH 960 0
DWIDTH 16 0
BBX 14 15 1 -2
BITMAP
0200
0200
7FF8
0200
0200
0200
7FF8
0480
24A0
2490
6490
4888
8884
3080
2380
ENDCHAR
STARTCHAR 2F9B
ENCODING 12187
SWIDTH 960 0
DWIDTH 16 0
BBX 14 15 1 -2
BITMAP
0200
0200
3FF0
0200
0200
0200
7FF8
0200
1200
13F0
1200
3200
2E00
43FC
8000
ENDCHAR
STARTCHAR 2F9C
ENCODING 12188
SWIDTH 960 0
DWIDTH 16 0
BBX 14 14 1 -2
BITMAP
3FF0
2010
2010
2010
3FF0
0300
1300
1300
33F8
2300
3300
7B00
CF04
83FC
ENDCHAR
STARTCHAR 2F9D
ENCODING 12189
SWIDTH 960 0
DWIDTH 16 0
BBX 14 15 1 -2
BITMAP
0200
0200
3FE0
3020
3FE0
3020
3020
3FEC
3038
31E0
FEE0
01A0
0620
3820
C0E0
ENDCHAR
STARTCHAR 2F9E
ENCODING 12190
SWIDTH 960 0
DWIDTH 16 0
BBX 14 15 1 -2
BITMAP
0200
0200
7FF8
0200
3FF0
2210
3FF0
2210
2210
3FF0
0200
FFFC
0200
0200
0200
ENDCHAR
STARTCHAR 2F9F
ENCODING 12191
SWIDTH 960 0
DWIDTH 16 0
BBX 14 15 1 -2
BITMAP
0300
0300
7FF8
1060
0840
0840
FFFC
0300
0300
0300
7FF8
0300
0300
0300
0300
ENDCHAR
STARTCHAR 2FA0
ENCODING 12192
SWIDTH 960 0
DWIDTH 16 0
BBX 13 14 1 -2
BITMAP
3FF8
2000
2000
2FF0
2000
2000
3FF8
2508
24B0
64E0
4440
4420
4598
9E08
ENDCHAR
STARTCHAR 2FA2
ENCODING 12194
SWIDTH 960 0
DWIDTH 16 0
BBX 13 14 2 -1
BITMAP
7FE0
4060
4060
7FE0
0000
FFE0
8420
8420
FFE0
8000
8000
8008
C018
7FF0
ENDCHAR
STARTCHAR 2FA3
ENCODING 12195
SWIDTH 960 0
DWIDTH 16 0
BBX 14 14 1 -2
BITMAP
FFFC
0500
0500
3FF0
2510
2510
2930
38F0
3010
3FF0
2010
2010
3FF0
2010
ENDCHAR
STARTCHAR 2FA5
ENCODING 12197
SWIDTH 960 0
DWIDTH 16 0
BBX 14 13 1 -1
BITMAP
3FF0
2210
2210
3FF0
2210
2210
3FF0
0200
0200
7FF8
0200
0200
FFFC
ENDCHAR
STARTCHAR 2FA6
ENCODING 12198
SWIDTH 960 0
DWIDTH 16 0
BBX 14 14 1 -1
BITMAP
0300
0780
0CC0
1860
6018
DFEC
0300
0300
3FF0
1320
1320
1B60
0B40
FFFC
ENDCHAR
STARTCHAR 2FA7
ENCODING 12199
SWIDTH 960 0
DWIDTH 16 0
BBX 14 15 1 -2
BITMAP
3FF0
3000
3FF0
3000
3000
3FF0
3000
FFFC
3210
3110
3160
30C0
3040
3730
780C
ENDCHAR
STARTCHAR 2FA8
ENCODING 12200
SWIDTH 960 0
DWIDTH 16 0
BBX 12 15 2 -2
BITMAP
FBF0
8B10
FBF0
8B10
8B10
FBF0
8010
8010
8010
8010
8010
8010
8010
8010
8070
ENDCHAR
STARTCHAR 2FA9
ENCODING 12201
SWIDTH 960 0
DWIDTH 16 0
BBX 14 15 1 -2
BITMAP
0200
0200
3FF0
2010
3FF0
2000
3FF0
2010
2010
3FF0
0300
FFFC
0300
0300
0300
ENDCHAR
STARTCHAR 2FAC
ENCODING 12204
SWIDTH 960 0
DWIDTH 16 0
BBX 14 14 1 -2
BITMAP
FFFC
0200
0200
7FF8
4208
5288
4A68
4628
5288
4A48
4628
4208
4208
4238
ENDCHAR
STARTCHAR 2FAD
ENCODING 12205
SWIDTH 960 0
DWIDTH 16 0
BBX 14 15 1 -2
BITMAP
0300
7FF8
0300
3FF0
0300
FFFC
0000
3FF0
2210
2210
3FF0
2010
2010
2010
20F0
ENDCHAR
STARTCHAR 2FAE
ENCODING 12206
SWIDTH 960 0
DWIDTH 16 0
BBX 14 15 1 -2
BITMAP
0480
0480
0480
FCFC
0480
0480
7CF8
0480
0480
3C80
C8FC
0880
1080
3080
4080
ENDCHAR
STARTCHAR 2FAF
ENCODING 12207
SWIDTH 960 0
DWIDTH 16 0
BBX 14 14 1 -2
BITMAP
FFFC
0200
0200
7FF8
4488
4488
4788
4488
4488
4788
4488
4488
7FF8
4008
ENDCHAR
STARTCHAR 2FB0
ENCODING 12208
SWIDTH 960 0
DWIDTH 16 0
BBX 14 15 1 -2
BITMAP
0840
FFFC
0840
0840
0FC0
0200
3FF0
2210
2210
3FF0
0200
FFFC
0200
0200
0200
ENDCHAR
STARTCHAR 2FB1
ENCODING 12209
SWIDTH 960 0
DWIDTH 16 0
BBX 14 15 1 -2
BITMAP
0400
3FE0
0420
7FF8
0000
3FF0
2010
2010
3FF0
0100
7FF8
1100
FFFC
0100
0100
ENDCHAR
STARTCHAR 2FB3
ENCODING 12211
SWIDTH 960 0
DWIDTH 16 0
BBX 14 15 1 -2
BITMAP
0200
0200
7FF8
1020
0840
0840
FFFC
0000
3FF0
2010
3FF0
2010
2010
3FF0
2010
ENDCHAR
STARTCHAR 2FB4
ENCODING 12212
SWIDTH 960 0
DWIDTH 16 0
BBX 14 15 1 -2
BITMAP
7FF8
0200
0200
3FF0
2010
3FF0
2010
2010
3FF0
2010
2010
3FF0
08C0
3030
C00C
ENDCHAR
STARTCHAR 2FB5
ENCODING 12213
SWIDTH 960 0
DWIDTH 16 0
BBX 14 14 1 -2
BITMAP
7FF0
4010
41D0
5E10
4210
5FD0
5250
5250
5FD0
4250
4254
43D4
9E2C
802C
ENDCHAR
STARTCHAR 2FB6
ENCODING 12214
SWIDTH 960 0
DWIDTH 16 0
BBX 14 15 1 -2
BITMAP
7FC8
0050
1A50
F250
1248
1220
1234
FFDC
1248
2250
2250
2268
2220
4234
821C
ENDCHAR
STARTCHAR 2FB7
ENCODING 12215
SWIDTH 960 0
DWIDTH 16 0
BBX 14 15 1 -2
BITMAP
0300
0680
0860
1FF8
600C
9FE0
1020
1FE0
1020
1FE0
1218
11B0
10C0
1F30
700C
ENDCHAR
STARTCHAR 2FB8
ENCODING 12216
SWIDTH 960 0
DWIDTH 16 0
BBX 14 15 1 -2
BITMAP
1840
0840
FFFC
0200
0200
3FF0
2010
2010
3FF0
2010
3FF0
2010
2010
3FF0
2010
ENDCHAR
STARTCHAR 2FB9
ENCODING 12217
SWIDTH 960 0
DWIDTH 16 0
BBX 14 15 1 -2
BITMAP
0070
3F80
0300
FFFC
0780
0EC0
1A60
6218
FFFC
2010
2010
3FF0
2010
3FF0
2010
ENDCHAR
STARTCHAR 2FBA
ENCODING 12218
SWIDTH 960 0
DWIDTH 16 0
BBX 13 15 1 -2
BITMAP
3FF8
2300
2300
3FF0
2300
2300
3FF0
2300
3FF8
0008
4148
4928
4928
4908
C038
ENDCHAR
STARTCHAR 2FBB
ENCODING 12219
SWIDTH 960 0
DWIDTH 16 0
BBX 14 15 1 -2
BITMAP
1FE0
1020
13E0
1220
FFFC
8004
9FE4
9024
1020
1FE0
1020
1FE0
1020
1020
10E0
ENDCHAR
STARTCHAR 2FBC
ENCODING 12220
SWIDTH 960 0
DWIDTH 16 0
BBX 14 15 1 -2
BITMAP
0200
FFFC
0000
1FE0
1020
1FE0
0000
7FF8
4008
4FC8
4848
4848
4FC8
4008
4038
ENDCHAR
STARTCHAR 2FC1
ENCODING 12225
SWIDTH 960 0
DWIDTH 16 0
BBX 14 15 1 -2
BITMAP
0200
0200
3FF0
2210
3FF0
2210
2210
3FF0
0900
0920
0950
1950
31EC
6104
C1F8
ENDCHAR
STARTCHAR 2FC2
ENCODING 12226
SWIDTH 960 0
DWIDTH 16 0
BBX 14 15 1 -2
BITMAP
0800
0800
1F80
3100
3FF0
6110
A110
3FF0
2110
2110
3FF0
2490
2488
4448
4444
ENDCHAR
STARTCHAR 2FC3
ENCODING 12227
SWIDTH 960 0
DWIDTH 16 0
BBX 14 15 1 -2
BITMAP
0200
0400
3FE0
2020
3FE0
2020
3FE0
2000
3FFC
2000
3FF8
6248
4928
4908
8838
ENDCHAR
STARTCHAR 2FC4
ENCODING 12228
SWIDTH 960 0
DWIDTH 16 0
BBX 12 15 2 -2
BITMAP
0400
0400
07F0
0400
FFF0
8490
B290
8910
E6D0
A750
88D0
9450
A210
FFF0
8010
ENDCHAR
STARTCHAR 2FC5
ENCODING 12229
SWIDTH 960 0
DWIDTH 16 0
BBX 14 15 1 -2
BITMAP
0100
7FFC
4000
4480
7FF8
4488
4488
7FF8
48C0
48D8
4FF0
48C0
C8C4
8FC4
B878
ENDCHAR
STARTCHAR 2FC6
ENCODING 12230
SWIDTH 960 0
DWIDTH 16 0
BBX 14 15 1 -2
BITMAP
0200
FFFC
0220
1220
1360
2ED8
4A48
3230
C60C
0FE0
3C20
62C0
0380
1C60
701C
ENDCHAR
STARTCHAR 2FC7
ENCODING 12231
SWIDTH 960 0
DWIDTH 16 0
BBX 14 15 1 -2
BITMAP
0100
7FFC
4000
4820
4820
5EF8
4820
5AB0
5AB0
5AB0
5AB0
5AB4
E8BC
A920
8820
ENDCHAR
STARTCHAR 2FC8
ENCODING 12232
SWIDTH 960 0
DWIDTH 16 0
BBX 14 15 1 -2
BITMAP
0840
7FF8
0840
0FC0
0000
FFFC
0200
3FF0
2210
3FF0
2210
3FF0
0840
3030
C00C
ENDCHAR
STARTCHAR 2FC9
ENCODING 12233
SWIDTH 960 0
DWIDTH 16 0
BBX 14 15 1 -2
BITMAP
0070
3F80
0200
7FF8
0780
1AC0
7230
C78C
0EC0
7230
CB2C
0EC0
3A30
620C
0600
ENDCHAR
STARTCHAR 2FCA
ENCODING 12234
SWIDTH 960 0
DWIDTH 16 0
BBX 14 14 1 -2
BITMAP
3FF0
3B30
2B50
27D0
3FF0
0300
7FF8
0300
0300
FFFC
2010
4488
4488
8444
ENDCHAR
STARTCHAR 2FCD
ENCODING 12237
SWIDTH 960 0
DWIDTH 16 0
BBX 14 15 1 -2
BITMAP
1FC0
5848
5FC8
5848
5FC8
5848
5FC8
4008
7CF8
0480
FCFC
2490
2490
4490
8490
ENDCHAR
STARTCHAR 2FCE
ENCODING 12238
SWIDTH 960 0
DWIDTH 16 0
BBX 14 15 1 -2
BITMAP
1020
FE20
1020
11FC
FC20
0020
7DF8
4488
7C88
0090
4850
2860
2ED0
3988
C204
ENDCHAR
STARTCHAR 2FCF
ENCODING 12239
SWIDTH 960 0
DWIDTH 16 0
BBX 14 15 1 -2
BITMAP
0400
79F8
4008
7DF8
4008
7FF8
0000
5290
4A50
4210
5290
4A50
4214
7BD4
E308
ENDCHAR
STARTCHAR 2FD0
ENCODING 12240
SWIDTH 960 0
DWIDTH 16 0
BBX 14 15 1 -2
BITMAP
0200
3FF0
2010
3FF0
3FF0
3FF0
0000
7FF8
7FF8
4208
7FF8
F87C
1FC0
3840
6040
ENDCHAR
STARTCHAR 2FD1
ENCODING 12241
SWIDTH 960 0
DWIDTH 16 0
BBX 14 15 1 -2
BITMAP
0200
FFFC
0480
FB38
2950
4A48
5A78
82C4
2010
3FF0
2010
3FF0
2010
4010
4010
ENDCHAR
STARTCHAR 2FD2
ENCODING 12242
SWIDTH 960 0
DWIDTH 16 0
BBX 14 15 1 -2
BITMAP
0100
11F8
1100
FFFC
0000
4848
4CC8
5328
7FF8
4048
4848
4CE8
5728
7FF8
4008
ENDCHAR
STARTCHAR 2FD3
ENCODING 12243
SWIDTH 960 0
DWIDTH 16 0
BBX 14 15 1 -2
BITMAP
1080
FEFC
4480
2CF8
2808
FE08
00F8
7C80
44F8
7CF8
4480
7CF8
4480
4484
4CFC
ENDCHAR
STARTCHAR 2FD4
ENCODING 12244
SWIDTH 960 0
DWIDTH 16 0
BBX 14 15 1 -2
BITMAP
0C00
1FC0
6080
FFF8
3CF8
0480
7480
FCF8
14D8
74A8
74D8
FCF8
1480
7484
03F8
ENDCHAR
STARTCHAR 3000
ENCODING 12288
SWIDTH 960 0
DWIDTH 16 0
BBX 0 0 0 0
BITMAP
ENDCHAR
STARTCHAR 3001
ENCODING 12289
SWIDTH 960 0
DWIDTH 16 0
BBX 3 3 1 -3
BITMAP
80
60
20
ENDCHAR
STARTCHAR 3002
ENCODING 12290
SWIDTH 960 0
DWIDTH 16 0
BBX 3 4 1 -3
BITMAP
E0
A0
A0
E0
ENDCHAR
STARTCHAR 3003
ENCODING 12291
SWIDTH 960 0
DWIDTH 16 0
BBX 7 6 4 2
BITMAP
36
24
24
48
48
90
ENDCHAR
STARTCHAR 3008
ENCODING 12296
SWIDTH 480 0
DWIDTH 8 0
BBX 6 14 1 -2
BITMAP
04
08
10
10
20
40
80
80
40
20
10
10
08
04
ENDCHAR
STARTCHAR 3009
ENCODING 12297
SWIDTH 480 0
DWIDTH 8 0
BBX 6 14 1 -2
BITMAP
80
40
20
20
10
08
04
04
08
10
20
20
40
80
ENDCHAR
STARTCHAR 300A
ENCODING 12298
SWIDTH 480 0
DWIDTH 8 0
BBX 6 16 1 -3
BITMAP
0C
14
18
28
50
50
A0
C0
C0
A0
50
50
28
18
14
0C
ENDCHAR
STARTCHAR 300B
ENCODING 12299
SWIDTH 480 0
DWIDTH 8 0
BBX 6 16 1 -3
BITMAP
C0
A0
60
50
30
28
14
14
14
14
28
30
50
60
A0
C0
ENDCHAR
STARTCHAR 300C
ENCODING 12300
SWIDTH 360 0
DWIDTH 6 0
BBX 4 7 1 5
BITMAP
F0
80
80
80
80
80
80
ENDCHAR
STARTCHAR 300D
ENCODING 12301
SWIDTH 360 0
DWIDTH 6 0
BBX 4 7 1 -2
BITMAP
10
10
10
10
10
10
F0
ENDCHAR
STARTCHAR 300E
ENCODING 12302
SWIDTH 360 0
DWIDTH 6 0
BBX 4 7 1 5
BITMAP
F0
90
B0
C0
C0
C0
C0
ENDCHAR
STARTCHAR 300F
ENCODING 12303
SWIDTH 360 0
DWIDTH 6 0
BBX 4 7 1 -2
BITMAP
30
30
30
30
D0
90
F0
ENDCHAR
STARTCHAR 3010
ENCODING 12304
SWIDTH 360 0
DWIDTH 6 0
BBX 5 15 0 -2
BITMAP
F8
F0
E0
E0
C0
C0
C0
C0
C0
C0
C0
E0
E0
F0
F8
ENDCHAR
STARTCHAR 3011
ENCODING 12305
SWIDTH 420 0
DWIDTH 7 0
BBX 5 15 1 -2
BITMAP
F8
78
38
18
18
18
18
18
18
18
18
18
38
78
F8
ENDCHAR
STARTCHAR 3012
ENCODING 12306
SWIDTH 960 0
DWIDTH 16 0
BBX 14 14 1 -2
BITMAP
FFFC
FFFC
0000
0000
FFFC
FFFC
0300
0300
0300
0300
0300
0300
0300
0300
ENDCHAR
STARTCHAR 3013
ENCODING 12307
SWIDTH 960 0
DWIDTH 16 0
BBX 12 4 2 3
BITMAP
FFF0
0000
0000
FFF0
ENDCHAR
STARTCHAR 3014
ENCODING 12308
SWIDTH 360 0
DWIDTH 6 0
BBX 4 15 1 -2
BITMAP
10
60
80
80
80
80
80
80
80
80
80
80
80
60
10
ENDCHAR
STARTCHAR 3015
ENCODING 12309
SWIDTH 360 0
DWIDTH 6 0
BBX 4 15 1 -2
BITMAP
80
60
10
10
10
10
10
10
10
10
10
10
10
60
80
ENDCHAR
STARTCHAR 3016
ENCODING 12310
SWIDTH 420 0
DWIDTH 7 0
BBX 5 14 1 -2
BITMAP
F0
90
90
A0
A0
A0
A0
A0
A0
A0
A0
90
90
F8
ENDCHAR
STARTCHAR 3017
ENCODING 12311
SWIDTH 420 0
DWIDTH 7 0
BBX 5 14 1 -2
BITMAP
F8
48
48
48
28
28
28
28
28
28
48
48
48
F8
ENDCHAR
STARTCHAR 3018
ENCODING 12312
SWIDTH 420 0
DWIDTH 7 0
BBX 5 15 1 -3
BITMAP
18
68
B0
C0
80
80
80
80
80
80
80
80
C0
F0
38
ENDCHAR
STARTCHAR 3019
ENCODING 12313
SWIDTH 420 0
DWIDTH 7 0
BBX 5 16 1 -3
BITMAP
C0
A0
78
18
18
18
18
18
18
18
18
18
18
70
E0
80
ENDCHAR
STARTCHAR 301C
ENCODING 12316
SWIDTH 960 0
DWIDTH 16 0
BBX 10 4 3 3
BITMAP
3000
4840
8480
0300
ENDCHAR
STARTCHAR 301E
ENCODING 12318
SWIDTH 420 0
DWIDTH 7 0
BBX 6 4 0 8
BITMAP
2C
48
50
80
ENDCHAR
STARTCHAR 301F
ENCODING 12319
SWIDTH 420 0
DWIDTH 7 0
BBX 5 4 1 -2
BITMAP
48
90
90
20
ENDCHAR
STARTCHAR 3020
ENCODING 12320
SWIDTH 960 0
DWIDTH 16 0
BBX 12 11 2 0
BITMAP
0800
0600
1DC0
C3B0
9260
9200
8280
5010
4F90
2070
1F80
ENDCHAR
STARTCHAR 3036
ENCODING 12342
SWIDTH 960 0
DWIDTH 16 0
BBX 16 15 0 -2
BITMAP
03C0
0C30
1008
2004
5FFA
4002
8001
9FF9
8181
8181
4182
4182
2184
1188
0FF0
ENDCHAR
STARTCHAR 3041
ENCODING 12353
SWIDTH 960 0
DWIDTH 16 0
BBX 10 11 3 -1
BITMAP
0800
1000
7E00
1000
1200
1F80
7480
54C0
98C0
B880
4300
ENDCHAR
STARTCHAR 3042
ENCODING 12354
SWIDTH 960 0
DWIDTH 16 0
BBX 12 13 2 -1
BITMAP
0C00
0880
7F80
0800
0980
0FC0
1960
6A30
4A30
8C30
8C20
7460
01C0
ENDCHAR
STARTCHAR 3043
ENCODING 12355
SWIDTH 960 0
DWIDTH 16 0
BBX 10 7 3 1
BITMAP
8100
8100
8080
8080
4040
4800
3000
ENDCHAR
STARTCHAR 3044
ENCODING 12356
SWIDTH 960 0
DWIDTH 16 0
BBX 12 10 2 0
BITMAP
8000
8000
8040
8060
8020
8030
4030
4800
7800
3000
ENDCHAR
STARTCHAR 3045
ENCODING 12357
SWIDTH 960 0
DWIDTH 16 0
BBX 6 11 5 -1
BITMAP
20
18
00
18
E4
84
04
04
04
08
10
ENDCHAR
STARTCHAR 3046
ENCODING 12358
SWIDTH 960 0
DWIDTH 16 0
BBX 8 14 4 -2
BITMAP
10
0E
04
00
3E
E3
41
01
01
03
02
06
0C
08
ENDCHAR
STARTCHAR 3047
ENCODING 12359
SWIDTH 960 0
DWIDTH 16 0
BBX 8 11 4 -1
BITMAP
10
18
00
18
E8
10
30
38
48
8C
07
ENDCHAR
STARTCHAR 3048
ENCODING 12360
SWIDTH 960 0
DWIDTH 16 0
BBX 12 12 2 0
BITMAP
0700
0300
0000
0E00
3300
0600
0C00
0E00
1A00
3200
6300
C1F0
ENDCHAR
STARTCHAR 3049
ENCODING 12361
SWIDTH 960 0
DWIDTH 16 0
BBX 10 10 3 -1
BITMAP
1000
1180
7840
1000
1F00
2180
5080
9080
9100
6200
ENDCHAR
STARTCHAR 304A
ENCODING 12362
SWIDTH 960 0
DWIDTH 16 0
BBX 12 12 2 -1
BITMAP
1000
1040
1C20
7010
1000
1780
38C0
7060
D060
9060
90C0
7180
ENDCHAR
STARTCHAR 304B
ENCODING 12363
SWIDTH 960 0
DWIDTH 16 0
BBX 12 12 2 -1
BITMAP
0800
1800
1A40
FF20
9110
3110
2100
6100
4100
4300
C600
8E00
ENDCHAR
STARTCHAR 304C
ENCODING 12364
SWIDTH 960 0
DWIDTH 16 0
BBX 14 13 1 -1
BITMAP
0008
0C14
0800
0A60
FF30
5890
1098
1080
3180
2100
6100
4300
4600
ENDCHAR
STARTCHAR 304D
ENCODING 12365
SWIDTH 960 0
DWIDTH 16 0
BBX 8 14 4 -2
BITMAP
20
34
F8
18
0F
7C
C4
06
7B
C7
80
80
E0
3C
ENDCHAR
STARTCHAR 304E
ENCODING 12366
SWIDTH 960 0
DWIDTH 16 0
BBX 11 14 2 -1
BITMAP
10A0
1640
7C00
4800
0F80
3E00
6600
0300
3D00
4380
C000
C000
7000
1C00
ENDCHAR
STARTCHAR 304F
ENCODING 12367
SWIDTH 960 0
DWIDTH 16 0
BBX 6 13 5 -2
BITMAP
08
18
10
30
60
C0
80
40
60
30
18
08
0C
ENDCHAR
STARTCHAR 3050
ENCODING 12368
SWIDTH 960 0
DWIDTH 16 0
BBX 10 13 3 -2
BITMAP
0800
0800
1080
3140
2100
4000
C000
4000
2000
3000
1800
0800
0C00
ENDCHAR
STARTCHAR 3051
ENCODING 12369
SWIDTH 960 0
DWIDTH 16 0
BBX 12 13 2 -2
BITMAP
0080
6080
4080
40F0
C7C0
8080
8080
8080
A080
E080
4180
4100
4300
ENDCHAR
STARTCHAR 3052
ENCODING 12370
SWIDTH 960 0
DWIDTH 16 0
BBX 14 14 1 -2
BITMAP
0108
4194
4180
C0A0
CFE0
8080
8080
8180
A180
A180
C100
4300
0600
0200
ENDCHAR
STARTCHAR 3053
ENCODING 12371
SWIDTH 960 0
DWIDTH 16 0
BBX 10 10 3 0
BITMAP
3F00
0000
0000
0000
0000
0000
0000
8000
C040
7FC0
ENDCHAR
STARTCHAR 3054
ENCODING 12372
SWIDTH 960 0
DWIDTH 16 0
BBX 12 12 2 0
BITMAP
0020
0050
7F20
0100
0000
0000
0000
0000
8000
8000
8000
7F80
ENDCHAR
STARTCHAR 3055
ENCODING 12373
SWIDTH 960 0
DWIDTH 16 0
BBX 8 14 4 -2
BITMAP
30
10
1B
7E
C8
04
06
12
EF
83
80
C0
7C
0C
ENDCHAR
STARTCHAR 3056
ENCODING 12374
SWIDTH 960 0
DWIDTH 16 0
BBX 12 15 2 -2
BITMAP
0020
1090
1840
0B00
3F00
6400
0400
0200
0300
7F00
C100
C000
C000
7C00
0C00
ENDCHAR
STARTCHAR 3057
ENCODING 12375
SWIDTH 960 0
DWIDTH 16 0
BBX 8 14 4 -2
BITMAP
80
80
80
80
80
80
80
80
80
81
81
83
4C
30
ENDCHAR
STARTCHAR 3058
ENCODING 12376
SWIDTH 960 0
DWIDTH 16 0
BBX 8 14 4 -2
BITMAP
80
81
85
80
80
80
80
80
80
81
81
83
6C
10
ENDCHAR
STARTCHAR 3059
ENCODING 12377
SWIDTH 960 0
DWIDTH 16 0
BBX 12 14 2 -2
BITMAP
0200
0200
03F0
FFF0
0200
0E00
1200
3200
3300
1E00
0200
0600
0C00
0800
ENDCHAR
STARTCHAR 305A
ENCODING 12378
SWIDTH 960 0
DWIDTH 16 0
BBX 13 15 2 -2
BITMAP
0010
0628
0620
0600
FFE0
0600
1C00
3400
2600
2600
3E00
0400
0C00
1800
1000
ENDCHAR
STARTCHAR 305B
ENCODING 12379
SWIDTH 960 0
DWIDTH 16 0
BBX 13 12 2 -1
BITMAP
0080
1080
1080
1080
7FF8
9080
1080
1280
1100
1000
1840
0FC0
ENDCHAR
STARTCHAR 305C
ENCODING 12380
SWIDTH 960 0
DWIDTH 16 0
BBX 14 12 1 -1
BITMAP
0094
1094
1080
1080
3FF8
D080
1080
1280
1100
1000
1840
07C0
ENDCHAR
STARTCHAR 305D
ENCODING 12381
SWIDTH 960 0
DWIDTH 16 0
BBX 9 14 3 -2
BITMAP
4E00
7A00
0400
0800
1000
2780
7F80
C600
0C00
1800
1800
1800
0F80
0300
ENDCHAR
STARTCHAR 305E
ENCODING 12382
SWIDTH 960 0
DWIDTH 16 0
BBX 12 14 2 -2
BITMAP
1E00
7A20
0450
1820
3000
6780
FF80
8C00
0800
1000
1000
1800
0F00
0700
ENDCHAR
STARTCHAR 305F
ENCODING 12383
SWIDTH 960 0
DWIDTH 16 0
BBX 12 13 2 -1
BITMAP
1000
1800
1800
1E00
7000
1000
13E0
3000
2000
2000
6000
4410
C7F0
ENDCHAR
STARTCHAR 3060
ENCODING 12384
SWIDTH 960 0
DWIDTH 16 0
BBX 12 12 2 0
BITMAP
1020
1050
1C20
F000
2000
23C0
2000
6000
4000
4000
C820
87E0
ENDCHAR
STARTCHAR 3061
ENCODING 12385
SWIDTH 960 0
DWIDTH 16 0
BBX 10 14 3 -2
BITMAP
1000
1000
1100
FF00
1000
1000
3000
3700
38C0
1040
0040
00C0
0780
0400
ENDCHAR
STARTCHAR 3062
ENCODING 12386
SWIDTH 960 0
DWIDTH 16 0
BBX 12 14 2 -2
BITMAP
1020
1050
1100
FF00
1000
1000
1000
3300
3CC0
1040
0040
00C0
0780
0400
ENDCHAR
STARTCHAR 3063
ENCODING 12387
SWIDTH 960 0
DWIDTH 16 0
BBX 10 7 3 0
BITMAP
1F80
E0C0
0040
0040
0080
0180
0600
ENDCHAR
STARTCHAR 3064
ENCODING 12388
SWIDTH 960 0
DWIDTH 16 0
BBX 12 9 2 0
BITMAP
0FC0
F820
C010
0010
0010
0030
0060
01C0
0300
ENDCHAR
STARTCHAR 3065
ENCODING 12389
SWIDTH 960 0
DWIDTH 16 0
BBX 14 12 1 0
BITMAP
0008
0014
0008
07C0
7C60
E010
0010
0010
0030
0060
01C0
0380
ENDCHAR
STARTCHAR 3066
ENCODING 12390
SWIDTH 960 0
DWIDTH 16 0
BBX 11 12 3 -1
BITMAP
0040
3FE0
E300
0600
0C00
0800
0800
0800
0C00
0600
0380
0180
ENDCHAR
STARTCHAR 3067
ENCODING 12391
SWIDTH 960 0
DWIDTH 16 0
BBX 13 12 2 -1
BITMAP
0040
3FC0
E200
0410
0C28
0820
0800
0800
0C00
0600
0380
0180
ENDCHAR
STARTCHAR 3068
ENCODING 12392
SWIDTH 960 0
DWIDTH 16 0
BBX 8 12 4 -1
BITMAP
60
60
60
27
3C
30
40
80
80
80
C0
7F
ENDCHAR
STARTCHAR 3069
ENCODING 12393
SWIDTH 960 0
DWIDTH 16 0
BBX 11 12 2 0
BITMAP
20A0
2040
2000
2300
3E00
3000
6000
4000
C000
8000
4080
3F80
ENDCHAR
STARTCHAR 306A
ENCODING 12394
SWIDTH 960 0
DWIDTH 16 0
BBX 11 14 3 -2
BITMAP
1000
1000
3400
FCC0
2060
6200
4200
C200
8200
8700
1BC0
1240
1200
0C00
ENDCHAR
STARTCHAR 306B
ENCODING 12395
SWIDTH 960 0
DWIDTH 16 0
BBX 12 12 2 -1
BITMAP
4000
4080
47E0
4000
4000
C000
C000
D000
6000
6670
63E0
6000
ENDCHAR
STARTCHAR 306C
ENCODING 12396
SWIDTH 960 0
DWIDTH 16 0
BBX 13 12 1 -1
BITMAP
0200
0200
4200
3FC0
3630
6410
5410
DC18
88F0
DD38
7138
00C0
ENDCHAR
STARTCHAR 306D
ENCODING 12397
SWIDTH 960 0
DWIDTH 16 0
BBX 14 13 1 -1
BITMAP
1000
1000
1000
18E0
FB70
1430
3810
3010
7010
51F0
5338
136C
11C0
ENDCHAR
STARTCHAR 306E
ENCODING 12398
SWIDTH 960 0
DWIDTH 16 0
BBX 12 10 2 0
BITMAP
0F80
3260
4230
C430
8410
8C10
8830
9830
7060
20C0
ENDCHAR
STARTCHAR 306F
ENCODING 12399
SWIDTH 960 0
DWIDTH 16 0
BBX 12 12 2 -1
BITMAP
4180
4180
C1E0
8FC0
8180
8180
8180
A180
A7C0
C9F0
C990
4F00
ENDCHAR
STARTCHAR 3070
ENCODING 12400
SWIDTH 960 0
DWIDTH 16 0
BBX 13 13 1 0
BITMAP
0028
4090
4080
40A0
4FE0
C080
C080
8080
8080
E7C0
6CB0
4890
6780
ENDCHAR
STARTCHAR 3071
ENCODING 12401
SWIDTH 960 0
DWIDTH 16 0
BBX 14 14 1 -1
BITMAP
0018
0024
409C
4080
40A0
4FE0
4080
C080
8080
8080
63C0
6CB0
6890
6780
ENDCHAR
STARTCHAR 3072
ENCODING 12402
SWIDTH 960 0
DWIDTH 16 0
BBX 12 12 2 -1
BITMAP
1080
F0C0
20C0
20E0
40B0
4080
4080
4080
4180
4100
6300
3E00
ENDCHAR
STARTCHAR 3073
ENCODING 12403
SWIDTH 960 0
DWIDTH 16 0
BBX 14 15 1 -2
BITMAP
0008
0014
1090
F0C0
30C0
20A0
60B0
4080
4080
4080
4080
4100
6300
3E00
0800
ENDCHAR
STARTCHAR 3074
ENCODING 12404
SWIDTH 960 0
DWIDTH 16 0
BBX 14 15 1 -2
BITMAP
0018
0014
10DC
F0C0
30E0
20E0
20F0
4080
4080
4080
4080
4100
6100
3E00
0800
ENDCHAR
STARTCHAR 3075
ENCODING 12405
SWIDTH 960 0
DWIDTH 16 0
BBX 12 12 2 0
BITMAP
0E00
0300
0400
0000
0800
0600
0300
8320
B190
E190
4180
0F00
ENDCHAR
STARTCHAR 3076
ENCODING 12406
SWIDTH 960 0
DWIDTH 16 0
BBX 12 13 2 -1
BITMAP
0010
0E20
0220
0400
0000
0800
0600
0200
8320
B110
E190
4180
0F00
ENDCHAR
STARTCHAR 3077
ENCODING 12407
SWIDTH 960 0
DWIDTH 16 0
BBX 13 14 2 -1
BITMAP
0030
0048
0E48
0330
0400
0000
0800
0600
0200
8320
B110
E190
4180
0F00
ENDCHAR
STARTCHAR 3078
ENCODING 12408
SWIDTH 960 0
DWIDTH 16 0
BBX 14 6 1 2
BITMAP
0C00
3200
6180
C0E0
0038
000C
ENDCHAR
STARTCHAR 3079
ENCODING 12409
SWIDTH 960 0
DWIDTH 16 0
BBX 14 8 1 2
BITMAP
0010
0028
0C10
1200
2180
C0C0
4038
001C
ENDCHAR
STARTCHAR 307A
ENCODING 12410
SWIDTH 960 0
DWIDTH 16 0
BBX 14 8 1 2
BITMAP
0038
0028
0C30
1200
2180
C0C0
4038
001C
ENDCHAR
STARTCHAR 307B
ENCODING 12411
SWIDTH 960 0
DWIDTH 16 0
BBX 12 12 2 -1
BITMAP
4FC0
C100
C100
8120
8FE0
8100
8100
A100
A7C0
C9F0
C990
4F00
ENDCHAR
STARTCHAR 307C
ENCODING 12412
SWIDTH 960 0
DWIDTH 16 0
BBX 14 12 1 -1
BITMAP
47C8
4104
C110
8120
8FE0
8100
8180
A180
A7C0
C9F0
4990
4F00
ENDCHAR
STARTCHAR 307D
ENCODING 12413
SWIDTH 960 0
DWIDTH 16 0
BBX 14 12 1 -1
BITMAP
4FDC
4114
C11C
8120
8FE0
8100
8100
A180
A7C0
C9F0
4990
4F00
ENDCHAR
STARTCHAR 307E
ENCODING 12414
SWIDTH 960 0
DWIDTH 16 0
BBX 10 14 3 -2
BITMAP
0800
0800
0B80
FF00
0800
0800
7F00
0800
0800
3C00
6B00
89C0
C800
3000
ENDCHAR
STARTCHAR 307F
ENCODING 12415
SWIDTH 960 0
DWIDTH 16 0
BBX 12 12 2 -1
BITMAP
0C00
3E00
0400
0440
0840
1E40
73C0
90E0
B0B0
A190
E100
0100
ENDCHAR
STARTCHAR 3080
ENCODING 12416
SWIDTH 960 0
DWIDTH 16 0
BBX 12 13 2 -2
BITMAP
1000
1200
7E20
1010
1000
7000
9000
9000
9000
F020
1060
18C0
0700
ENDCHAR
STARTCHAR 3081
ENCODING 12417
SWIDTH 960 0
DWIDTH 16 0
BBX 12 12 2 -1
BITMAP
0200
0200
4600
7FC0
6470
6430
A810
9810
9810
B830
E4E0
00C0
ENDCHAR
STARTCHAR 3082
ENCODING 12418
SWIDTH 960 0
DWIDTH 16 0
BBX 10 14 3 -2
BITMAP
1000
1800
1800
7C00
1000
1000
9000
7C00
3080
30C0
30C0
3080
1980
0E00
ENDCHAR
STARTCHAR 3083
ENCODING 12419
SWIDTH 960 0
DWIDTH 16 0
BBX 10 10 3 -1
BITMAP
0800
4400
47C0
3A40
6040
90C0
1380
1800
0800
0800
ENDCHAR
STARTCHAR 3084
ENCODING 12420
SWIDTH 960 0
DWIDTH 16 0
BBX 13 13 2 -1
BITMAP
0600
4200
63F0
2F10
3998
F018
D030
18E0
0800
0C00
0400
0600
0400
ENDCHAR
STARTCHAR 3085
ENCODING 12421
SWIDTH 960 0
DWIDTH 16 0
BBX 10 10 3 -2
BITMAP
0600
4200
CF80
D280
A2C0
C2C0
C480
4F00
0400
0C00
ENDCHAR
STARTCHAR 3086
ENCODING 12422
SWIDTH 960 0
DWIDTH 16 0
BBX 12 14 2 -2
BITMAP
0100
4100
4380
CFE0
D920
F130
A130
C130
C120
C7E0
4380
0600
0600
0400
ENDCHAR
STARTCHAR 3087
ENCODING 12423
SWIDTH 960 0
DWIDTH 16 0
BBX 7 10 4 -1
BITMAP
10
10
1E
10
10
10
38
D6
92
70
ENDCHAR
STARTCHAR 3088
ENCODING 12424
SWIDTH 960 0
DWIDTH 16 0
BBX 10 12 3 -1
BITMAP
0800
0800
0980
0F00
0800
0800
0800
0800
3E00
CB80
88C0
7800
ENDCHAR
STARTCHAR 3089
ENCODING 12425
SWIDTH 960 0
DWIDTH 16 0
BBX 8 14 4 -2
BITMAP
20
30
10
00
C0
C0
80
9C
E3
81
01
03
3E
10
ENDCHAR
STARTCHAR 308A
ENCODING 12426
SWIDTH 960 0
DWIDTH 16 0
BBX 8 12 4 -2
BITMAP
42
43
C1
81
A1
E3
C3
C2
02
06
04
0C
ENDCHAR
STARTCHAR 308B
ENCODING 12427
SWIDTH 960 0
DWIDTH 16 0
BBX 10 14 3 -2
BITMAP
0200
3E00
0400
0C00
0800
1700
3980
60C0
C040
0C40
16C0
1380
1F00
0400
ENDCHAR
STARTCHAR 308C
ENCODING 12428
SWIDTH 960 0
DWIDTH 16 0
BBX 14 12 1 -1
BITMAP
1000
1000
1880
7BC0
1460
3840
3040
3040
5040
D04C
1048
1070
ENDCHAR
STARTCHAR 308D
ENCODING 12429
SWIDTH 960 0
DWIDTH 16 0
BBX 10 12 3 -1
BITMAP
3E00
2400
0C00
0800
1600
3980
60C0
C040
0040
00C0
0180
0700
ENDCHAR
STARTCHAR 308E
ENCODING 12430
SWIDTH 960 0
DWIDTH 16 0
BBX 10 10 3 -1
BITMAP
2000
3000
7700
A880
3040
6040
6040
A080
2180
2000
ENDCHAR
STARTCHAR 308F
ENCODING 12431
SWIDTH 960 0
DWIDTH 16 0
BBX 12 12 2 0
BITMAP
1000
1000
1800
FBE0
9C60
3030
3010
5010
5030
9030
10E0
10C0
ENDCHAR
STARTCHAR 3090
ENCODING 12432
SWIDTH 960 0
DWIDTH 16 0
BBX 12 12 2 -1
BITMAP
0F00
1200
0200
0400
0FC0
3C60
6830
4810
9130
92B0
F460
63C0
ENDCHAR
STARTCHAR 3091
ENCODING 12433
SWIDTH 960 0
DWIDTH 16 0
BBX 12 14 2 -2
BITMAP
0100
1F00
0200
0500
0EC0
3040
2440
0A40
0780
0800
3180
7A60
C430
0420
ENDCHAR
STARTCHAR 3092
ENCODING 12434
SWIDTH 960 0
DWIDTH 16 0
BBX 10 14 3 -2
BITMAP
1000
1000
7E00
7000
2000
7C00
66C0
C380
8E00
1A00
1000
2000
1F00
0700
ENDCHAR
STARTCHAR 3093
ENCODING 12435
SWIDTH 960 0
DWIDTH 16 0
BBX 12 12 2 -1
BITMAP
0600
0400
0400
0800
0800
1000
1E00
3200
2200
6130
4160
C1C0
ENDCHAR
STARTCHAR 30A1
ENCODING 12449
SWIDTH 960 0
DWIDTH 16 0
BBX 8 10 4 -1
BITMAP
FF
01
03
16
1C
10
10
30
20
40
ENDCHAR
STARTCHAR 30A2
ENCODING 12450
SWIDTH 960 0
DWIDTH 16 0
BBX 11 12 2 -1
BITMAP
FFE0
0020
0060
04C0
0580
0700
0400
0C00
0C00
0800
1000
3000
ENDCHAR
STARTCHAR 30A3
ENCODING 12451
SWIDTH 960 0
DWIDTH 16 0
BBX 8 10 4 -1
BITMAP
03
06
0C
18
38
C8
08
08
08
08
ENDCHAR
STARTCHAR 30A4
ENCODING 12452
SWIDTH 960 0
DWIDTH 16 0
BBX 10 13 3 -2
BITMAP
00C0
0180
0300
0600
0C00
3400
E400
0400
0400
0400
0400
0400
0400
ENDCHAR
STARTCHAR 30A5
ENCODING 12453
SWIDTH 960 0
DWIDTH 16 0
BBX 8 10 4 -1
BITMAP
18
18
E7
81
81
02
02
06
0C
10
ENDCHAR
STARTCHAR 30A6
ENCODING 12454
SWIDTH 960 0
DWIDTH 16 0
BBX 10 13 3 -1
BITMAP
0C00
0C00
0C00
FFC0
80C0
80C0
80C0
0080
0180
0100
0300
0E00
1C00
ENDCHAR
STARTCHAR 30A7
ENCODING 12455
SWIDTH 960 0
DWIDTH 16 0
BBX 10 7 3 0
BITMAP
7F80
0C00
0C00
0C00
0C00
0C00
FFC0
ENDCHAR
STARTCHAR 30A8
ENCODING 12456
SWIDTH 960 0
DWIDTH 16 0
BBX 12 8 2 1
BITMAP
7FE0
0600
0600
0600
0600
0600
0600
FFF0
ENDCHAR
STARTCHAR 30A9
ENCODING 12457
SWIDTH 960 0
DWIDTH 16 0
BBX 8 10 4 -1
BITMAP
04
04
FF
0C
1C
34
64
C4
04
1C
ENDCHAR
STARTCHAR 30AA
ENCODING 12458
SWIDTH 960 0
DWIDTH 16 0
BBX 11 12 3 -1
BITMAP
0200
0200
FFE0
FFE0
0E00
0A00
1200
7200
C200
8200
0200
0E00
ENDCHAR
STARTCHAR 30AB
ENCODING 12459
SWIDTH 960 0
DWIDTH 16 0
BBX 10 12 3 -1
BITMAP
0800
0800
0800
7FC0
0840
0840
1840
1040
30C0
20C0
C080
8380
ENDCHAR
STARTCHAR 30AC
ENCODING 12460
SWIDTH 960 0
DWIDTH 16 0
BBX 13 13 2 -1
BITMAP
0010
1828
1800
1800
FFC0
18C0
18C0
1080
1080
3080
6080
C180
8300
ENDCHAR
STARTCHAR 30AD
ENCODING 12461
SWIDTH 960 0
DWIDTH 16 0
BBX 10 13 3 -2
BITMAP
1800
1800
0800
0F80
FC00
0800
0C00
0FC0
FE00
0400
0400
0400
0400
ENDCHAR
STARTCHAR 30AE
ENCODING 12462
SWIDTH 960 0
DWIDTH 16 0
BBX 12 14 2 -1
BITMAP
0850
1830
0800
0F80
7E00
0800
0C00
0FC0
FF00
0400
0400
0400
0400
0400
ENDCHAR
STARTCHAR 30AF
ENCODING 12463
SWIDTH 960 0
DWIDTH 16 0
BBX 10 13 3 -1
BITMAP
0800
0800
1800
3FC0
20C0
C080
8180
0100
0300
0600
0C00
3800
6000
ENDCHAR
STARTCHAR 30B0
ENCODING 12464
SWIDTH 960 0
DWIDTH 16 0
BBX 13 13 2 -1
BITMAP
0010
1828
1000
3F80
6080
C180
8100
0300
0600
0C00
1800
3000
E000
ENDCHAR
STARTCHAR 30B1
ENCODING 12465
SWIDTH 960 0
DWIDTH 16 0
BBX 12 13 2 -1
BITMAP
0800
0800
1800
1FF0
2180
6100
C100
0100
0300
0200
0600
0C00
1800
ENDCHAR
STARTCHAR 30B2
ENCODING 12466
SWIDTH 960 0
DWIDTH 16 0
BBX 14 14 1 -2
BITMAP
0008
0814
0810
1800
1FF0
2180
6180
C100
0100
0100
0300
0600
0C00
1800
ENDCHAR
STARTCHAR 30B3
ENCODING 12467
SWIDTH 960 0
DWIDTH 16 0
BBX 10 9 3 0
BITMAP
FFC0
00C0
00C0
00C0
00C0
00C0
00C0
FFC0
00C0
ENDCHAR
STARTCHAR 30B4
ENCODING 12468
SWIDTH 960 0
DWIDTH 16 0
BBX 12 13 2 0
BITMAP
0020
0050
0020
0000
FF80
0080
0080
0080
0080
0080
0080
FF80
0080
ENDCHAR
STARTCHAR 30B5
ENCODING 12469
SWIDTH 960 0
DWIDTH 16 0
BBX 12 12 2 -1
BITMAP
1080
1080
1080
FFF0
1080
1080
1080
1180
0100
0300
0600
0C00
ENDCHAR
STARTCHAR 30B6
ENCODING 12470
SWIDTH 960 0
DWIDTH 16 0
BBX 14 13 1 -1
BITMAP
0008
1094
1080
1080
FFF0
1080
1080
1180
1180
0100
0300
0600
0C00
ENDCHAR
STARTCHAR 30B7
ENCODING 12471
SWIDTH 960 0
DWIDTH 16 0
BBX 11 11 3 -1
BITMAP
2000
3000
1000
0000
C060
40C0
0180
0700
0C00
3800
E000
ENDCHAR
STARTCHAR 30B8
ENCODING 12472
SWIDTH 960 0
DWIDTH 16 0
BBX 11 11 3 -1
BITMAP
4040
3080
1000
0000
C060
40C0
0180
0700
0C00
3800
E000
ENDCHAR
STARTCHAR 30B9
ENCODING 12473
SWIDTH 960 0
DWIDTH 16 0
BBX 10 10 3 0
BITMAP
7E00
0100
0300
0200
0600
0E00
1980
3080
E0C0
8000
ENDCHAR
STARTCHAR 30BA
ENCODING 12474
SWIDTH 960 0
DWIDTH 16 0
BBX 12 12 2 0
BITMAP
0020
0050
7E00
7F00
0100
0300
0600
0700
0980
30C0
60C0
C040
ENDCHAR
STARTCHAR 30BB
ENCODING 12475
SWIDTH 960 0
DWIDTH 16 0
BBX 12 12 2 -1
BITMAP
1000
1000
1020
17F0
7C20
D060
10C0
1080
1000
1000
1820
0FE0
ENDCHAR
STARTCHAR 30BC
ENCODING 12476
SWIDTH 960 0
DWIDTH 16 0
BBX 14 13 1 -1
BITMAP
0008
1014
1000
1000
17E0
7C20
D060
10C0
1080
1000
1000
1820
0FE0
ENDCHAR
STARTCHAR 30BD
ENCODING 12477
SWIDTH 960 0
DWIDTH 16 0
BBX 10 11 3 0
BITMAP
8040
40C0
6080
0180
0100
0300
0200
0600
0C00
1800
3000
ENDCHAR
STARTCHAR 30BE
ENCODING 12478
SWIDTH 960 0
DWIDTH 16 0
BBX 14 14 1 -1
BITMAP
0008
0014
0008
C040
40C0
60C0
0080
0180
0100
0300
0600
0C00
1800
1000
ENDCHAR
STARTCHAR 30BF
ENCODING 12479
SWIDTH 960 0
DWIDTH 16 0
BBX 10 13 3 -2
BITMAP
0800
0800
1800
3FC0
60C0
C080
8180
0F00
0600
0700
1B80
3100
E000
ENDCHAR
STARTCHAR 30C0
ENCODING 12480
SWIDTH 960 0
DWIDTH 16 0
BBX 12 13 2 -2
BITMAP
0010
1820
1000
3F80
6080
C180
9100
1B00
0E00
0E00
1B00
7000
E000
ENDCHAR
STARTCHAR 30C1
ENCODING 12481
SWIDTH 960 0
DWIDTH 16 0
BBX 12 14 2 -2
BITMAP
0040
07C0
3A00
0200
0200
FFF0
FFF0
0200
0600
0400
0C00
1800
3000
2000
ENDCHAR
STARTCHAR 30C2
ENCODING 12482
SWIDTH 960 0
DWIDTH 16 0
BBX 14 13 1 -1
BITMAP
0FC8
3614
0608
0600
FFF0
FFF0
0600
0400
0400
0C00
1800
3000
2000
ENDCHAR
STARTCHAR 30C3
ENCODING 12483
SWIDTH 960 0
DWIDTH 16 0
BBX 8 9 4 -1
BITMAP
11
91
91
03
02
04
08
10
20
ENDCHAR
STARTCHAR 30C4
ENCODING 12484
SWIDTH 960 0
DWIDTH 16 0
BBX 12 12 2 -1
BITMAP
0C00
C430
4420
6660
4040
00C0
0080
0100
0300
0600
1C00
0800
ENDCHAR
STARTCHAR 30C5
ENCODING 12485
SWIDTH 960 0
DWIDTH 16 0
BBX 14 13 1 0
BITMAP
0014
0808
8800
C460
4440
40C0
0080
0180
0100
0200
0600
1C00
1000
ENDCHAR
STARTCHAR 30C6
ENCODING 12486
SWIDTH 960 0
DWIDTH 16 0
BBX 12 12 2 -2
BITMAP
3FC0
0000
0000
FFF0
FFF0
0600
0600
0600
0400
0C00
1800
3000
ENDCHAR
STARTCHAR 30C7
ENCODING 12487
SWIDTH 960 0
DWIDTH 16 0
BBX 14 14 1 -2
BITMAP
0008
0014
3F90
0000
0000
0000
FFE0
0600
0600
0400
0400
0C00
1800
3000
ENDCHAR
STARTCHAR 30C8
ENCODING 12488
SWIDTH 960 0
DWIDTH 16 0
BBX 6 12 5 -1
BITMAP
C0
C0
C0
C0
E0
D8
CC
C0
C0
C0
C0
C0
ENDCHAR
STARTCHAR 30C9
ENCODING 12489
SWIDTH 960 0
DWIDTH 16 0
BBX 8 13 4 -1
BITMAP
02
C5
C4
C0
C0
E0
D8
CC
C0
C0
C0
C0
C0
ENDCHAR
STARTCHAR 30CA
ENCODING 12490
SWIDTH 960 0
DWIDTH 16 0
BBX 12 12 2 -1
BITMAP
0600
0600
0600
FFF0
0600
0600
0600
0400
0400
0C00
1800
3000
ENDCHAR
STARTCHAR 30CB
ENCODING 12491
SWIDTH 960 0
DWIDTH 16 0
BBX 10 9 3 1
BITMAP
7F80
7F80
0000
0000
0000
0000
0000
0000
FFC0
ENDCHAR
STARTCHAR 30CC
ENCODING 12492
SWIDTH 960 0
DWIDTH 16 0
BBX 10 12 3 -1
BITMAP
7F80
00C0
0080
0180
1100
1F00
0600
0F00
1980
30C0
E080
4000
ENDCHAR
STARTCHAR 30CD
ENCODING 12493
SWIDTH 960 0
DWIDTH 16 0
BBX 12 14 2 -2
BITMAP
0600
0600
7F80
7FC0
0080
0100
0600
0EC0
3E60
E630
0600
0600
0600
0600
ENDCHAR
STARTCHAR 30CE
ENCODING 12494
SWIDTH 960 0
DWIDTH 16 0
BBX 9 12 4 -1
BITMAP
0180
0100
0300
0200
0600
0400
0C00
1800
3000
6000
C000
8000
ENDCHAR
STARTCHAR 30CF
ENCODING 12495
SWIDTH 960 0
DWIDTH 16 0
BBX 12 8 2 1
BITMAP
0880
18C0
1040
3060
2020
6030
C010
8000
ENDCHAR
STARTCHAR 30D0
ENCODING 12496
SWIDTH 960 0
DWIDTH 16 0
BBX 12 10 2 2
BITMAP
0010
0020
1100
1080
30C0
2040
6060
C060
8020
8000
ENDCHAR
STARTCHAR 30D1
ENCODING 12497
SWIDTH 960 0
DWIDTH 16 0
BBX 13 11 2 1
BITMAP
0010
0028
0028
1110
1080
30C0
2040
6060
C020
8020
8000
ENDCHAR
STARTCHAR 30D2
ENCODING 12498
SWIDTH 960 0
DWIDTH 16 0
BBX 9 12 3 -1
BITMAP
C000
C000
C180
C700
FC00
E000
C000
C000
C000
C000
6380
7F80
ENDCHAR
STARTCHAR 30D3
ENCODING 12499
SWIDTH 960 0
DWIDTH 16 0
BBX 11 13 2 -1
BITMAP
0020
C040
C000
C100
C300
DC00
F000
C000
C000
C000
C000
4180
7F80
ENDCHAR
STARTCHAR 30D4
ENCODING 12500
SWIDTH 960 0
DWIDTH 16 0
BBX 12 14 2 -1
BITMAP
0060
0090
C090
C060
C100
C300
DC00
F000
C000
C000
C000
C000
4180
7F80
ENDCHAR
STARTCHAR 30D5
ENCODING 12501
SWIDTH 960 0
DWIDTH 16 0
BBX 10 11 3 -1
BITMAP
FFC0
00C0
00C0
0080
0180
0300
0200
0600
1C00
3000
2000
ENDCHAR
STARTCHAR 30D6
ENCODING 12502
SWIDTH 960 0
DWIDTH 16 0
BBX 12 14 2 -1
BITMAP
0020
0050
0020
FF80
00C0
0080
0180
0180
0300
0200
0400
1800
3000
2000
ENDCHAR
STARTCHAR 30D7
ENCODING 12503
SWIDTH 960 0
DWIDTH 16 0
BBX 12 14 2 -1
BITMAP
0030
0050
0030
FF80
00C0
0080
0180
0180
0300
0600
0400
1800
3000
6000
ENDCHAR
STARTCHAR 30D8
ENCODING 12504
SWIDTH 960 0
DWIDTH 16 0
BBX 13 6 2 1
BITMAP
1800
2400
4300
8180
0060
0038
ENDCHAR
STARTCHAR 30D9
ENCODING 12505
SWIDTH 960 0
DWIDTH 16 0
BBX 13 9 2 1
BITMAP
0020
0050
1820
2400
4300
8180
80E0
0038
0010
ENDCHAR
STARTCHAR 30DA
ENCODING 12506
SWIDTH 960 0
DWIDTH 16 0
BBX 13 9 2 1
BITMAP
0070
0050
1860
2400
4300
8180
80E0
0038
0010
ENDCHAR
STARTCHAR 30DB
ENCODING 12507
SWIDTH 960 0
DWIDTH 16 0
BBX 12 12 2 -1
BITMAP
0600
0600
7FE0
7FE0
0600
0640
2640
6620
4630
8600
0600
0E00
ENDCHAR
STARTCHAR 30DC
ENCODING 12508
SWIDTH 960 0
DWIDTH 16 0
BBX 12 14 2 -1
BITMAP
0020
0050
0420
0400
FFE0
FFE0
0400
0400
2440
6460
C420
8420
0400
0C00
ENDCHAR
STARTCHAR 30DD
ENCODING 12509
SWIDTH 960 0
DWIDTH 16 0
BBX 12 14 2 -1
BITMAP
0030
0050
0470
0400
FFE0
FFE0
0400
0400
2440
6460
C420
8420
0400
0C00
ENDCHAR
STARTCHAR 30DE
ENCODING 12510
SWIDTH 960 0
DWIDTH 16 0
BBX 11 9 2 0
BITMAP
FFE0
0020
0060
00C0
1180
0F00
0600
0300
0100
ENDCHAR
STARTCHAR 30DF
ENCODING 12511
SWIDTH 960 0
DWIDTH 16 0
BBX 7 12 5 -1
BITMAP
60
38
08
00
E0
38
00
00
E0
78
0E
04
ENDCHAR
STARTCHAR 30E0
ENCODING 12512
SWIDTH 960 0
DWIDTH 16 0
BBX 12 11 2 0
BITMAP
0400
0400
0C00
0C00
0800
1800
10C0
3060
2020
63F0
FF10
ENDCHAR
STARTCHAR 30E1
ENCODING 12513
SWIDTH 960 0
DWIDTH 16 0
BBX 10 10 3 1
BITMAP
00C0
0080
1180
0F00
0600
0700
0D80
1800
7000
C000
ENDCHAR
STARTCHAR 30E2
ENCODING 12514
SWIDTH 960 0
DWIDTH 16 0
BBX 12 12 2 -1
BITMAP
3FC0
0400
0400
0400
0400
FFF0
0400
0400
0400
0400
0620
03E0
ENDCHAR
STARTCHAR 30E3
ENCODING 12515
SWIDTH 960 0
DWIDTH 16 0
BBX 9 10 3 -1
BITMAP
3000
1000
1780
7880
9180
1900
0800
0800
0800
0800
ENDCHAR
STARTCHAR 30E4
ENCODING 12516
SWIDTH 960 0
DWIDTH 16 0
BBX 12 12 2 -2
BITMAP
1000
1800
19E0
1FB0
F820
0C40
0CC0
0C00
0400
0400
0600
0600
ENDCHAR
STARTCHAR 30E5
ENCODING 12517
SWIDTH 960 0
DWIDTH 16 0
BBX 10 7 3 0
BITMAP
3F00
0100
0300
0300
0300
0200
FFC0
ENDCHAR
STARTCHAR 30E6
ENCODING 12518
SWIDTH 960 0
DWIDTH 16 0
BBX 12 9 2 1
BITMAP
3FC0
3FC0
00C0
0080
0080
0080
0080
0080
FFF0
ENDCHAR
STARTCHAR 30E7
ENCODING 12519
SWIDTH 960 0
DWIDTH 16 0
BBX 8 8 4 -1
BITMAP
FF
03
03
7F
03
03
FF
03
ENDCHAR
STARTCHAR 30E8
ENCODING 12520
SWIDTH 960 0
DWIDTH 16 0
BBX 10 10 3 0
BITMAP
FFC0
00C0
00C0
00C0
7FC0
00C0
00C0
00C0
FFC0
FFC0
ENDCHAR
STARTCHAR 30E9
ENCODING 12521
SWIDTH 960 0
DWIDTH 16 0
BBX 10 12 3 -1
BITMAP
3F00
0000
0000
FF80
00C0
00C0
0080
0180
0300
0600
0C00
1800
ENDCHAR
STARTCHAR 30EA
ENCODING 12522
SWIDTH 960 0
DWIDTH 16 0
BBX 8 12 4 -1
BITMAP
C3
C3
C3
C3
C3
C2
C2
02
06
0C
08
30
ENDCHAR
STARTCHAR 30EB
ENCODING 12523
SWIDTH 960 0
DWIDTH 16 0
BBX 13 12 2 -1
BITMAP
0200
2200
2200
2200
2200
2218
2210
2220
6260
42C0
8300
0200
ENDCHAR
STARTCHAR 30EC
ENCODING 12524
SWIDTH 960 0
DWIDTH 16 0
BBX 10 12 3 -1
BITMAP
8000
8000
8000
8000
8000
8040
80C0
8380
8600
9C00
F000
4000
ENDCHAR
STARTCHAR 30ED
ENCODING 12525
SWIDTH 960 0
DWIDTH 16 0
BBX 10 10 3 0
BITMAP
FFC0
FFC0
C0C0
C0C0
C0C0
C0C0
C0C0
C0C0
FFC0
C0C0
ENDCHAR
STARTCHAR 30EE
ENCODING 12526
SWIDTH 960 0
DWIDTH 16 0
BBX 8 9 4 -2
BITMAP
FF
81
81
81
03
02
02
04
08
ENDCHAR
STARTCHAR 30EF
ENCODING 12527
SWIDTH 960 0
DWIDTH 16 0
BBX 10 12 3 -1
BITMAP
FFC0
80C0
80C0
80C0
80C0
0080
0080
0180
0300
0300
0E00
0800
ENDCHAR
STARTCHAR 30F0
ENCODING 12528
SWIDTH 960 0
DWIDTH 16 0
BBX 12 14 2 -2
BITMAP
0180
0180
0180
7FE0
3180
3180
3180
3180
FFF0
FFF0
0180
0180
0180
0180
ENDCHAR
STARTCHAR 30F1
ENCODING 12529
SWIDTH 960 0
DWIDTH 16 0
BBX 12 10 2 0
BITMAP
7FE0
0020
0060
00C0
0780
0600
0400
0400
0400
FFF0
ENDCHAR
STARTCHAR 30F2
ENCODING 12530
SWIDTH 960 0
DWIDTH 16 0
BBX 10 12 3 -1
BITMAP
7F80
7FC0
00C0
0080
FF80
FF80
0100
0300
0600
0C00
3800
2000
ENDCHAR
STARTCHAR 30F3
ENCODING 12531
SWIDTH 960 0
DWIDTH 16 0
BBX 10 10 3 0
BITMAP
C000
6000
0040
00C0
0180
0300
0600
1C00
7000
C000
ENDCHAR
STARTCHAR 30F4
ENCODING 12532
SWIDTH 960 0
DWIDTH 16 0
BBX 13 13 1 0
BITMAP
0428
0410
0400
FFE0
C060
C040
C040
00C0
00C0
0180
0300
0600
0C00
ENDCHAR
STARTCHAR 30F5
ENCODING 12533
SWIDTH 960 0
DWIDTH 16 0
BBX 8 10 4 -1
BITMAP
10
10
FF
11
11
11
31
21
43
86
ENDCHAR
STARTCHAR 30F6
ENCODING 12534
SWIDTH 960 0
DWIDTH 16 0
BBX 9 11 4 -2
BITMAP
3000
2000
7F80
4400
8400
0400
0C00
0800
1800
3000
2000
ENDCHAR
STARTCHAR 30FB
ENCODING 12539
SWIDTH 300 0
DWIDTH 5 0
BBX 1 2 2 5
BITMAP
80
80
ENDCHAR
STARTCHAR 30FC
ENCODING 12540
SWIDTH 960 0
DWIDTH 16 0
BBX 14 1 1 4
BITMAP
FFFC
ENDCHAR
STARTCHAR 3131
ENCODING 12593
SWIDTH 960 0
DWIDTH 16 0
BBX 8 8 4 1
BITMAP
FF
01
01
01
01
01
01
01
ENDCHAR
STARTCHAR 3132
ENCODING 12594
SWIDTH 960 0
DWIDTH 16 0
BBX 10 8 3 1
BITMAP
F7C0
1840
1840
1840
1840
1840
1840
1840
ENDCHAR
STARTCHAR 3133
ENCODING 12595
SWIDTH 960 0
DWIDTH 16 0
BBX 12 7 2 2
BITMAP
F880
0880
0880
09C0
0940
0B60
0E30
ENDCHAR
STARTCHAR 3134
ENCODING 12596
SWIDTH 960 0
DWIDTH 16 0
BBX 8 7 4 2
BITMAP
80
80
80
80
80
80
FF
ENDCHAR
STARTCHAR 3135
ENCODING 12597
SWIDTH 960 0
DWIDTH 16 0
BBX 12 7 2 2
BITMAP
87E0
8060
8040
8080
81C0
8320
FE10
ENDCHAR
STARTCHAR 3136
ENCODING 12598
SWIDTH 960 0
DWIDTH 16 0
BBX 11 8 2 2
BITMAP
03C0
C000
C7E0
C000
C3C0
C220
C220
7BC0
ENDCHAR
STARTCHAR 3137
ENCODING 12599
SWIDTH 960 0
DWIDTH 16 0
BBX 8 7 4 2
BITMAP
FF
80
80
80
80
80
FF
ENDCHAR
STARTCHAR 3138
ENCODING 12600
SWIDTH 960 0
DWIDTH 16 0
BBX 10 7 3 2
BITMAP
F7C0
8400
8400
8400
8400
8400
FFC0
ENDCHAR
STARTCHAR 3139
ENCODING 12601
SWIDTH 960 0
DWIDTH 16 0
BBX 8 8 4 1
BITMAP
FF
01
01
FF
80
80
80
FF
ENDCHAR
STARTCHAR 313A
ENCODING 12602
SWIDTH 960 0
DWIDTH 16 0
BBX 10 8 3 1
BITMAP
FFC0
0840
0840
F840
8040
8040
8040
F840
ENDCHAR
STARTCHAR 313B
ENCODING 12603
SWIDTH 960 0
DWIDTH 16 0
BBX 10 8 3 1
BITMAP
F3C0
1E40
1E40
F640
8640
8640
8640
FBC0
ENDCHAR
STARTCHAR 313C
ENCODING 12604
SWIDTH 960 0
DWIDTH 16 0
BBX 10 7 3 2
BITMAP
FE40
0E40
0FC0
F640
8640
8640
FFC0
ENDCHAR
STARTCHAR 313D
ENCODING 12605
SWIDTH 960 0
DWIDTH 16 0
BBX 12 8 2 1
BITMAP
F880
0880
0880
F880
8140
8140
8220
FC30
ENDCHAR
STARTCHAR 313E
ENCODING 12606
SWIDTH 960 0
DWIDTH 16 0
BBX 10 8 3 1
BITMAP
F3C0
1400
1400
F7C0
8400
8400
8400
FBC0
ENDCHAR
STARTCHAR 313F
ENCODING 12607
SWIDTH 960 0
DWIDTH 16 0
BBX 12 8 2 1
BITMAP
FBE0
0940
0940
7940
C140
C140
C140
7FF0
ENDCHAR
STARTCHAR 3140
ENCODING 12608
SWIDTH 960 0
DWIDTH 16 0
BBX 12 8 2 1
BITMAP
F9E0
0800
0FF0
F800
81E0
8220
8220
FDE0
ENDCHAR
STARTCHAR 3141
ENCODING 12609
SWIDTH 960 0
DWIDTH 16 0
BBX 8 7 4 2
BITMAP
FF
81
81
81
81
81
FF
ENDCHAR
STARTCHAR 3142
ENCODING 12610
SWIDTH 960 0
DWIDTH 16 0
BBX 8 7 4 2
BITMAP
81
81
81
FF
81
81
FF
ENDCHAR
STARTCHAR 3143
ENCODING 12611
SWIDTH 960 0
DWIDTH 16 0
BBX 10 7 3 2
BITMAP
9640
9640
9640
F7C0
9640
9640
F3C0
ENDCHAR
STARTCHAR 3144
ENCODING 12612
SWIDTH 960 0
DWIDTH 16 0
BBX 12 7 2 2
BITMAP
8880
8880
8880
F980
8940
8A60
FC30
ENDCHAR
STARTCHAR 3145
ENCODING 12613
SWIDTH 960 0
DWIDTH 16 0
BBX 10 8 3 1
BITMAP
0C00
0C00
0800
0C00
1400
3200
6100
C0C0
ENDCHAR
STARTCHAR 3146
ENCODING 12614
SWIDTH 960 0
DWIDTH 16 0
BBX 12 8 2 1
BITMAP
0880
1880
1880
19C0
3560
6230
C600
0C00
ENDCHAR
STARTCHAR 3147
ENCODING 12615
SWIDTH 960 0
DWIDTH 16 0
BBX 8 8 4 1
BITMAP
3C
42
81
81
81
81
42
3C
ENDCHAR
STARTCHAR 3148
ENCODING 12616
SWIDTH 960 0
DWIDTH 16 0
BBX 10 8 3 1
BITMAP
FF80
0180
0300
0600
0C00
3600
6180
8040
ENDCHAR
STARTCHAR 3149
ENCODING 12617
SWIDTH 960 0
DWIDTH 16 0
BBX 12 8 2 1
BITMAP
7FE0
0840
0840
1080
2DC0
4760
8210
0400
ENDCHAR
STARTCHAR 314A
ENCODING 12618
SWIDTH 960 0
DWIDTH 16 0
BBX 10 9 3 1
BITMAP
1E00
0000
FF80
0180
0300
0600
1A00
7180
C0C0
ENDCHAR
STARTCHAR 314B
ENCODING 12619
SWIDTH 960 0
DWIDTH 16 0
BBX 8 8 4 1
BITMAP
FF
01
01
01
FF
01
01
01
ENDCHAR
STARTCHAR 314C
ENCODING 12620
SWIDTH 960 0
DWIDTH 16 0
BBX 8 7 4 2
BITMAP
FF
80
80
FF
80
80
FF
ENDCHAR
STARTCHAR 314D
ENCODING 12621
SWIDTH 960 0
DWIDTH 16 0
BBX 10 7 3 2
BITMAP
7F80
3300
3300
3300
3300
3300
FFC0
ENDCHAR
STARTCHAR 314E
ENCODING 12622
SWIDTH 960 0
DWIDTH 16 0
BBX 10 9 3 1
BITMAP
3E00
0000
FFC0
0000
1E00
2100
4180
2100
1E00
ENDCHAR
STARTCHAR 314F
ENCODING 12623
SWIDTH 960 0
DWIDTH 16 0
BBX 4 15 6 -2
BITMAP
80
80
80
80
80
80
80
F0
80
80
80
80
80
80
80
ENDCHAR
STARTCHAR 3150
ENCODING 12624
SWIDTH 960 0
DWIDTH 16 0
BBX 6 15 5 -2
BITMAP
84
84
84
84
84
84
84
FC
84
84
84
84
84
84
04
ENDCHAR
STARTCHAR 3151
ENCODING 12625
SWIDTH 960 0
DWIDTH 16 0
BBX 4 15 6 -2
BITMAP
80
80
80
80
80
F0
80
80
80
F0
80
80
80
80
80
ENDCHAR
STARTCHAR 3152
ENCODING 12626
SWIDTH 960 0
DWIDTH 16 0
BBX 6 15 5 -2
BITMAP
84
84
84
84
84
FC
84
84
84
FC
84
84
84
84
04
ENDCHAR
STARTCHAR 3153
ENCODING 12627
SWIDTH 960 0
DWIDTH 16 0
BBX 4 15 6 -2
BITMAP
10
10
10
10
10
10
F0
10
10
10
10
10
10
10
10
ENDCHAR
STARTCHAR 3154
ENCODING 12628
SWIDTH 960 0
DWIDTH 16 0
BBX 7 15 4 -2
BITMAP
12
12
12
12
12
12
F2
12
12
12
12
12
12
12
02
ENDCHAR
STARTCHAR 3155
ENCODING 12629
SWIDTH 960 0
DWIDTH 16 0
BBX 4 15 6 -2
BITMAP
10
10
10
10
10
F0
10
10
10
F0
10
10
10
10
10
ENDCHAR
STARTCHAR 3156
ENCODING 12630
SWIDTH 960 0
DWIDTH 16 0
BBX 6 15 5 -2
BITMAP
24
24
24
24
E4
24
24
24
E4
24
24
24
24
24
04
ENDCHAR
STARTCHAR 3157
ENCODING 12631
SWIDTH 960 0
DWIDTH 16 0
BBX 14 7 1 1
BITMAP
0300
0300
0300
0300
0300
0300
FFFC
ENDCHAR
STARTCHAR 3158
ENCODING 12632
SWIDTH 960 0
DWIDTH 16 0
BBX 14 15 1 -2
BITMAP
0030
0030
0030
0030
0030
0030
0830
083C
0830
0830
0830
FFF0
0030
0030
0030
ENDCHAR
STARTCHAR 3159
ENCODING 12633
SWIDTH 960 0
DWIDTH 16 0
BBX 14 15 1 -2
BITMAP
0064
0064
0064
0064
0064
0064
087C
0864
0864
0864
0864
FFE4
0064
0064
0004
ENDCHAR
STARTCHAR 315A
ENCODING 12634
SWIDTH 960 0
DWIDTH 16 0
BBX 12 15 2 -2
BITMAP
0010
0010
0010
0010
0010
0010
0C10
0C10
0C10
0C10
0C10
FFD0
0010
0010
0010
ENDCHAR
STARTCHAR 315B
ENCODING 12635
SWIDTH 960 0
DWIDTH 16 0
BBX 14 7 1 1
BITMAP
0840
0840
0840
0840
0840
0840
FFFC
ENDCHAR
STARTCHAR 315C
ENCODING 12636
SWIDTH 960 0
DWIDTH 16 0
BBX 14 8 1 -1
BITMAP
FFFC
0300
0300
0300
0300
0300
0300
0300
ENDCHAR
STARTCHAR 315D
ENCODING 12637
SWIDTH 960 0
DWIDTH 16 0
BBX 12 15 2 -2
BITMAP
0010
0010
0010
0010
0010
0010
0010
FFD0
0810
0810
08F0
0810
0810
0810
0010
ENDCHAR
STARTCHAR 315E
ENCODING 12638
SWIDTH 960 0
DWIDTH 16 0
BBX 14 15 1 -2
BITMAP
0024
0024
0024
0024
0024
0024
0024
FFA4
0824
0824
09E4
0824
0824
0824
0004
ENDCHAR
STARTCHAR 315F
ENCODING 12639
SWIDTH 960 0
DWIDTH 16 0
BBX 12 15 2 -2
BITMAP
0010
0010
0010
0010
0010
0010
0010
FFD0
0810
0810
0810
0810
0810
0810
0010
ENDCHAR
STARTCHAR 3160
ENCODING 12640
SWIDTH 960 0
DWIDTH 16 0
BBX 14 8 1 -1
BITMAP
FFFC
0840
0840
0840
0840
0840
0840
0840
ENDCHAR
STARTCHAR 3161
ENCODING 12641
SWIDTH 960 0
DWIDTH 16 0
BBX 14 1 1 4
BITMAP
FFFC
ENDCHAR
STARTCHAR 3162
ENCODING 12642
SWIDTH 960 0
DWIDTH 16 0
BBX 12 15 2 -2
BITMAP
0010
0010
0010
0010
0010
0010
0010
0010
0010
0010
FFD0
0010
0010
0010
0010
ENDCHAR
STARTCHAR 3163
ENCODING 12643
SWIDTH 960 0
DWIDTH 16 0
BBX 2 15 7 -2
BITMAP
C0
C0
C0
C0
C0
C0
C0
C0
C0
C0
C0
C0
C0
C0
C0
ENDCHAR
STARTCHAR 3164
ENCODING 12644
SWIDTH 960 0
DWIDTH 16 0
BBX 0 0 0 0
BITMAP
ENDCHAR
STARTCHAR 3165
ENCODING 12645
SWIDTH 960 0
DWIDTH 16 0
BBX 10 7 3 2
BITMAP
8400
8400
8400
8400
8400
8400
FFC0
ENDCHAR
STARTCHAR 3166
ENCODING 12646
SWIDTH 960 0
DWIDTH 16 0
BBX 10 7 3 2
BITMAP
87C0
8400
8400
8400
8400
8400
FFC0
ENDCHAR
STARTCHAR 3167
ENCODING 12647
SWIDTH 960 0
DWIDTH 16 0
BBX 11 8 2 1
BITMAP
8080
8080
8080
8180
8140
8340
FA20
0400
ENDCHAR
STARTCHAR 3168
ENCODING 12648
SWIDTH 960 0
DWIDTH 16 0
BBX 10 8 3 1
BITMAP
8100
8100
8300
8280
8280
8480
F440
07C0
ENDCHAR
STARTCHAR 3169
ENCODING 12649
SWIDTH 960 0
DWIDTH 16 0
BBX 14 8 1 1
BITMAP
FF10
1110
1130
F130
8130
8168
914C
6100
ENDCHAR
STARTCHAR 316A
ENCODING 12650
SWIDTH 960 0
DWIDTH 16 0
BBX 10 8 3 1
BITMAP
F3C0
1400
1400
F400
8400
8400
9FC0
6000
ENDCHAR
STARTCHAR 316B
ENCODING 12651
SWIDTH 960 0
DWIDTH 16 0
BBX 14 8 1 1
BITMAP
F510
1510
1530
F730
8530
8528
954C
6700
ENDCHAR
STARTCHAR 316C
ENCODING 12652
SWIDTH 960 0
DWIDTH 16 0
BBX 10 8 3 1
BITMAP
F100
1100
1180
F280
8280
8240
9C40
67C0
ENDCHAR
STARTCHAR 316D
ENCODING 12653
SWIDTH 960 0
DWIDTH 16 0
BBX 12 8 2 1
BITMAP
FBF0
0800
0880
7960
C220
C220
CD20
70C0
ENDCHAR
STARTCHAR 316E
ENCODING 12654
SWIDTH 960 0
DWIDTH 16 0
BBX 10 8 3 1
BITMAP
F640
9640
9640
97C0
9640
9640
9640
63C0
ENDCHAR
STARTCHAR 316F
ENCODING 12655
SWIDTH 960 0
DWIDTH 16 0
BBX 11 8 2 1
BITMAP
F880
8880
8880
8980
8940
8B40
CA20
7400
ENDCHAR
STARTCHAR 3170
ENCODING 12656
SWIDTH 960 0
DWIDTH 16 0
BBX 10 8 3 1
BITMAP
F100
9100
9180
9280
9280
9440
9440
67C0
ENDCHAR
STARTCHAR 3171
ENCODING 12657
SWIDTH 960 0
DWIDTH 16 0
BBX 8 12 4 -1
BITMAP
FF
81
81
81
81
FF
00
18
24
24
24
18
ENDCHAR
STARTCHAR 3172
ENCODING 12658
SWIDTH 960 0
DWIDTH 16 0
BBX 10 8 3 1
BITMAP
8FC0
8840
8840
F840
8840
8840
8840
F040
ENDCHAR
STARTCHAR 3173
ENCODING 12659
SWIDTH 960 0
DWIDTH 16 0
BBX 10 8 3 1
BITMAP
97C0
9400
9400
F400
9400
9400
9600
F3C0
ENDCHAR
STARTCHAR 3174
ENCODING 12660
SWIDTH 960 0
DWIDTH 16 0
BBX 12 8 2 1
BITMAP
92F0
9210
9210
F310
9310
9590
9C90
F810
ENDCHAR
STARTCHAR 3175
ENCODING 12661
SWIDTH 960 0
DWIDTH 16 0
BBX 14 8 1 1
BITMAP
9138
9120
9320
F320
9320
92A0
94E0
703C
ENDCHAR
STARTCHAR 3176
ENCODING 12662
SWIDTH 960 0
DWIDTH 16 0
BBX 12 8 2 1
BITMAP
8FE0
8860
8840
F8C0
89C0
8B60
9E30
F000
ENDCHAR
STARTCHAR 3177
ENCODING 12663
SWIDTH 960 0
DWIDTH 16 0
BBX 10 8 3 1
BITMAP
93C0
9200
9200
F3C0
9200
9200
9200
F3C0
ENDCHAR
STARTCHAR 3178
ENCODING 12664
SWIDTH 960 0
DWIDTH 16 0
BBX 8 12 4 -1
BITMAP
81
81
FF
81
81
FF
00
18
24
24
24
18
ENDCHAR
STARTCHAR 3179
ENCODING 12665
SWIDTH 960 0
DWIDTH 16 0
BBX 10 12 3 -1
BITMAP
9E40
9E40
FFC0
9E40
9E40
FFC0
0000
0C00
1200
1200
1200
0C00
ENDCHAR
STARTCHAR 317A
ENCODING 12666
SWIDTH 960 0
DWIDTH 16 0
BBX 10 8 3 1
BITMAP
17C0
1040
1040
3040
2840
6840
C440
8040
ENDCHAR
STARTCHAR 317B
ENCODING 12667
SWIDTH 960 0
DWIDTH 16 0
BBX 11 7 3 1
BITMAP
2200
2200
2200
2200
5200
5200
8BE0
ENDCHAR
STARTCHAR 317C
ENCODING 12668
SWIDTH 960 0
DWIDTH 16 0
BBX 11 7 3 1
BITMAP
23C0
2200
2200
3200
5200
5A00
8FE0
ENDCHAR
STARTCHAR 317D
ENCODING 12669
SWIDTH 960 0
DWIDTH 16 0
BBX 11 8 3 1
BITMAP
2220
2220
2220
33E0
7220
5A20
8E20
03C0
ENDCHAR
STARTCHAR 317E
ENCODING 12670
SWIDTH 960 0
DWIDTH 16 0
BBX 12 7 2 1
BITMAP
23C0
23E0
2020
3040
70C0
59A0
8F10
ENDCHAR
STARTCHAR 317F
ENCODING 12671
SWIDTH 960 0
DWIDTH 16 0
BBX 6 8 5 1
BITMAP
10
30
30
48
48
84
84
FC
ENDCHAR
STARTCHAR 3180
ENCODING 12672
SWIDTH 960 0
DWIDTH 16 0
BBX 12 8 2 1
BITMAP
30C0
4920
4920
8910
8930
4920
79E0
2040
ENDCHAR
STARTCHAR 3181
ENCODING 12673
SWIDTH 960 0
DWIDTH 16 0
BBX 8 9 4 1
BITMAP
18
18
7E
C3
81
81
81
C2
7C
ENDCHAR
STARTCHAR 3182
ENCODING 12674
SWIDTH 960 0
DWIDTH 16 0
BBX 12 8 2 1
BITMAP
2080
7880
C880
84C0
85C0
8560
CA30
7210
ENDCHAR
STARTCHAR 3183
ENCODING 12675
SWIDTH 960 0
DWIDTH 16 0
BBX 12 8 2 1
BITMAP
1000
78C0
44C0
84C0
8520
C520
4D20
3BF0
ENDCHAR
STARTCHAR 3184
ENCODING 12676
SWIDTH 960 0
DWIDTH 16 0
BBX 10 12 3 -1
BITMAP
7F80
7F80
2100
2100
2100
FFC0
0000
0C00
1200
1200
1200
0C00
ENDCHAR
STARTCHAR 3185
ENCODING 12677
SWIDTH 960 0
DWIDTH 16 0
BBX 12 8 2 1
BITMAP
79E0
FFF0
0000
70E0
4930
8910
4930
70E0
ENDCHAR
STARTCHAR 3186
ENCODING 12678
SWIDTH 960 0
DWIDTH 16 0
BBX 8 9 4 1
BITMAP
FF
00
00
7E
C2
81
81
C2
7E
ENDCHAR
STARTCHAR 3187
ENCODING 12679
SWIDTH 960 0
DWIDTH 16 0
BBX 14 15 1 -2
BITMAP
0030
0030
0030
0030
0030
003C
3230
3230
3230
3230
327C
FFB0
0030
0030
0030
ENDCHAR
STARTCHAR 3188
ENCODING 12680
SWIDTH 960 0
DWIDTH 16 0
BBX 14 15 1 -2
BITMAP
0044
0044
0044
0044
0044
007C
3244
3244
3244
327C
32C4
FF44
0044
0044
0044
ENDCHAR
STARTCHAR 3189
ENCODING 12681
SWIDTH 960 0
DWIDTH 16 0
BBX 12 15 2 -2
BITMAP
0010
0010
0010
0010
0010
0010
1110
1110
1110
1110
1150
FF90
0010
0010
0010
ENDCHAR
STARTCHAR 318A
ENCODING 12682
SWIDTH 960 0
DWIDTH 16 0
BBX 12 15 2 -2
BITMAP
0010
0010
0010
0010
0010
0010
00D0
FF10
3210
32F0
3210
32F0
3210
3210
2210
ENDCHAR
STARTCHAR 318B
ENCODING 12683
SWIDTH 960 0
DWIDTH 16 0
BBX 14 15 1 -2
BITMAP
0024
0024
0024
0024
0024
0024
00A4
FF24
1224
12E4
1224
12E4
1224
1224
0024
ENDCHAR
STARTCHAR 318C
ENCODING 12684
SWIDTH 960 0
DWIDTH 16 0
BBX 12 15 2 -2
BITMAP
0010
0010
0010
0010
0010
0010
0010
FFD0
3110
3110
3110
3110
3110
3110
1110
ENDCHAR
STARTCHAR 318D
ENCODING 12685
SWIDTH 960 0
DWIDTH 16 0
BBX 2 1 7 5
BITMAP
C0
ENDCHAR
STARTCHAR 318E
ENCODING 12686
SWIDTH 960 0
DWIDTH 16 0
BBX 6 15 5 -2
BITMAP
04
04
04
04
04
04
04
C4
04
04
04
04
04
04
04
ENDCHAR
STARTCHAR 3200
ENCODING 12800
SWIDTH 960 0
DWIDTH 16 0
BBX 14 16 1 -3
BITMAP
4008
4008
8004
8004
8004
9FE4
8064
8064
8064
8064
8064
8064
8004
8004
4008
4008
ENDCHAR
STARTCHAR 3201
ENCODING 12801
SWIDTH 960 0
DWIDTH 16 0
BBX 14 16 1 -3
BITMAP
4008
4008
8004
8004
9004
9004
9004
9004
9004
9004
9FE4
8004
8004
8004
4008
4008
ENDCHAR
STARTCHAR 3202
ENCODING 12802
SWIDTH 960 0
DWIDTH 16 0
BBX 14 16 1 -3
BITMAP
4008
4008
8004
8004
9FE4
9004
9004
9004
9004
9004
9004
9FE4
8004
8004
4008
4008
ENDCHAR
STARTCHAR 3203
ENCODING 12803
SWIDTH 960 0
DWIDTH 16 0
BBX 14 16 1 -3
BITMAP
4008
4008
8004
8004
9FE4
8024
8024
9FE4
9004
9004
9004
9FE4
8004
8004
4008
4008
ENDCHAR
STARTCHAR 3204
ENCODING 12804
SWIDTH 960 0
DWIDTH 16 0
BBX 14 16 1 -3
BITMAP
4008
4008
8004
8004
9FE4
9024
9024
9024
9024
9024
9FE4
8004
8004
8004
4008
4008
ENDCHAR
STARTCHAR 3205
ENCODING 12805
SWIDTH 960 0
DWIDTH 16 0
BBX 14 16 1 -3
BITMAP
4008
4008
8004
8004
9024
9024
9024
9FE4
9024
9024
9FE4
9024
8004
8004
4008
4008
ENDCHAR
STARTCHAR 3206
ENCODING 12806
SWIDTH 960 0
DWIDTH 16 0
BBX 14 16 1 -3
BITMAP
4008
4008
8004
8004
8104
8304
8304
8304
8684
8CC4
9864
B034
8004
8004
4008
4008
ENDCHAR
STARTCHAR 3207
ENCODING 12807
SWIDTH 960 0
DWIDTH 16 0
BBX 14 16 1 -3
BITMAP
4008
4008
8004
8004
8784
8844
9024
9024
9024
9024
8844
8784
8004
8004
4008
4008
ENDCHAR
STARTCHAR 3208
ENCODING 12808
SWIDTH 960 0
DWIDTH 16 0
BBX 14 16 1 -3
BITMAP
4008
4008
8004
8004
BFF4
8304
8304
8304
8684
8CC4
9864
B034
8004
8004
4008
4008
ENDCHAR
STARTCHAR 3209
ENCODING 12809
SWIDTH 960 0
DWIDTH 16 0
BBX 14 16 1 -3
BITMAP
4008
4008
8004
8784
8004
BFF4
8304
8304
8704
8484
9864
B034
8004
8004
4008
4008
ENDCHAR
STARTCHAR 320A
ENCODING 12810
SWIDTH 960 0
DWIDTH 16 0
BBX 14 16 1 -3
BITMAP
4008
4008
8004
8004
9FE4
8024
8024
8024
9FE4
8024
8024
8024
8004
8004
4008
4008
ENDCHAR
STARTCHAR 320B
ENCODING 12811
SWIDTH 960 0
DWIDTH 16 0
BBX 14 16 1 -3
BITMAP
4008
4008
8004
8004
9FE4
9004
9004
9FE4
9004
9004
9004
9FE4
8004
8004
4008
4008
ENDCHAR
STARTCHAR 320C
ENCODING 12812
SWIDTH 960 0
DWIDTH 16 0
BBX 14 16 1 -3
BITMAP
4008
4008
8004
8004
9FF4
8004
8844
8844
8844
8C44
8CC4
BFF4
8004
8004
4008
4008
ENDCHAR
STARTCHAR 320D
ENCODING 12813
SWIDTH 960 0
DWIDTH 16 0
BBX 14 16 1 -3
BITMAP
4008
4008
8004
8784
8004
BFF4
8004
8784
8844
9024
9024
8844
8784
8004
4008
4008
ENDCHAR
STARTCHAR 320E
ENCODING 12814
SWIDTH 960 0
DWIDTH 16 0
BBX 14 16 1 -3
BITMAP
4008
4008
8024
BF24
8124
8124
8124
823C
8224
8424
8824
9024
A024
8024
4008
4008
ENDCHAR
STARTCHAR 320F
ENCODING 12815
SWIDTH 960 0
DWIDTH 16 0
BBX 14 16 1 -3
BITMAP
4008
4008
8024
8024
A024
A024
A024
A03C
A024
A1A4
BE24
8024
8024
8024
4008
4008
ENDCHAR
STARTCHAR 3210
ENCODING 12816
SWIDTH 960 0
DWIDTH 16 0
BBX 14 16 1 -3
BITMAP
4008
4008
8024
8024
BF24
A024
A024
A03C
A024
A024
A024
BFA4
8024
8024
4008
4008
ENDCHAR
STARTCHAR 3211
ENCODING 12817
SWIDTH 960 0
DWIDTH 16 0
BBX 14 16 1 -3
BITMAP
4008
4008
8024
BF24
8124
8124
8124
BF3C
A024
A024
A024
BFA4
8024
8024
4008
4008
ENDCHAR
STARTCHAR 3212
ENCODING 12818
SWIDTH 960 0
DWIDTH 16 0
BBX 14 16 1 -3
BITMAP
4008
4008
8024
8024
BF24
A124
A124
A13C
A124
A124
BF24
8024
8024
8024
4008
4008
ENDCHAR
STARTCHAR 3213
ENCODING 12819
SWIDTH 960 0
DWIDTH 16 0
BBX 14 16 1 -3
BITMAP
4008
4008
8024
8024
A124
A124
A124
BF3C
A124
A124
A124
BF24
8024
8024
4008
4008
ENDCHAR
STARTCHAR 3214
ENCODING 12820
SWIDTH 960 0
DWIDTH 16 0
BBX 14 16 1 -3
BITMAP
4008
4008
8024
8424
8424
8C24
8C24
8C3C
8C24
9224
B324
E124
8024
8024
4008
4008
ENDCHAR
STARTCHAR 3215
ENCODING 12821
SWIDTH 960 0
DWIDTH 16 0
BBX 14 16 1 -3
BITMAP
4008
4008
8024
9C24
A224
A124
A124
A13C
A124
A124
A224
9C24
8024
8024
4008
4008
ENDCHAR
STARTCHAR 3216
ENCODING 12822
SWIDTH 960 0
DWIDTH 16 0
BBX 14 16 1 -3
BITMAP
4008
4008
8024
8024
BFA4
8424
8424
8C3C
8A24
9224
B124
A0A4
8024
8024
4008
4008
ENDCHAR
STARTCHAR 3217
ENCODING 12823
SWIDTH 960 0
DWIDTH 16 0
BBX 14 16 1 -3
BITMAP
4008
4008
8024
8E24
8024
BFA4
8424
843C
8C24
8A24
B124
E0A4
8024
8024
4008
4008
ENDCHAR
STARTCHAR 3218
ENCODING 12824
SWIDTH 960 0
DWIDTH 16 0
BBX 14 16 1 -3
BITMAP
4008
4008
8024
BF24
8124
8124
BF24
823C
8224
8424
8C24
9024
A024
8024
4008
4008
ENDCHAR
STARTCHAR 3219
ENCODING 12825
SWIDTH 960 0
DWIDTH 16 0
BBX 14 16 1 -3
BITMAP
4008
4008
8024
BF24
A024
A024
A024
BF3C
A024
A024
A024
BFA4
8024
8024
4008
4008
ENDCHAR
STARTCHAR 321A
ENCODING 12826
SWIDTH 960 0
DWIDTH 16 0
BBX 14 16 1 -3
BITMAP
4008
4008
8024
BFA4
8024
8024
9124
913C
9124
9224
9224
BDA4
8024
8024
4008
4008
ENDCHAR
STARTCHAR 321B
ENCODING 12827
SWIDTH 960 0
DWIDTH 16 0
BBX 14 16 1 -3
BITMAP
4008
4008
8024
8E24
8024
FFA4
8024
9E3C
9124
A124
9124
9E24
8024
8024
4008
4008
ENDCHAR
STARTCHAR 321C
ENCODING 12828
SWIDTH 960 0
DWIDTH 16 0
BBX 14 16 1 -3
BITMAP
4008
4008
8004
9FE4
8304
8784
8CC4
B034
8004
FFFC
8304
8304
8304
8304
4308
4008
ENDCHAR
STARTCHAR 3231
ENCODING 12849
SWIDTH 960 0
DWIDTH 16 0
BBX 14 16 1 -3
BITMAP
4008
4048
8844
8944
FDF4
9A44
9A44
9BFC
ACC4
A8E4
C964
8A54
8844
8844
4008
4008
ENDCHAR
STARTCHAR 3239
ENCODING 12857
SWIDTH 960 0
DWIDTH 16 0
BBX 14 16 1 -3
BITMAP
4008
4008
8504
8944
8904
91F4
B704
D104
9104
9084
9084
9094
9054
9064
4008
4008
ENDCHAR
STARTCHAR 3251
ENCODING 12881
SWIDTH 960 0
DWIDTH 16 0
BBX 16 15 0 -2
BITMAP
03C0
0C30
1008
2F14
4892
50B2
8091
8111
8211
8411
4812
5F92
2004
1008
0FF0
ENDCHAR
STARTCHAR 3252
ENCODING 12882
SWIDTH 960 0
DWIDTH 16 0
BBX 16 15 0 -2
BITMAP
03C0
0C30
1008
2E74
514A
518A
8109
8211
8421
8841
5042
5FFA
2004
1008
0FF0
ENDCHAR
STARTCHAR 3253
ENCODING 12883
SWIDTH 960 0
DWIDTH 16 0
BBX 16 15 0 -2
BITMAP
03C0
0C30
1008
2E34
514A
518A
8109
8231
8409
8889
508A
5E4A
2034
1008
0FF0
ENDCHAR
STARTCHAR 3254
ENCODING 12884
SWIDTH 960 0
DWIDTH 16 0
BBX 16 15 0 -2
BITMAP
03C0
0C30
1008
2E14
4912
512A
8129
8149
8689
88F9
480A
5F0A
2004
1008
0FF0
ENDCHAR
STARTCHAR 3255
ENCODING 12885
SWIDTH 960 0
DWIDTH 16 0
BBX 16 15 0 -2
BITMAP
03C0
0C30
1008
2E7C
5142
5142
81F1
8289
8409
8809
508A
5E5A
2024
1008
0FF0
ENDCHAR
STARTCHAR 3256
ENCODING 12886
SWIDTH 960 0
DWIDTH 16 0
BBX 16 15 0 -2
BITMAP
03C0
0C30
1008
2E34
514A
5182
81B1
82C9
8489
8885
504A
5E4A
2034
1008
0FF0
ENDCHAR
STARTCHAR 3257
ENCODING 12887
SWIDTH 960 0
DWIDTH 16 0
BBX 16 15 0 -2
BITMAP
03C0
0C30
1008
26FC
490A
5112
8111
8121
8221
8421
4822
5042
3F44
1008
0FF0
ENDCHAR
STARTCHAR 3258
ENCODING 12888
SWIDTH 960 0
DWIDTH 16 0
BBX 16 15 0 -2
BITMAP
03C0
0C30
1008
2E74
514A
518A
8149
8271
8489
8885
5086
5F4A
2034
1008
0FF0
ENDCHAR
STARTCHAR 3259
ENCODING 12889
SWIDTH 960 0
DWIDTH 16 0
BBX 16 15 0 -2
BITMAP
03C0
0C30
1008
2E74
514A
518A
8189
8289
8479
8809
500A
5E5A
2024
1008
0FF0
ENDCHAR
STARTCHAR 325A
ENCODING 12890
SWIDTH 960 0
DWIDTH 16 0
BBX 16 15 0 -2
BITMAP
03C0
0C30
1008
2E34
514A
514A
8185
8685
8185
8185
514A
534A
2C34
1008
0FF0
ENDCHAR
STARTCHAR 3260
ENCODING 12896
SWIDTH 960 0
DWIDTH 16 0
BBX 16 15 0 -2
BITMAP
07E0
1818
2004
4002
4FE2
8021
8021
8021
8021
4022
4022
2024
1008
0810
07E0
ENDCHAR
STARTCHAR 3261
ENCODING 12897
SWIDTH 960 0
DWIDTH 16 0
BBX 16 15 0 -2
BITMAP
07E0
1818
2004
4002
4802
8801
8801
8801
8801
4802
4FF2
2004
1008
0810
07E0
ENDCHAR
STARTCHAR 3262
ENCODING 12898
SWIDTH 960 0
DWIDTH 16 0
BBX 16 15 0 -2
BITMAP
07E0
1818
2004
4002
4FF2
8801
8801
8801
8801
4802
4FF2
2004
1008
0810
07E0
ENDCHAR
STARTCHAR 3263
ENCODING 12899
SWIDTH 960 0
DWIDTH 16 0
BBX 16 15 0 -2
BITMAP
07E0
1818
2004
4002
4FF2
8011
8011
8FF1
8801
4802
4FF2
2004
1008
0810
07E0
ENDCHAR
STARTCHAR 3264
ENCODING 12900
SWIDTH 960 0
DWIDTH 16 0
BBX 16 15 0 -2
BITMAP
07E0
1818
2004
4002
4FF2
8811
8811
8811
8811
4812
4FF2
2004
1008
0810
07E0
ENDCHAR
STARTCHAR 3265
ENCODING 12901
SWIDTH 960 0
DWIDTH 16 0
BBX 16 15 0 -2
BITMAP
07E0
1818
2004
4002
4812
8811
8FF1
8811
8811
4812
4FF2
2004
1008
0810
07E0
ENDCHAR
STARTCHAR 3266
ENCODING 12902
SWIDTH 960 0
DWIDTH 16 0
BBX 16 15 0 -2
BITMAP
07E0
1818
2004
4082
4182
8181
8181
83C1
8661
4C32
4812
2004
1008
0810
07E0
ENDCHAR
STARTCHAR 3267
ENCODING 12903
SWIDTH 960 0
DWIDTH 16 0
BBX 16 15 0 -2
BITMAP
07E0
1810
300C
2004
43C2
4422
8811
8811
8811
4422
43C2
2004
300C
1818
07E0
ENDCHAR
STARTCHAR 3268
ENCODING 12904
SWIDTH 960 0
DWIDTH 16 0
BBX 16 15 0 -2
BITMAP
07E0
1818
2004
4002
4FF2
8181
8101
8181
83C1
4262
4C32
281C
1008
0810
07E0
ENDCHAR
STARTCHAR 3269
ENCODING 12905
SWIDTH 960 0
DWIDTH 16 0
BBX 16 15 0 -2
BITMAP
07E0
1818
2004
43C2
4002
8FF1
8181
8181
8181
4242
4C32
2814
1008
0810
07E0
ENDCHAR
STARTCHAR 326A
ENCODING 12906
SWIDTH 960 0
DWIDTH 16 0
BBX 16 15 0 -2
BITMAP
07E0
1818
2004
4002
4FF2
8011
8011
8FF1
8011
4012
4012
2014
1008
0810
07E0
ENDCHAR
STARTCHAR 326B
ENCODING 12907
SWIDTH 960 0
DWIDTH 16 0
BBX 16 15 0 -2
BITMAP
07E0
1818
2004
4002
4FF2
8801
8801
8FF1
8801
4802
4FF2
2004
1008
0810
07E0
ENDCHAR
STARTCHAR 326C
ENCODING 12908
SWIDTH 960 0
DWIDTH 16 0
BBX 16 15 0 -2
BITMAP
07E0
1818
2004
4002
4FF2
8001
8421
8421
8661
4262
5FFA
2004
1008
0810
07E0
ENDCHAR
STARTCHAR 326D
ENCODING 12909
SWIDTH 960 0
DWIDTH 16 0
BBX 16 15 0 -2
BITMAP
07E0
1818
2004
43C2
4002
9FF9
8001
83C1
8421
4C32
4422
23C4
1008
0810
07E0
ENDCHAR
STARTCHAR 326E
ENCODING 12910
SWIDTH 960 0
DWIDTH 16 0
BBX 16 15 0 -2
BITMAP
07E0
1818
2024
4022
4FA2
80A1
80A1
8119
8121
4222
4422
3824
1028
0810
07E0
ENDCHAR
STARTCHAR 326F
ENCODING 12911
SWIDTH 960 0
DWIDTH 16 0
BBX 16 15 0 -2
BITMAP
07E0
1818
2014
4012
4812
8811
8811
8819
8851
4F92
4012
2014
1018
0810
07E0
ENDCHAR
STARTCHAR 3270
ENCODING 12912
SWIDTH 960 0
DWIDTH 16 0
BBX 16 15 0 -2
BITMAP
07E0
1818
2024
4022
4FA2
8821
8821
8819
8821
4822
4FE2
2024
1028
0810
07E0
ENDCHAR
STARTCHAR 3271
ENCODING 12913
SWIDTH 960 0
DWIDTH 16 0
BBX 16 15 0 -2
BITMAP
07E0
1818
2014
4F92
4092
8091
8F91
9019
9011
5012
4FD2
2014
1018
0810
07E0
ENDCHAR
STARTCHAR 3272
ENCODING 12914
SWIDTH 960 0
DWIDTH 16 0
BBX 16 15 0 -2
BITMAP
07E0
1818
2014
4012
4F92
9091
9091
9099
9091
4F92
4012
2014
1018
0810
07E0
ENDCHAR
STARTCHAR 3273
ENCODING 12915
SWIDTH 960 0
DWIDTH 16 0
BBX 16 15 0 -2
BITMAP
07E0
1818
2014
4012
4892
8891
8F91
8899
8891
4F92
4012
2014
1018
0810
07E0
ENDCHAR
STARTCHAR 3274
ENCODING 12916
SWIDTH 960 0
DWIDTH 16 0
BBX 16 15 0 -2
BITMAP
07E0
1818
2014
4212
4212
8211
8611
8619
8511
4912
5092
2014
1018
0810
07E0
ENDCHAR
STARTCHAR 3275
ENCODING 12917
SWIDTH 960 0
DWIDTH 16 0
BBX 16 15 0 -2
BITMAP
07E0
1818
2014
4712
4912
9091
9091
9099
9091
4912
4712
2014
1018
0810
07E0
ENDCHAR
STARTCHAR 3276
ENCODING 12918
SWIDTH 960 0
DWIDTH 16 0
BBX 16 15 0 -2
BITMAP
07E0
1818
2014
4012
5F92
8211
8211
8619
8511
4892
5052
2014
1018
0810
07E0
ENDCHAR
STARTCHAR 3277
ENCODING 12919
SWIDTH 960 0
DWIDTH 16 0
BBX 16 15 0 -2
BITMAP
07E0
1818
2014
4712
4012
9FD1
8211
8219
8511
4892
5052
2014
1018
0810
07E0
ENDCHAR
STARTCHAR 3278
ENCODING 12920
SWIDTH 960 0
DWIDTH 16 0
BBX 16 15 0 -2
BITMAP
07E0
1818
2014
4F92
4092
8091
8F11
8119
8211
4412
4812
2014
1018
0810
07E0
ENDCHAR
STARTCHAR 3279
ENCODING 12921
SWIDTH 960 0
DWIDTH 16 0
BBX 16 15 0 -2
BITMAP
07E0
1818
201C
4016
4F92
9012
9011
8F99
9011
5012
4FD2
2014
1018
0810
07E0
ENDCHAR
STARTCHAR 327A
ENCODING 12922
SWIDTH 960 0
DWIDTH 16 0
BBX 16 15 0 -2
BITMAP
07E0
1818
2014
4012
5F92
8011
8911
8919
8511
4512
5F92
2014
1018
0810
07E0
ENDCHAR
STARTCHAR 327B
ENCODING 12923
SWIDTH 960 0
DWIDTH 16 0
BBX 16 15 0 -2
BITMAP
07E0
1818
2024
4722
4022
9FE1
8021
8719
88A1
48A2
4722
2024
1028
0810
07E0
ENDCHAR
STARTCHAR 327F
ENCODING 12927
SWIDTH 960 0
DWIDTH 16 0
BBX 14 14 1 -2
BITMAP
0FC0
3860
6010
4CC8
8D8C
8F00
EE3C
0F04
0F84
8D8C
4CC8
6010
3060
0FC0
ENDCHAR
STARTCHAR 328A
ENCODING 12938
SWIDTH 960 0
DWIDTH 16 0
BBX 14 14 1 -2
BITMAP
1FE0
2010
4FC8
8844
8FC4
8844
8844
8FC4
8844
8844
5048
50C8
3030
0FC0
ENDCHAR
STARTCHAR 328B
ENCODING 12939
SWIDTH 960 0
DWIDTH 16 0
BBX 14 14 1 -2
BITMAP
1FE0
2010
4108
8104
9124
9224
9304
8304
8484
8444
5868
6008
3030
0FC0
ENDCHAR
STARTCHAR 328C
ENCODING 12940
SWIDTH 960 0
DWIDTH 16 0
BBX 14 14 1 -2
BITMAP
1FE0
2110
4108
8104
BF24
85C4
8584
8984
8944
9124
6118
4208
3030
0FC0
ENDCHAR
STARTCHAR 328D
ENCODING 12941
SWIDTH 960 0
DWIDTH 16 0
BBX 14 14 1 -2
BITMAP
1FE0
2010
4208
8204
BFF4
8304
8684
8684
8A44
9234
6218
4208
3030
0FC0
ENDCHAR
STARTCHAR 328E
ENCODING 12942
SWIDTH 960 0
DWIDTH 16 0
BBX 14 14 1 -2
BITMAP
1FE0
2110
4308
8484
8844
97F4
A104
8FC4
8944
8944
4108
7FF8
3030
0FC0
ENDCHAR
STARTCHAR 328F
ENCODING 12943
SWIDTH 960 0
DWIDTH 16 0
BBX 14 14 1 -2
BITMAP
1FE0
2010
4208
8204
8204
9FE4
8204
8204
8204
8204
7FF8
4008
3030
0FC0
ENDCHAR
STARTCHAR 3290
ENCODING 12944
SWIDTH 960 0
DWIDTH 16 0
BBX 14 14 1 -2
BITMAP
1FE0
2010
4FC8
9044
9044
9044
8FC4
9044
9044
9044
4FC8
4008
3030
0FC0
ENDCHAR
STARTCHAR 3294
ENCODING 12948
SWIDTH 960 0
DWIDTH 16 0
BBX 14 14 1 -2
BITMAP
1FE0
2210
4788
8FC4
B984
AF04
8E04
FFE4
AC24
8C24
8FE4
4FE8
2010
1FE0
ENDCHAR
STARTCHAR 329E
ENCODING 12958
SWIDTH 960 0
DWIDTH 16 0
BBX 16 15 0 -2
BITMAP
03C0
0C30
1008
27F4
488A
508A
9089
8E89
9089
9089
4E8A
50B2
2084
1008
0FF0
ENDCHAR
STARTCHAR 32A5
ENCODING 12965
SWIDTH 960 0
DWIDTH 16 0
BBX 14 14 1 -2
BITMAP
1FE0
2010
4308
8304
9FF4
9334
9334
9FF4
9FF4
8304
8304
4308
2310
1FE0
ENDCHAR
STARTCHAR 3380
ENCODING 13184
SWIDTH 960 0
DWIDTH 16 0
BBX 14 14 1 -3
BITMAP
0060
0060
00A0
B890
C490
8490
8510
85F8
8508
8508
C604
BA04
8000
8000
ENDCHAR
STARTCHAR 3381
ENCODING 13185
SWIDTH 960 0
DWIDTH 16 0
BBX 14 12 1 -1
BITMAP
0060
0060
0060
F890
8890
8490
8488
85F8
8508
8508
8604
8604
ENDCHAR
STARTCHAR 3382
ENCODING 13186
SWIDTH 960 0
DWIDTH 16 0
BBX 14 14 1 -3
BITMAP
0020
0060
0050
1250
1290
2488
2488
25F8
4908
4904
4904
BE04
8000
8000
ENDCHAR
STARTCHAR 3383
ENCODING 13187
SWIDTH 960 0
DWIDTH 16 0
BBX 14 12 1 -1
BITMAP
0020
0060
0050
FC50
B490
A488
A488
A4F8
A508
A504
A504
8404
ENDCHAR
STARTCHAR 3384
ENCODING 13188
SWIDTH 960 0
DWIDTH 16 0
BBX 14 12 1 -1
BITMAP
8060
8060
8060
8C90
9890
B090
E108
D1F8
9108
8908
8604
8604
ENDCHAR
STARTCHAR 3388
ENCODING 13192
SWIDTH 960 0
DWIDTH 16 0
BBX 14 12 1 -1
BITMAP
0004
0004
0004
79E4
4524
8424
8064
81A4
8224
4624
4A24
39D4
ENDCHAR
STARTCHAR 3389
ENCODING 13193
SWIDTH 960 0
DWIDTH 16 0
BBX 14 12 1 -1
BITMAP
8004
8004
8004
9774
A954
A914
C814
A874
A894
9994
9594
866C
ENDCHAR
STARTCHAR 338A
ENCODING 13194
SWIDTH 960 0
DWIDTH 16 0
BBX 14 14 1 -3
BITMAP
01FC
0100
0100
BD00
C500
83F8
8300
8300
8300
8500
C500
B900
8000
8000
ENDCHAR
STARTCHAR 338B
ENCODING 13195
SWIDTH 960 0
DWIDTH 16 0
BBX 14 12 1 -1
BITMAP
01FC
0100
0100
BD00
C500
85F8
8500
8500
8500
8500
8500
8500
ENDCHAR
STARTCHAR 338C
ENCODING 13196
SWIDTH 960 0
DWIDTH 16 0
BBX 14 14 1 -3
BITMAP
00FC
0080
0080
1280
1280
22FC
2480
2480
4480
4880
4A80
BC80
8000
8000
ENDCHAR
STARTCHAR 338D
ENCODING 13197
SWIDTH 960 0
DWIDTH 16 0
BBX 14 11 1 -3
BITMAP
117C
128C
1284
2284
2484
2484
448C
487C
7604
8084
8078
ENDCHAR
STARTCHAR 338E
ENCODING 13198
SWIDTH 960 0
DWIDTH 16 0
BBX 14 11 1 -3
BITMAP
FC74
928C
9284
9284
9284
9284
928C
9274
9204
0088
00F8
ENDCHAR
STARTCHAR 338F
ENCODING 13199
SWIDTH 960 0
DWIDTH 16 0
BBX 12 14 2 -3
BITMAP
8000
8000
8000
89F0
9110
A210
E210
A210
9210
8910
89F0
0410
0110
01F0
ENDCHAR
STARTCHAR 3390
ENCODING 13200
SWIDTH 960 0
DWIDTH 16 0
BBX 14 12 1 -1
BITMAP
8200
8200
8200
82FC
8208
FE10
8210
8220
8240
8240
8280
82FC
ENDCHAR
STARTCHAR 3391
ENCODING 13201
SWIDTH 960 0
DWIDTH 16 0
BBX 14 12 1 -1
BITMAP
8480
8480
8480
94BC
A484
A788
C488
A490
A490
94A0
94A0
00BC
ENDCHAR
STARTCHAR 3392
ENCODING 13202
SWIDTH 960 0
DWIDTH 16 0
BBX 14 12 1 -1
BITMAP
8A40
8A40
8A40
DA7C
DA44
DBC8
DA48
DA48
EA50
AA50
AA60
A87C
ENDCHAR
STARTCHAR 3393
ENCODING 13203
SWIDTH 960 0
DWIDTH 16 0
BBX 14 13 1 -1
BITMAP
3000
5A40
8A40
8A40
827C
8244
83C8
BA48
8A48
8A50
8A50
5A60
707C
ENDCHAR
STARTCHAR 3394
ENCODING 13204
SWIDTH 960 0
DWIDTH 16 0
BBX 14 12 1 -1
BITMAP
FC40
2440
2440
247C
2444
27C8
2448
2450
2450
2450
2460
247C
ENDCHAR
STARTCHAR 3395
ENCODING 13205
SWIDTH 960 0
DWIDTH 16 0
BBX 14 14 1 -3
BITMAP
0008
001C
0024
0024
1124
1128
1228
2258
2250
2460
4440
45A8
7E30
8000
ENDCHAR
STARTCHAR 3396
ENCODING 13206
SWIDTH 960 0
DWIDTH 16 0
BBX 14 13 1 -1
BITMAP
0008
001C
0024
0024
F624
9928
8948
9158
9150
9160
9140
91A8
8130
ENDCHAR
STARTCHAR 3397
ENCODING 13207
SWIDTH 960 0
DWIDTH 16 0
BBX 14 13 1 -1
BITMAP
0008
0118
0124
0124
3D28
4348
4348
8150
8150
8160
4348
65C8
3930
ENDCHAR
STARTCHAR 3398
ENCODING 13208
SWIDTH 960 0
DWIDTH 16 0
BBX 12 13 2 -1
BITMAP
0020
8050
8050
8090
8C90
9890
90A0
A0A0
D0C0
9880
8980
86A0
8440
ENDCHAR
STARTCHAR 3399
ENCODING 13209
SWIDTH 960 0
DWIDTH 16 0
BBX 12 12 2 -1
BITMAP
6000
4000
4000
F7F0
4490
4490
4490
4490
4490
4490
4490
4490
ENDCHAR
STARTCHAR 339A
ENCODING 13210
SWIDTH 960 0
DWIDTH 16 0
BBX 14 9 1 -1
BITMAP
FADC
8B24
8A24
8A24
8A24
8A24
8A24
8A24
8224
ENDCHAR
STARTCHAR 339B
ENCODING 13211
SWIDTH 960 0
DWIDTH 16 0
BBX 14 11 1 -3
BITMAP
12FC
12B4
24A4
24A4
24A4
48A4
48A4
4AA4
BC24
8000
8000
ENDCHAR
STARTCHAR 339C
ENCODING 13212
SWIDTH 960 0
DWIDTH 16 0
BBX 14 9 1 -1
BITMAP
EDFC
9324
9324
9324
9324
9324
9324
9324
9324
ENDCHAR
STARTCHAR 339D
ENCODING 13213
SWIDTH 960 0
DWIDTH 16 0
BBX 14 9 1 -1
BITMAP
7DFC
4524
8324
8124
8124
8124
C524
4524
3924
ENDCHAR
STARTCHAR 339E
ENCODING 13214
SWIDTH 960 0
DWIDTH 16 0
BBX 14 12 1 -1
BITMAP
8000
8000
8000
8DF8
8924
9124
A124
D124
8924
8924
8524
8524
ENDCHAR
STARTCHAR 339F
ENCODING 13215
SWIDTH 960 0
DWIDTH 16 0
BBX 14 14 1 -1
BITMAP
0008
0004
0008
000C
0000
EDFC
9324
9324
9324
9324
9324
9324
9324
9324
ENDCHAR
STARTCHAR 33A0
ENCODING 13216
SWIDTH 960 0
DWIDTH 16 0
BBX 14 14 1 -1
BITMAP
0008
0004
0008
000C
0000
7DFC
4524
8324
8124
8124
8124
8524
4524
3924
ENDCHAR
STARTCHAR 33A1
ENCODING 13217
SWIDTH 960 0
DWIDTH 16 0
BBX 12 14 2 -1
BITMAP
0020
0050
0020
0070
0000
BFC0
C440
C420
8420
8420
8420
8420
8420
8420
ENDCHAR
STARTCHAR 33A2
ENCODING 13218
SWIDTH 960 0
DWIDTH 16 0
BBX 14 14 1 -1
BITMAP
0008
0004
8008
800C
8000
8DF8
8924
9124
A124
D124
8924
8924
8524
8524
ENDCHAR
STARTCHAR 33A3
ENCODING 13219
SWIDTH 960 0
DWIDTH 16 0
BBX 14 14 1 -1
BITMAP
0008
0004
000C
000C
0000
EDFC
9324
9324
9324
9324
9324
9324
9324
9324
ENDCHAR
STARTCHAR 33A4
ENCODING 13220
SWIDTH 960 0
DWIDTH 16 0
BBX 14 14 1 -1
BITMAP
0008
0004
000C
000C
0000
7DFC
4524
8124
8124
8124
8124
8524
4524
3924
ENDCHAR
ENDFONT
